<?xml version="1.0" encoding="UTF-8" standalone="no"?>
<!DOCTYPE svg PUBLIC "-//W3C//DTD SVG 1.1//EN"
 "http://www.w3.org/Graphics/SVG/1.1/DTD/svg11.dtd">
<!-- Generated by graphviz version 2.47.0 (20210316.0004)
 -->
<!-- Title: dependencies Pages: 1 -->
<svg width="504pt" height="284pt"
 viewBox="0.00 0.00 504.00 284.00" xmlns="http://www.w3.org/2000/svg" xmlns:xlink="http://www.w3.org/1999/xlink">
<g id="graph0" class="graph" transform="scale(1 1) rotate(0) translate(4 280)">
<title>dependencies</title>
<polygon fill="white" stroke="transparent" points="-4,4 -4,-280 500,-280 500,4 -4,4"/>
<text text-anchor="start" x="227.01" y="-42.4" font-family="Times-12" font-weight="bold" font-size="14.00">Legend</text>
<polygon fill="#ffffb3" stroke="transparent" points="14,-10 14,-30 34,-30 34,-10 14,-10"/>
<text text-anchor="start" x="37.63" y="-15.4" font-family="Times-12" font-size="14.00"> &#160;Declarations</text>
<polygon fill="#8dd3c7" stroke="transparent" points="127,-10 127,-30 147,-30 147,-10 127,-10"/>
<text text-anchor="start" x="150.73" y="-15.4" font-family="Times-12" font-size="14.00"> &#160;Module</text>
<polygon fill="#80b1d3" stroke="transparent" points="213,-10 213,-30 233,-30 233,-10 213,-10"/>
<text text-anchor="start" x="236.78" y="-15.4" font-family="Times-12" font-size="14.00"> &#160;Bootstrap</text>
<polygon fill="#fdb462" stroke="transparent" points="310,-10 310,-30 330,-30 330,-10 310,-10"/>
<text text-anchor="start" x="333.67" y="-15.4" font-family="Times-12" font-size="14.00"> &#160;Providers</text>
<polygon fill="#fb8072" stroke="transparent" points="406,-10 406,-30 426,-30 426,-10 406,-10"/>
<text text-anchor="start" x="429.73" y="-15.4" font-family="Times-12" font-size="14.00"> &#160;Exports</text>
<g id="clust1" class="cluster">
<title>cluster_CoreModule</title>
<polygon fill="none" stroke="black" stroke-dasharray="1,5" points="62.5,-70 62.5,-268 433.5,-268 433.5,-70 62.5,-70"/>
</g>
<g id="clust3" class="cluster">
<title>cluster_CoreModule_imports</title>
<polygon fill="none" stroke="black" points="70.5,-78 70.5,-130 425.5,-130 425.5,-78 70.5,-78"/>
</g>
<g id="clust4" class="cluster">
<title>cluster_CoreModule_exports</title>
<polygon fill="none" stroke="black" points="133.5,-208 133.5,-260 366.5,-260 366.5,-208 133.5,-208"/>
</g>
<!-- ClockModule -->
<g id="node1" class="node">
<title>ClockModule</title>
<polygon fill="#8dd3c7" stroke="black" points="417.99,-122 414.99,-126 393.99,-126 390.99,-122 325.01,-122 325.01,-86 417.99,-86 417.99,-122"/>
<text text-anchor="middle" x="371.5" y="-99.8" font-family="Times,serif" font-size="14.00">ClockModule</text>
</g>
<!-- CoreModule -->
<g id="node4" class="node">
<title>CoreModule</title>
<polygon fill="#8dd3c7" stroke="black" points="294.76,-187 291.76,-191 270.76,-191 267.76,-187 208.24,-187 208.24,-151 294.76,-151 294.76,-187"/>
<text text-anchor="middle" x="251.5" y="-164.8" font-family="Times,serif" font-size="14.00">CoreModule</text>
</g>
<!-- ClockModule&#45;&gt;CoreModule -->
<g id="edge1" class="edge">
<title>ClockModule&#45;&gt;CoreModule</title>
<path fill="none" stroke="black" d="M341.88,-122.11C341.88,-141.34 341.88,-169 341.88,-169 341.88,-169 304.83,-169 304.83,-169"/>
<polygon fill="black" stroke="black" points="304.83,-165.5 294.83,-169 304.83,-172.5 304.83,-165.5"/>
</g>
<!-- CommonModule -->
<g id="node2" class="node">
<title>CommonModule</title>
<polygon fill="#8dd3c7" stroke="black" points="307.17,-122 304.17,-126 283.17,-126 280.17,-122 195.83,-122 195.83,-86 307.17,-86 307.17,-122"/>
<text text-anchor="middle" x="251.5" y="-99.8" font-family="Times,serif" font-size="14.00">CommonModule</text>
</g>
<!-- CommonModule&#45;&gt;CoreModule -->
<g id="edge2" class="edge">
<title>CommonModule&#45;&gt;CoreModule</title>
<path fill="none" stroke="black" d="M251.5,-122.11C251.5,-122.11 251.5,-140.99 251.5,-140.99"/>
<polygon fill="black" stroke="black" points="248,-140.99 251.5,-150.99 255,-140.99 248,-140.99"/>
</g>
<!-- DeviceModule -->
<g id="node3" class="node">
<title>DeviceModule</title>
<polygon fill="#8dd3c7" stroke="black" points="178.19,-122 175.19,-126 154.19,-126 151.19,-122 78.81,-122 78.81,-86 178.19,-86 178.19,-122"/>
<text text-anchor="middle" x="128.5" y="-99.8" font-family="Times,serif" font-size="14.00">DeviceModule</text>
</g>
<!-- DeviceModule&#45;&gt;CoreModule -->
<g id="edge3" class="edge">
<title>DeviceModule&#45;&gt;CoreModule</title>
<path fill="none" stroke="black" d="M159.62,-122.11C159.62,-141.34 159.62,-169 159.62,-169 159.62,-169 197.98,-169 197.98,-169"/>
<polygon fill="black" stroke="black" points="197.98,-172.5 207.98,-169 197.98,-165.5 197.98,-172.5"/>
</g>
<!-- ClockModule  -->
<g id="node5" class="node">
<title>ClockModule </title>
<polygon fill="#fb8072" stroke="black" points="358.99,-252 262.01,-252 262.01,-216 358.99,-216 358.99,-252"/>
<text text-anchor="middle" x="310.5" y="-229.8" font-family="Times,serif" font-size="14.00">ClockModule </text>
</g>
<!-- CoreModule&#45;&gt;ClockModule  -->
<g id="edge4" class="edge">
<title>CoreModule&#45;&gt;ClockModule </title>
<path fill="none" stroke="black" stroke-dasharray="5,2" d="M278.57,-187.11C278.57,-187.11 278.57,-205.99 278.57,-205.99"/>
<polygon fill="black" stroke="black" points="275.07,-205.99 278.57,-215.99 282.07,-205.99 275.07,-205.99"/>
</g>
<!-- DeviceModule  -->
<g id="node6" class="node">
<title>DeviceModule </title>
<polygon fill="#fb8072" stroke="black" points="243.69,-252 141.31,-252 141.31,-216 243.69,-216 243.69,-252"/>
<text text-anchor="middle" x="192.5" y="-229.8" font-family="Times,serif" font-size="14.00">DeviceModule </text>
</g>
<!-- CoreModule&#45;&gt;DeviceModule  -->
<g id="edge5" class="edge">
<title>CoreModule&#45;&gt;DeviceModule </title>
<path fill="none" stroke="black" stroke-dasharray="5,2" d="M225.98,-187.11C225.98,-187.11 225.98,-205.99 225.98,-205.99"/>
<polygon fill="black" stroke="black" points="222.48,-205.99 225.98,-215.99 229.48,-205.99 222.48,-205.99"/>
</g>
</g>
</svg>
