<?xml version="1.0" encoding="UTF-8" standalone="no"?>
<!DOCTYPE svg PUBLIC "-//W3C//DTD SVG 1.1//EN"
 "http://www.w3.org/Graphics/SVG/1.1/DTD/svg11.dtd">
<!-- Generated by graphviz version 2.47.0 (20210316.0004)
 -->
<!-- Title: dependencies Pages: 1 -->
<svg width="566pt" height="284pt"
 viewBox="0.00 0.00 566.00 284.00" xmlns="http://www.w3.org/2000/svg" xmlns:xlink="http://www.w3.org/1999/xlink">
<g id="graph0" class="graph" transform="scale(1 1) rotate(0) translate(4 280)">
<title>dependencies</title>
<polygon fill="white" stroke="transparent" points="-4,4 -4,-280 562,-280 562,4 -4,4"/>
<text text-anchor="start" x="258.01" y="-42.4" font-family="Times-12" font-weight="bold" font-size="14.00">Legend</text>
<polygon fill="#ffffb3" stroke="transparent" points="45,-10 45,-30 65,-30 65,-10 45,-10"/>
<text text-anchor="start" x="68.63" y="-15.4" font-family="Times-12" font-size="14.00"> &#160;Declarations</text>
<polygon fill="#8dd3c7" stroke="transparent" points="158,-10 158,-30 178,-30 178,-10 158,-10"/>
<text text-anchor="start" x="181.73" y="-15.4" font-family="Times-12" font-size="14.00"> &#160;Module</text>
<polygon fill="#80b1d3" stroke="transparent" points="244,-10 244,-30 264,-30 264,-10 244,-10"/>
<text text-anchor="start" x="267.78" y="-15.4" font-family="Times-12" font-size="14.00"> &#160;Bootstrap</text>
<polygon fill="#fdb462" stroke="transparent" points="341,-10 341,-30 361,-30 361,-10 341,-10"/>
<text text-anchor="start" x="364.67" y="-15.4" font-family="Times-12" font-size="14.00"> &#160;Providers</text>
<polygon fill="#fb8072" stroke="transparent" points="437,-10 437,-30 457,-30 457,-10 437,-10"/>
<text text-anchor="start" x="460.73" y="-15.4" font-family="Times-12" font-size="14.00"> &#160;Exports</text>
<g id="clust1" class="cluster">
<title>cluster_RedisModule</title>
<polygon fill="none" stroke="black" stroke-dasharray="1,5" points="8,-70 8,-268 550,-268 550,-70 8,-70"/>
</g>
<g id="clust6" class="cluster">
<title>cluster_RedisModule_providers</title>
<polygon fill="none" stroke="black" points="16,-78 16,-130 542,-130 542,-78 16,-78"/>
</g>
<g id="clust4" class="cluster">
<title>cluster_RedisModule_exports</title>
<polygon fill="none" stroke="black" points="105,-208 105,-260 399,-260 399,-208 105,-208"/>
</g>
<!-- RedisCounterService  -->
<g id="node1" class="node">
<title>RedisCounterService </title>
<polygon fill="#fb8072" stroke="black" points="391.47,-252 252.53,-252 252.53,-216 391.47,-216 391.47,-252"/>
<text text-anchor="middle" x="322" y="-229.8" font-family="Times,serif" font-size="14.00">RedisCounterService </text>
</g>
<!-- RedisLockService  -->
<g id="node2" class="node">
<title>RedisLockService </title>
<polygon fill="#fb8072" stroke="black" points="235.13,-252 112.87,-252 112.87,-216 235.13,-216 235.13,-252"/>
<text text-anchor="middle" x="174" y="-229.8" font-family="Times,serif" font-size="14.00">RedisLockService </text>
</g>
<!-- RedisModule -->
<g id="node3" class="node">
<title>RedisModule</title>
<polygon fill="#8dd3c7" stroke="black" points="293.94,-187 290.94,-191 269.94,-191 266.94,-187 202.06,-187 202.06,-151 293.94,-151 293.94,-187"/>
<text text-anchor="middle" x="248" y="-164.8" font-family="Times,serif" font-size="14.00">RedisModule</text>
</g>
<!-- RedisModule&#45;&gt;RedisCounterService  -->
<g id="edge1" class="edge">
<title>RedisModule&#45;&gt;RedisCounterService </title>
<path fill="none" stroke="black" stroke-dasharray="5,2" d="M273.24,-187.11C273.24,-187.11 273.24,-205.99 273.24,-205.99"/>
<polygon fill="black" stroke="black" points="269.74,-205.99 273.24,-215.99 276.74,-205.99 269.74,-205.99"/>
</g>
<!-- RedisModule&#45;&gt;RedisLockService  -->
<g id="edge2" class="edge">
<title>RedisModule&#45;&gt;RedisLockService </title>
<path fill="none" stroke="black" stroke-dasharray="5,2" d="M218.67,-187.11C218.67,-187.11 218.67,-205.99 218.67,-205.99"/>
<polygon fill="black" stroke="black" points="215.17,-205.99 218.67,-215.99 222.17,-205.99 215.17,-205.99"/>
</g>
<!-- RedisCounterService -->
<g id="node4" class="node">
<title>RedisCounterService</title>
<ellipse fill="#fdb462" stroke="black" cx="441" cy="-104" rx="93.19" ry="18"/>
<text text-anchor="middle" x="441" y="-99.8" font-family="Times,serif" font-size="14.00">RedisCounterService</text>
</g>
<!-- RedisCounterService&#45;&gt;RedisModule -->
<g id="edge3" class="edge">
<title>RedisCounterService&#45;&gt;RedisModule</title>
<path fill="none" stroke="black" d="M369.57,-115.62C369.57,-134.32 369.57,-169 369.57,-169 369.57,-169 303.96,-169 303.96,-169"/>
<polygon fill="black" stroke="black" points="303.96,-165.5 293.96,-169 303.96,-172.5 303.96,-165.5"/>
</g>
<!-- RedisLockService -->
<g id="node5" class="node">
<title>RedisLockService</title>
<ellipse fill="#fdb462" stroke="black" cx="248" cy="-104" rx="81.66" ry="18"/>
<text text-anchor="middle" x="248" y="-99.8" font-family="Times,serif" font-size="14.00">RedisLockService</text>
</g>
<!-- RedisLockService&#45;&gt;RedisModule -->
<g id="edge4" class="edge">
<title>RedisLockService&#45;&gt;RedisModule</title>
<path fill="none" stroke="black" d="M248,-122.11C248,-122.11 248,-140.99 248,-140.99"/>
<polygon fill="black" stroke="black" points="244.5,-140.99 248,-150.99 251.5,-140.99 244.5,-140.99"/>
</g>
<!-- RedisService -->
<g id="node6" class="node">
<title>RedisService</title>
<ellipse fill="#fdb462" stroke="black" cx="86" cy="-104" rx="61.97" ry="18"/>
<text text-anchor="middle" x="86" y="-99.8" font-family="Times,serif" font-size="14.00">RedisService</text>
</g>
<!-- RedisService&#45;&gt;RedisModule -->
<g id="edge5" class="edge">
<title>RedisService&#45;&gt;RedisModule</title>
<path fill="none" stroke="black" d="M130.46,-116.84C130.46,-135.78 130.46,-169 130.46,-169 130.46,-169 192.22,-169 192.22,-169"/>
<polygon fill="black" stroke="black" points="192.22,-172.5 202.22,-169 192.22,-165.5 192.22,-172.5"/>
</g>
</g>
</svg>
