<?xml version="1.0" encoding="UTF-8" standalone="no"?>
<!DOCTYPE svg PUBLIC "-//W3C//DTD SVG 1.1//EN"
 "http://www.w3.org/Graphics/SVG/1.1/DTD/svg11.dtd">
<!-- Generated by graphviz version 2.47.0 (20210316.0004)
 -->
<!-- Title: dependencies Pages: 1 -->
<svg width="504pt" height="284pt"
 viewBox="0.00 0.00 504.00 284.00" xmlns="http://www.w3.org/2000/svg" xmlns:xlink="http://www.w3.org/1999/xlink">
<g id="graph0" class="graph" transform="scale(1 1) rotate(0) translate(4 280)">
<title>dependencies</title>
<polygon fill="white" stroke="transparent" points="-4,4 -4,-280 500,-280 500,4 -4,4"/>
<text text-anchor="start" x="227.01" y="-42.4" font-family="Times-12" font-weight="bold" font-size="14.00">Legend</text>
<polygon fill="#ffffb3" stroke="transparent" points="14,-10 14,-30 34,-30 34,-10 14,-10"/>
<text text-anchor="start" x="37.63" y="-15.4" font-family="Times-12" font-size="14.00"> &#160;Declarations</text>
<polygon fill="#8dd3c7" stroke="transparent" points="127,-10 127,-30 147,-30 147,-10 127,-10"/>
<text text-anchor="start" x="150.73" y="-15.4" font-family="Times-12" font-size="14.00"> &#160;Module</text>
<polygon fill="#80b1d3" stroke="transparent" points="213,-10 213,-30 233,-30 233,-10 213,-10"/>
<text text-anchor="start" x="236.78" y="-15.4" font-family="Times-12" font-size="14.00"> &#160;Bootstrap</text>
<polygon fill="#fdb462" stroke="transparent" points="310,-10 310,-30 330,-30 330,-10 310,-10"/>
<text text-anchor="start" x="333.67" y="-15.4" font-family="Times-12" font-size="14.00"> &#160;Providers</text>
<polygon fill="#fb8072" stroke="transparent" points="406,-10 406,-30 426,-30 426,-10 406,-10"/>
<text text-anchor="start" x="429.73" y="-15.4" font-family="Times-12" font-size="14.00"> &#160;Exports</text>
<g id="clust1" class="cluster">
<title>cluster_RedisModule</title>
<polygon fill="none" stroke="black" stroke-dasharray="1,5" points="79,-70 79,-268 417,-268 417,-70 79,-70"/>
</g>
<g id="clust6" class="cluster">
<title>cluster_RedisModule_providers</title>
<polygon fill="none" stroke="black" points="87,-78 87,-130 409,-130 409,-78 87,-78"/>
</g>
<g id="clust4" class="cluster">
<title>cluster_RedisModule_exports</title>
<polygon fill="none" stroke="black" points="169,-208 169,-260 307,-260 307,-208 169,-208"/>
</g>
<!-- RedisLockService  -->
<g id="node1" class="node">
<title>RedisLockService </title>
<polygon fill="#fb8072" stroke="black" points="299.13,-252 176.87,-252 176.87,-216 299.13,-216 299.13,-252"/>
<text text-anchor="middle" x="238" y="-229.8" font-family="Times,serif" font-size="14.00">RedisLockService </text>
</g>
<!-- RedisModule -->
<g id="node2" class="node">
<title>RedisModule</title>
<polygon fill="#8dd3c7" stroke="black" points="283.94,-187 280.94,-191 259.94,-191 256.94,-187 192.06,-187 192.06,-151 283.94,-151 283.94,-187"/>
<text text-anchor="middle" x="238" y="-164.8" font-family="Times,serif" font-size="14.00">RedisModule</text>
</g>
<!-- RedisModule&#45;&gt;RedisLockService  -->
<g id="edge1" class="edge">
<title>RedisModule&#45;&gt;RedisLockService </title>
<path fill="none" stroke="black" stroke-dasharray="5,2" d="M238,-187.11C238,-187.11 238,-205.99 238,-205.99"/>
<polygon fill="black" stroke="black" points="234.5,-205.99 238,-215.99 241.5,-205.99 234.5,-205.99"/>
</g>
<!-- RedisLockService -->
<g id="node3" class="node">
<title>RedisLockService</title>
<ellipse fill="#fdb462" stroke="black" cx="319" cy="-104" rx="81.66" ry="18"/>
<text text-anchor="middle" x="319" y="-99.8" font-family="Times,serif" font-size="14.00">RedisLockService</text>
</g>
<!-- RedisLockService&#45;&gt;RedisModule -->
<g id="edge2" class="edge">
<title>RedisLockService&#45;&gt;RedisModule</title>
<path fill="none" stroke="black" d="M260.44,-116.84C260.44,-116.84 260.44,-140.52 260.44,-140.52"/>
<polygon fill="black" stroke="black" points="256.94,-140.52 260.44,-150.52 263.94,-140.52 256.94,-140.52"/>
</g>
<!-- RedisService -->
<g id="node4" class="node">
<title>RedisService</title>
<ellipse fill="#fdb462" stroke="black" cx="157" cy="-104" rx="61.97" ry="18"/>
<text text-anchor="middle" x="157" y="-99.8" font-family="Times,serif" font-size="14.00">RedisService</text>
</g>
<!-- RedisService&#45;&gt;RedisModule -->
<g id="edge3" class="edge">
<title>RedisService&#45;&gt;RedisModule</title>
<path fill="none" stroke="black" d="M205.63,-115.32C205.63,-115.32 205.63,-140.94 205.63,-140.94"/>
<polygon fill="black" stroke="black" points="202.13,-140.94 205.63,-150.94 209.13,-140.94 202.13,-140.94"/>
</g>
</g>
</svg>
