<?xml version="1.0" encoding="UTF-8" standalone="no"?>
<!DOCTYPE svg PUBLIC "-//W3C//DTD SVG 1.1//EN"
 "http://www.w3.org/Graphics/SVG/1.1/DTD/svg11.dtd">
<!-- Generated by graphviz version 2.47.0 (20210316.0004)
 -->
<!-- Title: dependencies Pages: 1 -->
<svg width="963pt" height="211pt"
 viewBox="0.00 0.00 963.00 211.00" xmlns="http://www.w3.org/2000/svg" xmlns:xlink="http://www.w3.org/1999/xlink">
<g id="graph0" class="graph" transform="scale(1 1) rotate(0) translate(4 207)">
<title>dependencies</title>
<polygon fill="white" stroke="transparent" points="-4,4 -4,-207 959,-207 959,4 -4,4"/>
<text text-anchor="start" x="456.51" y="-42.4" font-family="Times-12" font-weight="bold" font-size="14.00">Legend</text>
<polygon fill="#ffffb3" stroke="transparent" points="243.5,-10 243.5,-30 263.5,-30 263.5,-10 243.5,-10"/>
<text text-anchor="start" x="267.13" y="-15.4" font-family="Times-12" font-size="14.00"> &#160;Declarations</text>
<polygon fill="#8dd3c7" stroke="transparent" points="356.5,-10 356.5,-30 376.5,-30 376.5,-10 356.5,-10"/>
<text text-anchor="start" x="380.23" y="-15.4" font-family="Times-12" font-size="14.00"> &#160;Module</text>
<polygon fill="#80b1d3" stroke="transparent" points="442.5,-10 442.5,-30 462.5,-30 462.5,-10 442.5,-10"/>
<text text-anchor="start" x="466.28" y="-15.4" font-family="Times-12" font-size="14.00"> &#160;Bootstrap</text>
<polygon fill="#fdb462" stroke="transparent" points="539.5,-10 539.5,-30 559.5,-30 559.5,-10 539.5,-10"/>
<text text-anchor="start" x="563.17" y="-15.4" font-family="Times-12" font-size="14.00"> &#160;Providers</text>
<polygon fill="#fb8072" stroke="transparent" points="635.5,-10 635.5,-30 655.5,-30 655.5,-10 635.5,-10"/>
<text text-anchor="start" x="659.23" y="-15.4" font-family="Times-12" font-size="14.00"> &#160;Exports</text>
<g id="clust1" class="cluster">
<title>cluster_AuthModule</title>
<polygon fill="none" stroke="black" stroke-dasharray="1,5" points="8,-70 8,-195 947,-195 947,-70 8,-70"/>
</g>
<g id="clust6" class="cluster">
<title>cluster_AuthModule_providers</title>
<polygon fill="none" stroke="black" points="645,-78 645,-130 939,-130 939,-78 645,-78"/>
</g>
<g id="clust3" class="cluster">
<title>cluster_AuthModule_imports</title>
<polygon fill="none" stroke="black" points="16,-78 16,-130 637,-130 637,-78 16,-78"/>
</g>
<!-- CsrfModule -->
<g id="node1" class="node">
<title>CsrfModule</title>
<polygon fill="#8dd3c7" stroke="black" points="628.65,-122 625.65,-126 604.65,-126 601.65,-122 545.35,-122 545.35,-86 628.65,-86 628.65,-122"/>
<text text-anchor="middle" x="587" y="-99.8" font-family="Times,serif" font-size="14.00">CsrfModule</text>
</g>
<!-- AuthModule -->
<g id="node6" class="node">
<title>AuthModule</title>
<polygon fill="#8dd3c7" stroke="black" points="493.55,-187 490.55,-191 469.55,-191 466.55,-187 406.45,-187 406.45,-151 493.55,-151 493.55,-187"/>
<text text-anchor="middle" x="450" y="-164.8" font-family="Times,serif" font-size="14.00">AuthModule</text>
</g>
<!-- CsrfModule&#45;&gt;AuthModule -->
<g id="edge1" class="edge">
<title>CsrfModule&#45;&gt;AuthModule</title>
<path fill="none" stroke="black" d="M587,-122.03C587,-138.4 587,-160 587,-160 587,-160 503.72,-160 503.72,-160"/>
<polygon fill="black" stroke="black" points="503.72,-156.5 493.72,-160 503.72,-163.5 503.72,-156.5"/>
</g>
<!-- DeviceDetectionModule -->
<g id="node2" class="node">
<title>DeviceDetectionModule</title>
<polygon fill="#8dd3c7" stroke="black" points="526.61,-122 523.61,-126 502.61,-126 499.61,-122 373.39,-122 373.39,-86 526.61,-86 526.61,-122"/>
<text text-anchor="middle" x="450" y="-99.8" font-family="Times,serif" font-size="14.00">DeviceDetectionModule</text>
</g>
<!-- DeviceDetectionModule&#45;&gt;AuthModule -->
<g id="edge2" class="edge">
<title>DeviceDetectionModule&#45;&gt;AuthModule</title>
<path fill="none" stroke="black" d="M450,-122.11C450,-122.11 450,-140.99 450,-140.99"/>
<polygon fill="black" stroke="black" points="446.5,-140.99 450,-150.99 453.5,-140.99 446.5,-140.99"/>
</g>
<!-- SessionsModule -->
<g id="node3" class="node">
<title>SessionsModule</title>
<polygon fill="#8dd3c7" stroke="black" points="354.77,-122 351.77,-126 330.77,-126 327.77,-122 247.23,-122 247.23,-86 354.77,-86 354.77,-122"/>
<text text-anchor="middle" x="301" y="-99.8" font-family="Times,serif" font-size="14.00">SessionsModule</text>
</g>
<!-- SessionsModule&#45;&gt;AuthModule -->
<g id="edge3" class="edge">
<title>SessionsModule&#45;&gt;AuthModule</title>
<path fill="none" stroke="black" d="M301,-122.03C301,-138.4 301,-160 301,-160 301,-160 396.1,-160 396.1,-160"/>
<polygon fill="black" stroke="black" points="396.1,-163.5 406.1,-160 396.1,-156.5 396.1,-163.5"/>
</g>
<!-- TokenModule -->
<g id="node4" class="node">
<title>TokenModule</title>
<polygon fill="#8dd3c7" stroke="black" points="228.82,-122 225.82,-126 204.82,-126 201.82,-122 133.18,-122 133.18,-86 228.82,-86 228.82,-122"/>
<text text-anchor="middle" x="181" y="-99.8" font-family="Times,serif" font-size="14.00">TokenModule</text>
</g>
<!-- TokenModule&#45;&gt;AuthModule -->
<g id="edge4" class="edge">
<title>TokenModule&#45;&gt;AuthModule</title>
<path fill="none" stroke="black" d="M181,-122.11C181,-141.34 181,-169 181,-169 181,-169 396.18,-169 396.18,-169"/>
<polygon fill="black" stroke="black" points="396.18,-172.5 406.18,-169 396.18,-165.5 396.18,-172.5"/>
</g>
<!-- UsersModule -->
<g id="node5" class="node">
<title>UsersModule</title>
<polygon fill="#8dd3c7" stroke="black" points="115.92,-122 112.92,-126 91.92,-126 88.92,-122 24.08,-122 24.08,-86 115.92,-86 115.92,-122"/>
<text text-anchor="middle" x="70" y="-99.8" font-family="Times,serif" font-size="14.00">UsersModule</text>
</g>
<!-- UsersModule&#45;&gt;AuthModule -->
<g id="edge5" class="edge">
<title>UsersModule&#45;&gt;AuthModule</title>
<path fill="none" stroke="black" d="M70,-122.29C70,-144.21 70,-178 70,-178 70,-178 396.41,-178 396.41,-178"/>
<polygon fill="black" stroke="black" points="396.41,-181.5 406.41,-178 396.41,-174.5 396.41,-181.5"/>
</g>
<!-- AuthService -->
<g id="node7" class="node">
<title>AuthService</title>
<ellipse fill="#fdb462" stroke="black" cx="872" cy="-104" rx="59.11" ry="18"/>
<text text-anchor="middle" x="872" y="-99.8" font-family="Times,serif" font-size="14.00">AuthService</text>
</g>
<!-- AuthService&#45;&gt;AuthModule -->
<g id="edge6" class="edge">
<title>AuthService&#45;&gt;AuthModule</title>
<path fill="none" stroke="black" d="M872,-122.29C872,-144.21 872,-178 872,-178 872,-178 503.57,-178 503.57,-178"/>
<polygon fill="black" stroke="black" points="503.57,-174.5 493.57,-178 503.57,-181.5 503.57,-174.5"/>
</g>
<!-- BcryptProvider -->
<g id="node8" class="node">
<title>BcryptProvider</title>
<ellipse fill="#fdb462" stroke="black" cx="724" cy="-104" rx="70.65" ry="18"/>
<text text-anchor="middle" x="724" y="-99.8" font-family="Times,serif" font-size="14.00">BcryptProvider</text>
</g>
<!-- BcryptProvider&#45;&gt;AuthModule -->
<g id="edge7" class="edge">
<title>BcryptProvider&#45;&gt;AuthModule</title>
<path fill="none" stroke="black" d="M724,-122.11C724,-141.34 724,-169 724,-169 724,-169 503.72,-169 503.72,-169"/>
<polygon fill="black" stroke="black" points="503.72,-165.5 493.72,-169 503.72,-172.5 503.72,-165.5"/>
</g>
</g>
</svg>
