<?xml version="1.0" encoding="UTF-8" standalone="no"?>
<!DOCTYPE svg PUBLIC "-//W3C//DTD SVG 1.1//EN"
 "http://www.w3.org/Graphics/SVG/1.1/DTD/svg11.dtd">
<!-- Generated by graphviz version 2.47.0 (20210316.0004)
 -->
<!-- Title: dependencies Pages: 1 -->
<svg width="963pt" height="211pt"
 viewBox="0.00 0.00 963.00 211.00" xmlns="http://www.w3.org/2000/svg" xmlns:xlink="http://www.w3.org/1999/xlink">
<g id="graph0" class="graph" transform="scale(1 1) rotate(0) translate(4 207)">
<title>dependencies</title>
<polygon fill="white" stroke="transparent" points="-4,4 -4,-207 959,-207 959,4 -4,4"/>
<text text-anchor="start" x="456.51" y="-42.4" font-family="Times-12" font-weight="bold" font-size="14.00">Legend</text>
<polygon fill="#ffffb3" stroke="transparent" points="243.5,-10 243.5,-30 263.5,-30 263.5,-10 243.5,-10"/>
<text text-anchor="start" x="267.13" y="-15.4" font-family="Times-12" font-size="14.00"> &#160;Declarations</text>
<polygon fill="#8dd3c7" stroke="transparent" points="356.5,-10 356.5,-30 376.5,-30 376.5,-10 356.5,-10"/>
<text text-anchor="start" x="380.23" y="-15.4" font-family="Times-12" font-size="14.00"> &#160;Module</text>
<polygon fill="#80b1d3" stroke="transparent" points="442.5,-10 442.5,-30 462.5,-30 462.5,-10 442.5,-10"/>
<text text-anchor="start" x="466.28" y="-15.4" font-family="Times-12" font-size="14.00"> &#160;Bootstrap</text>
<polygon fill="#fdb462" stroke="transparent" points="539.5,-10 539.5,-30 559.5,-30 559.5,-10 539.5,-10"/>
<text text-anchor="start" x="563.17" y="-15.4" font-family="Times-12" font-size="14.00"> &#160;Providers</text>
<polygon fill="#fb8072" stroke="transparent" points="635.5,-10 635.5,-30 655.5,-30 655.5,-10 635.5,-10"/>
<text text-anchor="start" x="659.23" y="-15.4" font-family="Times-12" font-size="14.00"> &#160;Exports</text>
<g id="clust1" class="cluster">
<title>cluster_AuthModule</title>
<polygon fill="none" stroke="black" stroke-dasharray="1,5" points="8,-70 8,-195 947,-195 947,-70 8,-70"/>
</g>
<g id="clust3" class="cluster">
<title>cluster_AuthModule_imports</title>
<polygon fill="none" stroke="black" points="318,-78 318,-130 939,-130 939,-78 318,-78"/>
</g>
<g id="clust6" class="cluster">
<title>cluster_AuthModule_providers</title>
<polygon fill="none" stroke="black" points="16,-78 16,-130 310,-130 310,-78 16,-78"/>
</g>
<!-- CsrfModule -->
<g id="node1" class="node">
<title>CsrfModule</title>
<polygon fill="#8dd3c7" stroke="black" points="930.65,-122 927.65,-126 906.65,-126 903.65,-122 847.35,-122 847.35,-86 930.65,-86 930.65,-122"/>
<text text-anchor="middle" x="889" y="-99.8" font-family="Times,serif" font-size="14.00">CsrfModule</text>
</g>
<!-- AuthModule -->
<g id="node6" class="node">
<title>AuthModule</title>
<polygon fill="#8dd3c7" stroke="black" points="526.55,-187 523.55,-191 502.55,-191 499.55,-187 439.45,-187 439.45,-151 526.55,-151 526.55,-187"/>
<text text-anchor="middle" x="483" y="-164.8" font-family="Times,serif" font-size="14.00">AuthModule</text>
</g>
<!-- CsrfModule&#45;&gt;AuthModule -->
<g id="edge1" class="edge">
<title>CsrfModule&#45;&gt;AuthModule</title>
<path fill="none" stroke="black" d="M889,-122.29C889,-144.21 889,-178 889,-178 889,-178 536.83,-178 536.83,-178"/>
<polygon fill="black" stroke="black" points="536.83,-174.5 526.83,-178 536.83,-181.5 536.83,-174.5"/>
</g>
<!-- DeviceDetectionModule -->
<g id="node2" class="node">
<title>DeviceDetectionModule</title>
<polygon fill="#8dd3c7" stroke="black" points="828.61,-122 825.61,-126 804.61,-126 801.61,-122 675.39,-122 675.39,-86 828.61,-86 828.61,-122"/>
<text text-anchor="middle" x="752" y="-99.8" font-family="Times,serif" font-size="14.00">DeviceDetectionModule</text>
</g>
<!-- DeviceDetectionModule&#45;&gt;AuthModule -->
<g id="edge2" class="edge">
<title>DeviceDetectionModule&#45;&gt;AuthModule</title>
<path fill="none" stroke="black" d="M752,-122.11C752,-141.34 752,-169 752,-169 752,-169 536.82,-169 536.82,-169"/>
<polygon fill="black" stroke="black" points="536.82,-165.5 526.82,-169 536.82,-172.5 536.82,-165.5"/>
</g>
<!-- SessionsModule -->
<g id="node3" class="node">
<title>SessionsModule</title>
<polygon fill="#8dd3c7" stroke="black" points="656.77,-122 653.77,-126 632.77,-126 629.77,-122 549.23,-122 549.23,-86 656.77,-86 656.77,-122"/>
<text text-anchor="middle" x="603" y="-99.8" font-family="Times,serif" font-size="14.00">SessionsModule</text>
</g>
<!-- SessionsModule&#45;&gt;AuthModule -->
<g id="edge3" class="edge">
<title>SessionsModule&#45;&gt;AuthModule</title>
<path fill="none" stroke="black" d="M603,-122.03C603,-138.4 603,-160 603,-160 603,-160 536.66,-160 536.66,-160"/>
<polygon fill="black" stroke="black" points="536.66,-156.5 526.66,-160 536.66,-163.5 536.66,-156.5"/>
</g>
<!-- TokenModule -->
<g id="node4" class="node">
<title>TokenModule</title>
<polygon fill="#8dd3c7" stroke="black" points="530.82,-122 527.82,-126 506.82,-126 503.82,-122 435.18,-122 435.18,-86 530.82,-86 530.82,-122"/>
<text text-anchor="middle" x="483" y="-99.8" font-family="Times,serif" font-size="14.00">TokenModule</text>
</g>
<!-- TokenModule&#45;&gt;AuthModule -->
<g id="edge4" class="edge">
<title>TokenModule&#45;&gt;AuthModule</title>
<path fill="none" stroke="black" d="M483,-122.11C483,-122.11 483,-140.99 483,-140.99"/>
<polygon fill="black" stroke="black" points="479.5,-140.99 483,-150.99 486.5,-140.99 479.5,-140.99"/>
</g>
<!-- UsersModule -->
<g id="node5" class="node">
<title>UsersModule</title>
<polygon fill="#8dd3c7" stroke="black" points="417.92,-122 414.92,-126 393.92,-126 390.92,-122 326.08,-122 326.08,-86 417.92,-86 417.92,-122"/>
<text text-anchor="middle" x="372" y="-99.8" font-family="Times,serif" font-size="14.00">UsersModule</text>
</g>
<!-- UsersModule&#45;&gt;AuthModule -->
<g id="edge5" class="edge">
<title>UsersModule&#45;&gt;AuthModule</title>
<path fill="none" stroke="black" d="M372,-122.03C372,-138.4 372,-160 372,-160 372,-160 429.45,-160 429.45,-160"/>
<polygon fill="black" stroke="black" points="429.45,-163.5 439.45,-160 429.45,-156.5 429.45,-163.5"/>
</g>
<!-- AuthService -->
<g id="node7" class="node">
<title>AuthService</title>
<ellipse fill="#fdb462" stroke="black" cx="243" cy="-104" rx="59.11" ry="18"/>
<text text-anchor="middle" x="243" y="-99.8" font-family="Times,serif" font-size="14.00">AuthService</text>
</g>
<!-- AuthService&#45;&gt;AuthModule -->
<g id="edge6" class="edge">
<title>AuthService&#45;&gt;AuthModule</title>
<path fill="none" stroke="black" d="M243,-122.11C243,-141.34 243,-169 243,-169 243,-169 429.26,-169 429.26,-169"/>
<polygon fill="black" stroke="black" points="429.26,-172.5 439.26,-169 429.26,-165.5 429.26,-172.5"/>
</g>
<!-- BcryptProvider -->
<g id="node8" class="node">
<title>BcryptProvider</title>
<ellipse fill="#fdb462" stroke="black" cx="95" cy="-104" rx="70.65" ry="18"/>
<text text-anchor="middle" x="95" y="-99.8" font-family="Times,serif" font-size="14.00">BcryptProvider</text>
</g>
<!-- BcryptProvider&#45;&gt;AuthModule -->
<g id="edge7" class="edge">
<title>BcryptProvider&#45;&gt;AuthModule</title>
<path fill="none" stroke="black" d="M95,-122.29C95,-144.21 95,-178 95,-178 95,-178 429.25,-178 429.25,-178"/>
<polygon fill="black" stroke="black" points="429.25,-181.5 439.25,-178 429.25,-174.5 429.25,-181.5"/>
</g>
</g>
</svg>
