<?xml version="1.0" encoding="UTF-8" standalone="no"?>
<!DOCTYPE svg PUBLIC "-//W3C//DTD SVG 1.1//EN"
 "http://www.w3.org/Graphics/SVG/1.1/DTD/svg11.dtd">
<!-- Generated by graphviz version 2.47.0 (20210316.0004)
 -->
<!-- Title: dependencies Pages: 1 -->
<svg width="806pt" height="211pt"
 viewBox="0.00 0.00 806.00 211.00" xmlns="http://www.w3.org/2000/svg" xmlns:xlink="http://www.w3.org/1999/xlink">
<g id="graph0" class="graph" transform="scale(1 1) rotate(0) translate(4 207)">
<title>dependencies</title>
<polygon fill="white" stroke="transparent" points="-4,4 -4,-207 802,-207 802,4 -4,4"/>
<text text-anchor="start" x="378.01" y="-42.4" font-family="Times-12" font-weight="bold" font-size="14.00">Legend</text>
<polygon fill="#ffffb3" stroke="transparent" points="165,-10 165,-30 185,-30 185,-10 165,-10"/>
<text text-anchor="start" x="188.63" y="-15.4" font-family="Times-12" font-size="14.00"> &#160;Declarations</text>
<polygon fill="#8dd3c7" stroke="transparent" points="278,-10 278,-30 298,-30 298,-10 278,-10"/>
<text text-anchor="start" x="301.73" y="-15.4" font-family="Times-12" font-size="14.00"> &#160;Module</text>
<polygon fill="#80b1d3" stroke="transparent" points="364,-10 364,-30 384,-30 384,-10 364,-10"/>
<text text-anchor="start" x="387.78" y="-15.4" font-family="Times-12" font-size="14.00"> &#160;Bootstrap</text>
<polygon fill="#fdb462" stroke="transparent" points="461,-10 461,-30 481,-30 481,-10 461,-10"/>
<text text-anchor="start" x="484.67" y="-15.4" font-family="Times-12" font-size="14.00"> &#160;Providers</text>
<polygon fill="#fb8072" stroke="transparent" points="557,-10 557,-30 577,-30 577,-10 557,-10"/>
<text text-anchor="start" x="580.73" y="-15.4" font-family="Times-12" font-size="14.00"> &#160;Exports</text>
<g id="clust1" class="cluster">
<title>cluster_AuthModule</title>
<polygon fill="none" stroke="black" stroke-dasharray="1,5" points="8,-70 8,-195 790,-195 790,-70 8,-70"/>
</g>
<g id="clust6" class="cluster">
<title>cluster_AuthModule_providers</title>
<polygon fill="none" stroke="black" points="488,-78 488,-130 782,-130 782,-78 488,-78"/>
</g>
<g id="clust3" class="cluster">
<title>cluster_AuthModule_imports</title>
<polygon fill="none" stroke="black" points="16,-78 16,-130 480,-130 480,-78 16,-78"/>
</g>
<!-- DeviceModule -->
<g id="node1" class="node">
<title>DeviceModule</title>
<polygon fill="#8dd3c7" stroke="black" points="471.69,-122 468.69,-126 447.69,-126 444.69,-122 372.31,-122 372.31,-86 471.69,-86 471.69,-122"/>
<text text-anchor="middle" x="422" y="-99.8" font-family="Times,serif" font-size="14.00">DeviceModule</text>
</g>
<!-- AuthModule -->
<g id="node5" class="node">
<title>AuthModule</title>
<polygon fill="#8dd3c7" stroke="black" points="404.55,-187 401.55,-191 380.55,-191 377.55,-187 317.45,-187 317.45,-151 404.55,-151 404.55,-187"/>
<text text-anchor="middle" x="361" y="-164.8" font-family="Times,serif" font-size="14.00">AuthModule</text>
</g>
<!-- DeviceModule&#45;&gt;AuthModule -->
<g id="edge1" class="edge">
<title>DeviceModule&#45;&gt;AuthModule</title>
<path fill="none" stroke="black" d="M388.59,-122.11C388.59,-122.11 388.59,-140.99 388.59,-140.99"/>
<polygon fill="black" stroke="black" points="385.09,-140.99 388.59,-150.99 392.09,-140.99 385.09,-140.99"/>
</g>
<!-- SessionsModule -->
<g id="node2" class="node">
<title>SessionsModule</title>
<polygon fill="#8dd3c7" stroke="black" points="354.77,-122 351.77,-126 330.77,-126 327.77,-122 247.23,-122 247.23,-86 354.77,-86 354.77,-122"/>
<text text-anchor="middle" x="301" y="-99.8" font-family="Times,serif" font-size="14.00">SessionsModule</text>
</g>
<!-- SessionsModule&#45;&gt;AuthModule -->
<g id="edge2" class="edge">
<title>SessionsModule&#45;&gt;AuthModule</title>
<path fill="none" stroke="black" d="M336.06,-122.11C336.06,-122.11 336.06,-140.99 336.06,-140.99"/>
<polygon fill="black" stroke="black" points="332.56,-140.99 336.06,-150.99 339.56,-140.99 332.56,-140.99"/>
</g>
<!-- TokenModule -->
<g id="node3" class="node">
<title>TokenModule</title>
<polygon fill="#8dd3c7" stroke="black" points="228.82,-122 225.82,-126 204.82,-126 201.82,-122 133.18,-122 133.18,-86 228.82,-86 228.82,-122"/>
<text text-anchor="middle" x="181" y="-99.8" font-family="Times,serif" font-size="14.00">TokenModule</text>
</g>
<!-- TokenModule&#45;&gt;AuthModule -->
<g id="edge3" class="edge">
<title>TokenModule&#45;&gt;AuthModule</title>
<path fill="none" stroke="black" d="M181,-122.02C181,-139.37 181,-163 181,-163 181,-163 307.43,-163 307.43,-163"/>
<polygon fill="black" stroke="black" points="307.43,-166.5 317.43,-163 307.43,-159.5 307.43,-166.5"/>
</g>
<!-- UsersModule -->
<g id="node4" class="node">
<title>UsersModule</title>
<polygon fill="#8dd3c7" stroke="black" points="115.92,-122 112.92,-126 91.92,-126 88.92,-122 24.08,-122 24.08,-86 115.92,-86 115.92,-122"/>
<text text-anchor="middle" x="70" y="-99.8" font-family="Times,serif" font-size="14.00">UsersModule</text>
</g>
<!-- UsersModule&#45;&gt;AuthModule -->
<g id="edge4" class="edge">
<title>UsersModule&#45;&gt;AuthModule</title>
<path fill="none" stroke="black" d="M70,-122.28C70,-143.32 70,-175 70,-175 70,-175 307.43,-175 307.43,-175"/>
<polygon fill="black" stroke="black" points="307.43,-178.5 317.43,-175 307.43,-171.5 307.43,-178.5"/>
</g>
<!-- AuthService -->
<g id="node6" class="node">
<title>AuthService</title>
<ellipse fill="#fdb462" stroke="black" cx="715" cy="-104" rx="59.11" ry="18"/>
<text text-anchor="middle" x="715" y="-99.8" font-family="Times,serif" font-size="14.00">AuthService</text>
</g>
<!-- AuthService&#45;&gt;AuthModule -->
<g id="edge5" class="edge">
<title>AuthService&#45;&gt;AuthModule</title>
<path fill="none" stroke="black" d="M715,-122.28C715,-143.32 715,-175 715,-175 715,-175 414.76,-175 414.76,-175"/>
<polygon fill="black" stroke="black" points="414.76,-171.5 404.76,-175 414.76,-178.5 414.76,-171.5"/>
</g>
<!-- BcryptProvider -->
<g id="node7" class="node">
<title>BcryptProvider</title>
<ellipse fill="#fdb462" stroke="black" cx="567" cy="-104" rx="70.65" ry="18"/>
<text text-anchor="middle" x="567" y="-99.8" font-family="Times,serif" font-size="14.00">BcryptProvider</text>
</g>
<!-- BcryptProvider&#45;&gt;AuthModule -->
<g id="edge6" class="edge">
<title>BcryptProvider&#45;&gt;AuthModule</title>
<path fill="none" stroke="black" d="M567,-122.02C567,-139.37 567,-163 567,-163 567,-163 414.69,-163 414.69,-163"/>
<polygon fill="black" stroke="black" points="414.69,-159.5 404.69,-163 414.69,-166.5 414.69,-159.5"/>
</g>
</g>
</svg>
