<?xml version="1.0" encoding="UTF-8" standalone="no"?>
<!DOCTYPE svg PUBLIC "-//W3C//DTD SVG 1.1//EN"
 "http://www.w3.org/Graphics/SVG/1.1/DTD/svg11.dtd">
<!-- Generated by graphviz version 2.47.0 (20210316.0004)
 -->
<!-- Title: dependencies Pages: 1 -->
<svg width="861pt" height="211pt"
 viewBox="0.00 0.00 861.00 211.00" xmlns="http://www.w3.org/2000/svg" xmlns:xlink="http://www.w3.org/1999/xlink">
<g id="graph0" class="graph" transform="scale(1 1) rotate(0) translate(4 207)">
<title>dependencies</title>
<polygon fill="white" stroke="transparent" points="-4,4 -4,-207 857,-207 857,4 -4,4"/>
<text text-anchor="start" x="405.51" y="-42.4" font-family="Times-12" font-weight="bold" font-size="14.00">Legend</text>
<polygon fill="#ffffb3" stroke="transparent" points="192.5,-10 192.5,-30 212.5,-30 212.5,-10 192.5,-10"/>
<text text-anchor="start" x="216.13" y="-15.4" font-family="Times-12" font-size="14.00"> &#160;Declarations</text>
<polygon fill="#8dd3c7" stroke="transparent" points="305.5,-10 305.5,-30 325.5,-30 325.5,-10 305.5,-10"/>
<text text-anchor="start" x="329.23" y="-15.4" font-family="Times-12" font-size="14.00"> &#160;Module</text>
<polygon fill="#80b1d3" stroke="transparent" points="391.5,-10 391.5,-30 411.5,-30 411.5,-10 391.5,-10"/>
<text text-anchor="start" x="415.28" y="-15.4" font-family="Times-12" font-size="14.00"> &#160;Bootstrap</text>
<polygon fill="#fdb462" stroke="transparent" points="488.5,-10 488.5,-30 508.5,-30 508.5,-10 488.5,-10"/>
<text text-anchor="start" x="512.17" y="-15.4" font-family="Times-12" font-size="14.00"> &#160;Providers</text>
<polygon fill="#fb8072" stroke="transparent" points="584.5,-10 584.5,-30 604.5,-30 604.5,-10 584.5,-10"/>
<text text-anchor="start" x="608.23" y="-15.4" font-family="Times-12" font-size="14.00"> &#160;Exports</text>
<g id="clust1" class="cluster">
<title>cluster_AuthModule</title>
<polygon fill="none" stroke="black" stroke-dasharray="1,5" points="8,-70 8,-195 845,-195 845,-70 8,-70"/>
</g>
<g id="clust3" class="cluster">
<title>cluster_AuthModule_imports</title>
<polygon fill="none" stroke="black" points="318,-78 318,-130 837,-130 837,-78 318,-78"/>
</g>
<g id="clust6" class="cluster">
<title>cluster_AuthModule_providers</title>
<polygon fill="none" stroke="black" points="16,-78 16,-130 310,-130 310,-78 16,-78"/>
</g>
<!-- DeviceDetectionModule -->
<g id="node1" class="node">
<title>DeviceDetectionModule</title>
<polygon fill="#8dd3c7" stroke="black" points="828.61,-122 825.61,-126 804.61,-126 801.61,-122 675.39,-122 675.39,-86 828.61,-86 828.61,-122"/>
<text text-anchor="middle" x="752" y="-99.8" font-family="Times,serif" font-size="14.00">DeviceDetectionModule</text>
</g>
<!-- AuthModule -->
<g id="node5" class="node">
<title>AuthModule</title>
<polygon fill="#8dd3c7" stroke="black" points="470.55,-187 467.55,-191 446.55,-191 443.55,-187 383.45,-187 383.45,-151 470.55,-151 470.55,-187"/>
<text text-anchor="middle" x="427" y="-164.8" font-family="Times,serif" font-size="14.00">AuthModule</text>
</g>
<!-- DeviceDetectionModule&#45;&gt;AuthModule -->
<g id="edge1" class="edge">
<title>DeviceDetectionModule&#45;&gt;AuthModule</title>
<path fill="none" stroke="black" d="M752,-122.28C752,-143.32 752,-175 752,-175 752,-175 480.83,-175 480.83,-175"/>
<polygon fill="black" stroke="black" points="480.83,-171.5 470.83,-175 480.83,-178.5 480.83,-171.5"/>
</g>
<!-- SessionsModule -->
<g id="node2" class="node">
<title>SessionsModule</title>
<polygon fill="#8dd3c7" stroke="black" points="656.77,-122 653.77,-126 632.77,-126 629.77,-122 549.23,-122 549.23,-86 656.77,-86 656.77,-122"/>
<text text-anchor="middle" x="603" y="-99.8" font-family="Times,serif" font-size="14.00">SessionsModule</text>
</g>
<!-- SessionsModule&#45;&gt;AuthModule -->
<g id="edge2" class="edge">
<title>SessionsModule&#45;&gt;AuthModule</title>
<path fill="none" stroke="black" d="M603,-122.02C603,-139.37 603,-163 603,-163 603,-163 480.96,-163 480.96,-163"/>
<polygon fill="black" stroke="black" points="480.96,-159.5 470.96,-163 480.96,-166.5 480.96,-159.5"/>
</g>
<!-- TokenModule -->
<g id="node3" class="node">
<title>TokenModule</title>
<polygon fill="#8dd3c7" stroke="black" points="530.82,-122 527.82,-126 506.82,-126 503.82,-122 435.18,-122 435.18,-86 530.82,-86 530.82,-122"/>
<text text-anchor="middle" x="483" y="-99.8" font-family="Times,serif" font-size="14.00">TokenModule</text>
</g>
<!-- TokenModule&#45;&gt;AuthModule -->
<g id="edge3" class="edge">
<title>TokenModule&#45;&gt;AuthModule</title>
<path fill="none" stroke="black" d="M453.06,-122.11C453.06,-122.11 453.06,-140.99 453.06,-140.99"/>
<polygon fill="black" stroke="black" points="449.56,-140.99 453.06,-150.99 456.56,-140.99 449.56,-140.99"/>
</g>
<!-- UsersModule -->
<g id="node4" class="node">
<title>UsersModule</title>
<polygon fill="#8dd3c7" stroke="black" points="417.92,-122 414.92,-126 393.92,-126 390.92,-122 326.08,-122 326.08,-86 417.92,-86 417.92,-122"/>
<text text-anchor="middle" x="372" y="-99.8" font-family="Times,serif" font-size="14.00">UsersModule</text>
</g>
<!-- UsersModule&#45;&gt;AuthModule -->
<g id="edge4" class="edge">
<title>UsersModule&#45;&gt;AuthModule</title>
<path fill="none" stroke="black" d="M400.47,-122.11C400.47,-122.11 400.47,-140.99 400.47,-140.99"/>
<polygon fill="black" stroke="black" points="396.97,-140.99 400.47,-150.99 403.97,-140.99 396.97,-140.99"/>
</g>
<!-- AuthService -->
<g id="node6" class="node">
<title>AuthService</title>
<ellipse fill="#fdb462" stroke="black" cx="243" cy="-104" rx="59.11" ry="18"/>
<text text-anchor="middle" x="243" y="-99.8" font-family="Times,serif" font-size="14.00">AuthService</text>
</g>
<!-- AuthService&#45;&gt;AuthModule -->
<g id="edge5" class="edge">
<title>AuthService&#45;&gt;AuthModule</title>
<path fill="none" stroke="black" d="M243,-122.02C243,-139.37 243,-163 243,-163 243,-163 373.39,-163 373.39,-163"/>
<polygon fill="black" stroke="black" points="373.39,-166.5 383.39,-163 373.39,-159.5 373.39,-166.5"/>
</g>
<!-- BcryptProvider -->
<g id="node7" class="node">
<title>BcryptProvider</title>
<ellipse fill="#fdb462" stroke="black" cx="95" cy="-104" rx="70.65" ry="18"/>
<text text-anchor="middle" x="95" y="-99.8" font-family="Times,serif" font-size="14.00">BcryptProvider</text>
</g>
<!-- BcryptProvider&#45;&gt;AuthModule -->
<g id="edge6" class="edge">
<title>BcryptProvider&#45;&gt;AuthModule</title>
<path fill="none" stroke="black" d="M95,-122.28C95,-143.32 95,-175 95,-175 95,-175 373.26,-175 373.26,-175"/>
<polygon fill="black" stroke="black" points="373.26,-178.5 383.26,-175 373.26,-171.5 373.26,-178.5"/>
</g>
</g>
</svg>
