<?xml version="1.0" encoding="UTF-8" standalone="no"?>
<!DOCTYPE svg PUBLIC "-//W3C//DTD SVG 1.1//EN"
 "http://www.w3.org/Graphics/SVG/1.1/DTD/svg11.dtd">
<!-- Generated by graphviz version 2.47.0 (20210316.0004)
 -->
<!-- Title: dependencies Pages: 1 -->
<svg width="514pt" height="211pt"
 viewBox="0.00 0.00 514.00 211.00" xmlns="http://www.w3.org/2000/svg" xmlns:xlink="http://www.w3.org/1999/xlink">
<g id="graph0" class="graph" transform="scale(1 1) rotate(0) translate(4 207)">
<title>dependencies</title>
<polygon fill="white" stroke="transparent" points="-4,4 -4,-207 510,-207 510,4 -4,4"/>
<text text-anchor="start" x="232.01" y="-42.4" font-family="Times-12" font-weight="bold" font-size="14.00">Legend</text>
<polygon fill="#ffffb3" stroke="transparent" points="19,-10 19,-30 39,-30 39,-10 19,-10"/>
<text text-anchor="start" x="42.63" y="-15.4" font-family="Times-12" font-size="14.00"> &#160;Declarations</text>
<polygon fill="#8dd3c7" stroke="transparent" points="132,-10 132,-30 152,-30 152,-10 132,-10"/>
<text text-anchor="start" x="155.73" y="-15.4" font-family="Times-12" font-size="14.00"> &#160;Module</text>
<polygon fill="#80b1d3" stroke="transparent" points="218,-10 218,-30 238,-30 238,-10 218,-10"/>
<text text-anchor="start" x="241.78" y="-15.4" font-family="Times-12" font-size="14.00"> &#160;Bootstrap</text>
<polygon fill="#fdb462" stroke="transparent" points="315,-10 315,-30 335,-30 335,-10 315,-10"/>
<text text-anchor="start" x="338.67" y="-15.4" font-family="Times-12" font-size="14.00"> &#160;Providers</text>
<polygon fill="#fb8072" stroke="transparent" points="411,-10 411,-30 431,-30 431,-10 411,-10"/>
<text text-anchor="start" x="434.73" y="-15.4" font-family="Times-12" font-size="14.00"> &#160;Exports</text>
<g id="clust1" class="cluster">
<title>cluster_InfrastructureModule</title>
<polygon fill="none" stroke="black" stroke-dasharray="1,5" points="8,-70 8,-195 498,-195 498,-70 8,-70"/>
</g>
<g id="clust3" class="cluster">
<title>cluster_InfrastructureModule_imports</title>
<polygon fill="none" stroke="black" points="258,-78 258,-130 490,-130 490,-78 258,-78"/>
</g>
<g id="clust6" class="cluster">
<title>cluster_InfrastructureModule_providers</title>
<polygon fill="none" stroke="black" points="16,-78 16,-130 250,-130 250,-78 16,-78"/>
</g>
<!-- DatabasesModule -->
<g id="node1" class="node">
<title>DatabasesModule</title>
<polygon fill="#8dd3c7" stroke="black" points="482.29,-122 479.29,-126 458.29,-126 455.29,-122 365.71,-122 365.71,-86 482.29,-86 482.29,-122"/>
<text text-anchor="middle" x="424" y="-99.8" font-family="Times,serif" font-size="14.00">DatabasesModule</text>
</g>
<!-- InfrastructureModule -->
<g id="node3" class="node">
<title>InfrastructureModule</title>
<polygon fill="#8dd3c7" stroke="black" points="374.72,-187 371.72,-191 350.72,-191 347.72,-187 239.28,-187 239.28,-151 374.72,-151 374.72,-187"/>
<text text-anchor="middle" x="307" y="-164.8" font-family="Times,serif" font-size="14.00">InfrastructureModule</text>
</g>
<!-- DatabasesModule&#45;&gt;InfrastructureModule -->
<g id="edge1" class="edge">
<title>DatabasesModule&#45;&gt;InfrastructureModule</title>
<path fill="none" stroke="black" d="M370.36,-122.11C370.36,-122.11 370.36,-140.99 370.36,-140.99"/>
<polygon fill="black" stroke="black" points="366.86,-140.99 370.36,-150.99 373.86,-140.99 366.86,-140.99"/>
</g>
<!-- EnvModule -->
<g id="node2" class="node">
<title>EnvModule</title>
<polygon fill="#8dd3c7" stroke="black" points="348.1,-122 345.1,-126 324.1,-126 321.1,-122 265.9,-122 265.9,-86 348.1,-86 348.1,-122"/>
<text text-anchor="middle" x="307" y="-99.8" font-family="Times,serif" font-size="14.00">EnvModule</text>
</g>
<!-- EnvModule&#45;&gt;InfrastructureModule -->
<g id="edge2" class="edge">
<title>EnvModule&#45;&gt;InfrastructureModule</title>
<path fill="none" stroke="black" d="M307,-122.11C307,-122.11 307,-140.99 307,-140.99"/>
<polygon fill="black" stroke="black" points="303.5,-140.99 307,-150.99 310.5,-140.99 303.5,-140.99"/>
</g>
<!-- DataResponseInterceptor -->
<g id="node4" class="node">
<title>DataResponseInterceptor</title>
<ellipse fill="#fdb462" stroke="black" cx="133" cy="-104" rx="108.77" ry="18"/>
<text text-anchor="middle" x="133" y="-99.8" font-family="Times,serif" font-size="14.00">DataResponseInterceptor</text>
</g>
<!-- DataResponseInterceptor&#45;&gt;InfrastructureModule -->
<g id="edge3" class="edge">
<title>DataResponseInterceptor&#45;&gt;InfrastructureModule</title>
<path fill="none" stroke="black" d="M241.77,-104C249.18,-104 253.79,-104 253.79,-104 253.79,-104 253.79,-140.89 253.79,-140.89"/>
<polygon fill="black" stroke="black" points="250.29,-140.89 253.79,-150.89 257.29,-140.89 250.29,-140.89"/>
</g>
</g>
</svg>
