<?xml version="1.0" encoding="UTF-8" standalone="no"?>
<!DOCTYPE svg PUBLIC "-//W3C//DTD SVG 1.1//EN"
 "http://www.w3.org/Graphics/SVG/1.1/DTD/svg11.dtd">
<!-- Generated by graphviz version 2.47.0 (20210316.0004)
 -->
<!-- Title: dependencies Pages: 1 -->
<svg width="514pt" height="211pt"
 viewBox="0.00 0.00 514.00 211.00" xmlns="http://www.w3.org/2000/svg" xmlns:xlink="http://www.w3.org/1999/xlink">
<g id="graph0" class="graph" transform="scale(1 1) rotate(0) translate(4 207)">
<title>dependencies</title>
<polygon fill="white" stroke="transparent" points="-4,4 -4,-207 510,-207 510,4 -4,4"/>
<text text-anchor="start" x="232.01" y="-42.4" font-family="Times-12" font-weight="bold" font-size="14.00">Legend</text>
<polygon fill="#ffffb3" stroke="transparent" points="19,-10 19,-30 39,-30 39,-10 19,-10"/>
<text text-anchor="start" x="42.63" y="-15.4" font-family="Times-12" font-size="14.00"> &#160;Declarations</text>
<polygon fill="#8dd3c7" stroke="transparent" points="132,-10 132,-30 152,-30 152,-10 132,-10"/>
<text text-anchor="start" x="155.73" y="-15.4" font-family="Times-12" font-size="14.00"> &#160;Module</text>
<polygon fill="#80b1d3" stroke="transparent" points="218,-10 218,-30 238,-30 238,-10 218,-10"/>
<text text-anchor="start" x="241.78" y="-15.4" font-family="Times-12" font-size="14.00"> &#160;Bootstrap</text>
<polygon fill="#fdb462" stroke="transparent" points="315,-10 315,-30 335,-30 335,-10 315,-10"/>
<text text-anchor="start" x="338.67" y="-15.4" font-family="Times-12" font-size="14.00"> &#160;Providers</text>
<polygon fill="#fb8072" stroke="transparent" points="411,-10 411,-30 431,-30 431,-10 411,-10"/>
<text text-anchor="start" x="434.73" y="-15.4" font-family="Times-12" font-size="14.00"> &#160;Exports</text>
<g id="clust1" class="cluster">
<title>cluster_InfrastructureModule</title>
<polygon fill="none" stroke="black" stroke-dasharray="1,5" points="8,-70 8,-195 498,-195 498,-70 8,-70"/>
</g>
<g id="clust6" class="cluster">
<title>cluster_InfrastructureModule_providers</title>
<polygon fill="none" stroke="black" points="256,-78 256,-130 490,-130 490,-78 256,-78"/>
</g>
<g id="clust3" class="cluster">
<title>cluster_InfrastructureModule_imports</title>
<polygon fill="none" stroke="black" points="16,-78 16,-130 248,-130 248,-78 16,-78"/>
</g>
<!-- DatabasesModule -->
<g id="node1" class="node">
<title>DatabasesModule</title>
<polygon fill="#8dd3c7" stroke="black" points="240.29,-122 237.29,-126 216.29,-126 213.29,-122 123.71,-122 123.71,-86 240.29,-86 240.29,-122"/>
<text text-anchor="middle" x="182" y="-99.8" font-family="Times,serif" font-size="14.00">DatabasesModule</text>
</g>
<!-- InfrastructureModule -->
<g id="node3" class="node">
<title>InfrastructureModule</title>
<polygon fill="#8dd3c7" stroke="black" points="249.72,-187 246.72,-191 225.72,-191 222.72,-187 114.28,-187 114.28,-151 249.72,-151 249.72,-187"/>
<text text-anchor="middle" x="182" y="-164.8" font-family="Times,serif" font-size="14.00">InfrastructureModule</text>
</g>
<!-- DatabasesModule&#45;&gt;InfrastructureModule -->
<g id="edge1" class="edge">
<title>DatabasesModule&#45;&gt;InfrastructureModule</title>
<path fill="none" stroke="black" d="M182,-122.11C182,-122.11 182,-140.99 182,-140.99"/>
<polygon fill="black" stroke="black" points="178.5,-140.99 182,-150.99 185.5,-140.99 178.5,-140.99"/>
</g>
<!-- EnvModule -->
<g id="node2" class="node">
<title>EnvModule</title>
<polygon fill="#8dd3c7" stroke="black" points="106.1,-122 103.1,-126 82.1,-126 79.1,-122 23.9,-122 23.9,-86 106.1,-86 106.1,-122"/>
<text text-anchor="middle" x="65" y="-99.8" font-family="Times,serif" font-size="14.00">EnvModule</text>
</g>
<!-- EnvModule&#45;&gt;InfrastructureModule -->
<g id="edge2" class="edge">
<title>EnvModule&#45;&gt;InfrastructureModule</title>
<path fill="none" stroke="black" d="M106.2,-104C113.59,-104 119,-104 119,-104 119,-104 119,-140.89 119,-140.89"/>
<polygon fill="black" stroke="black" points="115.5,-140.89 119,-150.89 122.5,-140.89 115.5,-140.89"/>
</g>
<!-- DataResponseInterceptor -->
<g id="node4" class="node">
<title>DataResponseInterceptor</title>
<ellipse fill="#fdb462" stroke="black" cx="373" cy="-104" rx="108.77" ry="18"/>
<text text-anchor="middle" x="373" y="-99.8" font-family="Times,serif" font-size="14.00">DataResponseInterceptor</text>
</g>
<!-- DataResponseInterceptor&#45;&gt;InfrastructureModule -->
<g id="edge3" class="edge">
<title>DataResponseInterceptor&#45;&gt;InfrastructureModule</title>
<path fill="none" stroke="black" d="M264.17,-104C252.63,-104 245,-104 245,-104 245,-104 245,-140.89 245,-140.89"/>
<polygon fill="black" stroke="black" points="241.5,-140.89 245,-150.89 248.5,-140.89 241.5,-140.89"/>
</g>
</g>
</svg>
