<?xml version="1.0" encoding="UTF-8" standalone="no"?>
<!DOCTYPE svg PUBLIC "-//W3C//DTD SVG 1.1//EN"
 "http://www.w3.org/Graphics/SVG/1.1/DTD/svg11.dtd">
<!-- Generated by graphviz version 2.47.0 (20210316.0004)
 -->
<!-- Title: dependencies Pages: 1 -->
<svg width="504pt" height="284pt"
 viewBox="0.00 0.00 504.00 284.00" xmlns="http://www.w3.org/2000/svg" xmlns:xlink="http://www.w3.org/1999/xlink">
<g id="graph0" class="graph" transform="scale(1 1) rotate(0) translate(4 280)">
<title>dependencies</title>
<polygon fill="white" stroke="transparent" points="-4,4 -4,-280 500,-280 500,4 -4,4"/>
<text text-anchor="start" x="227.01" y="-42.4" font-family="Times-12" font-weight="bold" font-size="14.00">Legend</text>
<polygon fill="#ffffb3" stroke="transparent" points="14,-10 14,-30 34,-30 34,-10 14,-10"/>
<text text-anchor="start" x="37.63" y="-15.4" font-family="Times-12" font-size="14.00"> &#160;Declarations</text>
<polygon fill="#8dd3c7" stroke="transparent" points="127,-10 127,-30 147,-30 147,-10 127,-10"/>
<text text-anchor="start" x="150.73" y="-15.4" font-family="Times-12" font-size="14.00"> &#160;Module</text>
<polygon fill="#80b1d3" stroke="transparent" points="213,-10 213,-30 233,-30 233,-10 213,-10"/>
<text text-anchor="start" x="236.78" y="-15.4" font-family="Times-12" font-size="14.00"> &#160;Bootstrap</text>
<polygon fill="#fdb462" stroke="transparent" points="310,-10 310,-30 330,-30 330,-10 310,-10"/>
<text text-anchor="start" x="333.67" y="-15.4" font-family="Times-12" font-size="14.00"> &#160;Providers</text>
<polygon fill="#fb8072" stroke="transparent" points="406,-10 406,-30 426,-30 426,-10 406,-10"/>
<text text-anchor="start" x="429.73" y="-15.4" font-family="Times-12" font-size="14.00"> &#160;Exports</text>
<g id="clust1" class="cluster">
<title>cluster_SecurityModule</title>
<polygon fill="none" stroke="black" stroke-dasharray="1,5" points="29.5,-70 29.5,-268 466.5,-268 466.5,-70 29.5,-70"/>
</g>
<g id="clust4" class="cluster">
<title>cluster_SecurityModule_exports</title>
<polygon fill="none" stroke="black" points="148.5,-208 148.5,-260 322.5,-260 322.5,-208 148.5,-208"/>
</g>
<g id="clust6" class="cluster">
<title>cluster_SecurityModule_providers</title>
<polygon fill="none" stroke="black" points="328.5,-78 328.5,-130 458.5,-130 458.5,-78 328.5,-78"/>
</g>
<g id="clust3" class="cluster">
<title>cluster_SecurityModule_imports</title>
<polygon fill="none" stroke="black" points="37.5,-78 37.5,-130 320.5,-130 320.5,-78 37.5,-78"/>
</g>
<!-- DeviceDetectionModule -->
<g id="node1" class="node">
<title>DeviceDetectionModule</title>
<polygon fill="#8dd3c7" stroke="black" points="312.11,-122 309.11,-126 288.11,-126 285.11,-122 158.89,-122 158.89,-86 312.11,-86 312.11,-122"/>
<text text-anchor="middle" x="235.5" y="-99.8" font-family="Times,serif" font-size="14.00">DeviceDetectionModule</text>
</g>
<!-- SecurityModule -->
<g id="node3" class="node">
<title>SecurityModule</title>
<polygon fill="#8dd3c7" stroke="black" points="288.7,-187 285.7,-191 264.7,-191 261.7,-187 182.3,-187 182.3,-151 288.7,-151 288.7,-187"/>
<text text-anchor="middle" x="235.5" y="-164.8" font-family="Times,serif" font-size="14.00">SecurityModule</text>
</g>
<!-- DeviceDetectionModule&#45;&gt;SecurityModule -->
<g id="edge1" class="edge">
<title>DeviceDetectionModule&#45;&gt;SecurityModule</title>
<path fill="none" stroke="black" d="M235.5,-122.11C235.5,-122.11 235.5,-140.99 235.5,-140.99"/>
<polygon fill="black" stroke="black" points="232,-140.99 235.5,-150.99 239,-140.99 232,-140.99"/>
</g>
<!-- TokenModule -->
<g id="node2" class="node">
<title>TokenModule</title>
<polygon fill="#8dd3c7" stroke="black" points="141.32,-122 138.32,-126 117.32,-126 114.32,-122 45.68,-122 45.68,-86 141.32,-86 141.32,-122"/>
<text text-anchor="middle" x="93.5" y="-99.8" font-family="Times,serif" font-size="14.00">TokenModule</text>
</g>
<!-- TokenModule&#45;&gt;SecurityModule -->
<g id="edge2" class="edge">
<title>TokenModule&#45;&gt;SecurityModule</title>
<path fill="none" stroke="black" d="M93.5,-122.11C93.5,-141.34 93.5,-169 93.5,-169 93.5,-169 172.22,-169 172.22,-169"/>
<polygon fill="black" stroke="black" points="172.22,-172.5 182.22,-169 172.22,-165.5 172.22,-172.5"/>
</g>
<!-- DeviceDetectionModule  -->
<g id="node4" class="node">
<title>DeviceDetectionModule </title>
<polygon fill="#fb8072" stroke="black" points="314.11,-252 156.89,-252 156.89,-216 314.11,-216 314.11,-252"/>
<text text-anchor="middle" x="235.5" y="-229.8" font-family="Times,serif" font-size="14.00">DeviceDetectionModule </text>
</g>
<!-- SecurityModule&#45;&gt;DeviceDetectionModule  -->
<g id="edge3" class="edge">
<title>SecurityModule&#45;&gt;DeviceDetectionModule </title>
<path fill="none" stroke="black" stroke-dasharray="5,2" d="M235.5,-187.11C235.5,-187.11 235.5,-205.99 235.5,-205.99"/>
<polygon fill="black" stroke="black" points="232,-205.99 235.5,-215.99 239,-205.99 232,-205.99"/>
</g>
<!-- JwtStrategy -->
<g id="node5" class="node">
<title>JwtStrategy</title>
<ellipse fill="#fdb462" stroke="black" cx="393.5" cy="-104" rx="56.76" ry="18"/>
<text text-anchor="middle" x="393.5" y="-99.8" font-family="Times,serif" font-size="14.00">JwtStrategy</text>
</g>
<!-- JwtStrategy&#45;&gt;SecurityModule -->
<g id="edge4" class="edge">
<title>JwtStrategy&#45;&gt;SecurityModule</title>
<path fill="none" stroke="black" d="M393.5,-122.11C393.5,-141.34 393.5,-169 393.5,-169 393.5,-169 298.99,-169 298.99,-169"/>
<polygon fill="black" stroke="black" points="298.99,-165.5 288.99,-169 298.99,-172.5 298.99,-165.5"/>
</g>
</g>
</svg>
