<?xml version="1.0" encoding="UTF-8" standalone="no"?>
<!DOCTYPE svg PUBLIC "-//W3C//DTD SVG 1.1//EN"
 "http://www.w3.org/Graphics/SVG/1.1/DTD/svg11.dtd">
<!-- Generated by graphviz version 2.47.0 (20210316.0004)
 -->
<!-- Title: dependencies Pages: 1 -->
<svg width="698pt" height="284pt"
 viewBox="0.00 0.00 698.00 284.00" xmlns="http://www.w3.org/2000/svg" xmlns:xlink="http://www.w3.org/1999/xlink">
<g id="graph0" class="graph" transform="scale(1 1) rotate(0) translate(4 280)">
<title>dependencies</title>
<polygon fill="white" stroke="transparent" points="-4,4 -4,-280 694,-280 694,4 -4,4"/>
<text text-anchor="start" x="324.01" y="-42.4" font-family="Times-12" font-weight="bold" font-size="14.00">Legend</text>
<polygon fill="#ffffb3" stroke="transparent" points="111,-10 111,-30 131,-30 131,-10 111,-10"/>
<text text-anchor="start" x="134.63" y="-15.4" font-family="Times-12" font-size="14.00"> &#160;Declarations</text>
<polygon fill="#8dd3c7" stroke="transparent" points="224,-10 224,-30 244,-30 244,-10 224,-10"/>
<text text-anchor="start" x="247.73" y="-15.4" font-family="Times-12" font-size="14.00"> &#160;Module</text>
<polygon fill="#80b1d3" stroke="transparent" points="310,-10 310,-30 330,-30 330,-10 310,-10"/>
<text text-anchor="start" x="333.78" y="-15.4" font-family="Times-12" font-size="14.00"> &#160;Bootstrap</text>
<polygon fill="#fdb462" stroke="transparent" points="407,-10 407,-30 427,-30 427,-10 407,-10"/>
<text text-anchor="start" x="430.67" y="-15.4" font-family="Times-12" font-size="14.00"> &#160;Providers</text>
<polygon fill="#fb8072" stroke="transparent" points="503,-10 503,-30 523,-30 523,-10 503,-10"/>
<text text-anchor="start" x="526.73" y="-15.4" font-family="Times-12" font-size="14.00"> &#160;Exports</text>
<g id="clust1" class="cluster">
<title>cluster_SecurityModule</title>
<polygon fill="none" stroke="black" stroke-dasharray="1,5" points="8,-70 8,-268 682,-268 682,-70 8,-70"/>
</g>
<g id="clust3" class="cluster">
<title>cluster_SecurityModule_imports</title>
<polygon fill="none" stroke="black" points="154,-78 154,-130 674,-130 674,-78 154,-78"/>
</g>
<g id="clust4" class="cluster">
<title>cluster_SecurityModule_exports</title>
<polygon fill="none" stroke="black" points="247,-208 247,-260 421,-260 421,-208 247,-208"/>
</g>
<g id="clust6" class="cluster">
<title>cluster_SecurityModule_providers</title>
<polygon fill="none" stroke="black" points="16,-78 16,-130 146,-130 146,-78 16,-78"/>
</g>
<!-- CsrfModule -->
<g id="node1" class="node">
<title>CsrfModule</title>
<polygon fill="#8dd3c7" stroke="black" points="665.65,-122 662.65,-126 641.65,-126 638.65,-122 582.35,-122 582.35,-86 665.65,-86 665.65,-122"/>
<text text-anchor="middle" x="624" y="-99.8" font-family="Times,serif" font-size="14.00">CsrfModule</text>
</g>
<!-- SecurityModule -->
<g id="node5" class="node">
<title>SecurityModule</title>
<polygon fill="#8dd3c7" stroke="black" points="387.2,-187 384.2,-191 363.2,-191 360.2,-187 280.8,-187 280.8,-151 387.2,-151 387.2,-187"/>
<text text-anchor="middle" x="334" y="-164.8" font-family="Times,serif" font-size="14.00">SecurityModule</text>
</g>
<!-- CsrfModule&#45;&gt;SecurityModule -->
<g id="edge1" class="edge">
<title>CsrfModule&#45;&gt;SecurityModule</title>
<path fill="none" stroke="black" d="M624,-122.28C624,-143.32 624,-175 624,-175 624,-175 397.19,-175 397.19,-175"/>
<polygon fill="black" stroke="black" points="397.19,-171.5 387.19,-175 397.19,-178.5 397.19,-171.5"/>
</g>
<!-- DeviceDetectionModule -->
<g id="node2" class="node">
<title>DeviceDetectionModule</title>
<polygon fill="#8dd3c7" stroke="black" points="563.61,-122 560.61,-126 539.61,-126 536.61,-122 410.39,-122 410.39,-86 563.61,-86 563.61,-122"/>
<text text-anchor="middle" x="487" y="-99.8" font-family="Times,serif" font-size="14.00">DeviceDetectionModule</text>
</g>
<!-- DeviceDetectionModule&#45;&gt;SecurityModule -->
<g id="edge2" class="edge">
<title>DeviceDetectionModule&#45;&gt;SecurityModule</title>
<path fill="none" stroke="black" d="M488.18,-122.02C488.18,-139.37 488.18,-163 488.18,-163 488.18,-163 397.49,-163 397.49,-163"/>
<polygon fill="black" stroke="black" points="397.49,-159.5 387.49,-163 397.49,-166.5 397.49,-159.5"/>
</g>
<!-- RateLimitModule -->
<g id="node3" class="node">
<title>RateLimitModule</title>
<polygon fill="#8dd3c7" stroke="black" points="392.32,-122 389.32,-126 368.32,-126 365.32,-122 275.68,-122 275.68,-86 392.32,-86 392.32,-122"/>
<text text-anchor="middle" x="334" y="-99.8" font-family="Times,serif" font-size="14.00">RateLimitModule</text>
</g>
<!-- RateLimitModule&#45;&gt;SecurityModule -->
<g id="edge3" class="edge">
<title>RateLimitModule&#45;&gt;SecurityModule</title>
<path fill="none" stroke="black" d="M334,-122.11C334,-122.11 334,-140.99 334,-140.99"/>
<polygon fill="black" stroke="black" points="330.5,-140.99 334,-150.99 337.5,-140.99 330.5,-140.99"/>
</g>
<!-- TokenModule -->
<g id="node4" class="node">
<title>TokenModule</title>
<polygon fill="#8dd3c7" stroke="black" points="257.82,-122 254.82,-126 233.82,-126 230.82,-122 162.18,-122 162.18,-86 257.82,-86 257.82,-122"/>
<text text-anchor="middle" x="210" y="-99.8" font-family="Times,serif" font-size="14.00">TokenModule</text>
</g>
<!-- TokenModule&#45;&gt;SecurityModule -->
<g id="edge4" class="edge">
<title>TokenModule&#45;&gt;SecurityModule</title>
<path fill="none" stroke="black" d="M208.89,-122.02C208.89,-139.37 208.89,-163 208.89,-163 208.89,-163 270.58,-163 270.58,-163"/>
<polygon fill="black" stroke="black" points="270.58,-166.5 280.58,-163 270.58,-159.5 270.58,-166.5"/>
</g>
<!-- DeviceDetectionModule  -->
<g id="node6" class="node">
<title>DeviceDetectionModule </title>
<polygon fill="#fb8072" stroke="black" points="412.61,-252 255.39,-252 255.39,-216 412.61,-216 412.61,-252"/>
<text text-anchor="middle" x="334" y="-229.8" font-family="Times,serif" font-size="14.00">DeviceDetectionModule </text>
</g>
<!-- SecurityModule&#45;&gt;DeviceDetectionModule  -->
<g id="edge5" class="edge">
<title>SecurityModule&#45;&gt;DeviceDetectionModule </title>
<path fill="none" stroke="black" stroke-dasharray="5,2" d="M334,-187.11C334,-187.11 334,-205.99 334,-205.99"/>
<polygon fill="black" stroke="black" points="330.5,-205.99 334,-215.99 337.5,-205.99 330.5,-205.99"/>
</g>
<!-- JwtStrategy -->
<g id="node7" class="node">
<title>JwtStrategy</title>
<ellipse fill="#fdb462" stroke="black" cx="81" cy="-104" rx="56.76" ry="18"/>
<text text-anchor="middle" x="81" y="-99.8" font-family="Times,serif" font-size="14.00">JwtStrategy</text>
</g>
<!-- JwtStrategy&#45;&gt;SecurityModule -->
<g id="edge6" class="edge">
<title>JwtStrategy&#45;&gt;SecurityModule</title>
<path fill="none" stroke="black" d="M81,-122.28C81,-143.32 81,-175 81,-175 81,-175 270.65,-175 270.65,-175"/>
<polygon fill="black" stroke="black" points="270.65,-178.5 280.65,-175 270.65,-171.5 270.65,-178.5"/>
</g>
</g>
</svg>
