<?xml version="1.0" encoding="UTF-8" standalone="no"?>
<!DOCTYPE svg PUBLIC "-//W3C//DTD SVG 1.1//EN"
 "http://www.w3.org/Graphics/SVG/1.1/DTD/svg11.dtd">
<!-- Generated by graphviz version 2.47.0 (20210316.0004)
 -->
<!-- Title: dependencies Pages: 1 -->
<svg width="504pt" height="211pt"
 viewBox="0.00 0.00 504.00 211.00" xmlns="http://www.w3.org/2000/svg" xmlns:xlink="http://www.w3.org/1999/xlink">
<g id="graph0" class="graph" transform="scale(1 1) rotate(0) translate(4 207)">
<title>dependencies</title>
<polygon fill="white" stroke="transparent" points="-4,4 -4,-207 500,-207 500,4 -4,4"/>
<text text-anchor="start" x="227.01" y="-42.4" font-family="Times-12" font-weight="bold" font-size="14.00">Legend</text>
<polygon fill="#ffffb3" stroke="transparent" points="14,-10 14,-30 34,-30 34,-10 14,-10"/>
<text text-anchor="start" x="37.63" y="-15.4" font-family="Times-12" font-size="14.00"> &#160;Declarations</text>
<polygon fill="#8dd3c7" stroke="transparent" points="127,-10 127,-30 147,-30 147,-10 127,-10"/>
<text text-anchor="start" x="150.73" y="-15.4" font-family="Times-12" font-size="14.00"> &#160;Module</text>
<polygon fill="#80b1d3" stroke="transparent" points="213,-10 213,-30 233,-30 233,-10 213,-10"/>
<text text-anchor="start" x="236.78" y="-15.4" font-family="Times-12" font-size="14.00"> &#160;Bootstrap</text>
<polygon fill="#fdb462" stroke="transparent" points="310,-10 310,-30 330,-30 330,-10 310,-10"/>
<text text-anchor="start" x="333.67" y="-15.4" font-family="Times-12" font-size="14.00"> &#160;Providers</text>
<polygon fill="#fb8072" stroke="transparent" points="406,-10 406,-30 426,-30 426,-10 406,-10"/>
<text text-anchor="start" x="429.73" y="-15.4" font-family="Times-12" font-size="14.00"> &#160;Exports</text>
<g id="clust1" class="cluster">
<title>cluster_SecurityModule</title>
<polygon fill="none" stroke="black" stroke-dasharray="1,5" points="115,-70 115,-195 381,-195 381,-70 115,-70"/>
</g>
<g id="clust3" class="cluster">
<title>cluster_SecurityModule_imports</title>
<polygon fill="none" stroke="black" points="261,-78 261,-130 373,-130 373,-78 261,-78"/>
</g>
<g id="clust6" class="cluster">
<title>cluster_SecurityModule_providers</title>
<polygon fill="none" stroke="black" points="123,-78 123,-130 253,-130 253,-78 123,-78"/>
</g>
<!-- TokenModule -->
<g id="node1" class="node">
<title>TokenModule</title>
<polygon fill="#8dd3c7" stroke="black" points="364.82,-122 361.82,-126 340.82,-126 337.82,-122 269.18,-122 269.18,-86 364.82,-86 364.82,-122"/>
<text text-anchor="middle" x="317" y="-99.8" font-family="Times,serif" font-size="14.00">TokenModule</text>
</g>
<!-- SecurityModule -->
<g id="node2" class="node">
<title>SecurityModule</title>
<polygon fill="#8dd3c7" stroke="black" points="305.2,-187 302.2,-191 281.2,-191 278.2,-187 198.8,-187 198.8,-151 305.2,-151 305.2,-187"/>
<text text-anchor="middle" x="252" y="-164.8" font-family="Times,serif" font-size="14.00">SecurityModule</text>
</g>
<!-- TokenModule&#45;&gt;SecurityModule -->
<g id="edge1" class="edge">
<title>TokenModule&#45;&gt;SecurityModule</title>
<path fill="none" stroke="black" d="M287.22,-122.11C287.22,-122.11 287.22,-140.99 287.22,-140.99"/>
<polygon fill="black" stroke="black" points="283.72,-140.99 287.22,-150.99 290.72,-140.99 283.72,-140.99"/>
</g>
<!-- JwtStrategy -->
<g id="node3" class="node">
<title>JwtStrategy</title>
<ellipse fill="#fdb462" stroke="black" cx="188" cy="-104" rx="56.76" ry="18"/>
<text text-anchor="middle" x="188" y="-99.8" font-family="Times,serif" font-size="14.00">JwtStrategy</text>
</g>
<!-- JwtStrategy&#45;&gt;SecurityModule -->
<g id="edge2" class="edge">
<title>JwtStrategy&#45;&gt;SecurityModule</title>
<path fill="none" stroke="black" d="M221.76,-118.75C221.76,-118.75 221.76,-140.59 221.76,-140.59"/>
<polygon fill="black" stroke="black" points="218.26,-140.59 221.76,-150.59 225.26,-140.59 218.26,-140.59"/>
</g>
</g>
</svg>
