<?xml version="1.0" encoding="UTF-8" standalone="no"?>
<!DOCTYPE svg PUBLIC "-//W3C//DTD SVG 1.1//EN"
 "http://www.w3.org/Graphics/SVG/1.1/DTD/svg11.dtd">
<!-- Generated by graphviz version 2.47.0 (20210316.0004)
 -->
<!-- Title: dependencies Pages: 1 -->
<svg width="504pt" height="284pt"
 viewBox="0.00 0.00 504.00 284.00" xmlns="http://www.w3.org/2000/svg" xmlns:xlink="http://www.w3.org/1999/xlink">
<g id="graph0" class="graph" transform="scale(1 1) rotate(0) translate(4 280)">
<title>dependencies</title>
<polygon fill="white" stroke="transparent" points="-4,4 -4,-280 500,-280 500,4 -4,4"/>
<text text-anchor="start" x="227.01" y="-42.4" font-family="Times-12" font-weight="bold" font-size="14.00">Legend</text>
<polygon fill="#ffffb3" stroke="transparent" points="14,-10 14,-30 34,-30 34,-10 14,-10"/>
<text text-anchor="start" x="37.63" y="-15.4" font-family="Times-12" font-size="14.00"> &#160;Declarations</text>
<polygon fill="#8dd3c7" stroke="transparent" points="127,-10 127,-30 147,-30 147,-10 127,-10"/>
<text text-anchor="start" x="150.73" y="-15.4" font-family="Times-12" font-size="14.00"> &#160;Module</text>
<polygon fill="#80b1d3" stroke="transparent" points="213,-10 213,-30 233,-30 233,-10 213,-10"/>
<text text-anchor="start" x="236.78" y="-15.4" font-family="Times-12" font-size="14.00"> &#160;Bootstrap</text>
<polygon fill="#fdb462" stroke="transparent" points="310,-10 310,-30 330,-30 330,-10 310,-10"/>
<text text-anchor="start" x="333.67" y="-15.4" font-family="Times-12" font-size="14.00"> &#160;Providers</text>
<polygon fill="#fb8072" stroke="transparent" points="406,-10 406,-30 426,-30 426,-10 406,-10"/>
<text text-anchor="start" x="429.73" y="-15.4" font-family="Times-12" font-size="14.00"> &#160;Exports</text>
<g id="clust1" class="cluster">
<title>cluster_TokenModule</title>
<polygon fill="none" stroke="black" stroke-dasharray="1,5" points="46,-70 46,-268 450,-268 450,-70 46,-70"/>
</g>
<g id="clust3" class="cluster">
<title>cluster_TokenModule_imports</title>
<polygon fill="none" stroke="black" points="208,-78 208,-130 442,-130 442,-78 208,-78"/>
</g>
<g id="clust4" class="cluster">
<title>cluster_TokenModule_exports</title>
<polygon fill="none" stroke="black" points="205,-208 205,-260 319,-260 319,-208 205,-208"/>
</g>
<g id="clust6" class="cluster">
<title>cluster_TokenModule_providers</title>
<polygon fill="none" stroke="black" points="54,-78 54,-130 200,-130 200,-78 54,-78"/>
</g>
<!-- SessionsModule -->
<g id="node1" class="node">
<title>SessionsModule</title>
<polygon fill="#8dd3c7" stroke="black" points="433.77,-122 430.77,-126 409.77,-126 406.77,-122 326.23,-122 326.23,-86 433.77,-86 433.77,-122"/>
<text text-anchor="middle" x="380" y="-99.8" font-family="Times,serif" font-size="14.00">SessionsModule</text>
</g>
<!-- TokenModule -->
<g id="node3" class="node">
<title>TokenModule</title>
<polygon fill="#8dd3c7" stroke="black" points="309.82,-187 306.82,-191 285.82,-191 282.82,-187 214.18,-187 214.18,-151 309.82,-151 309.82,-187"/>
<text text-anchor="middle" x="262" y="-164.8" font-family="Times,serif" font-size="14.00">TokenModule</text>
</g>
<!-- SessionsModule&#45;&gt;TokenModule -->
<g id="edge1" class="edge">
<title>SessionsModule&#45;&gt;TokenModule</title>
<path fill="none" stroke="black" d="M380,-122.11C380,-141.34 380,-169 380,-169 380,-169 320,-169 320,-169"/>
<polygon fill="black" stroke="black" points="320,-165.5 310,-169 320,-172.5 320,-165.5"/>
</g>
<!-- UsersModule -->
<g id="node2" class="node">
<title>UsersModule</title>
<polygon fill="#8dd3c7" stroke="black" points="307.92,-122 304.92,-126 283.92,-126 280.92,-122 216.08,-122 216.08,-86 307.92,-86 307.92,-122"/>
<text text-anchor="middle" x="262" y="-99.8" font-family="Times,serif" font-size="14.00">UsersModule</text>
</g>
<!-- UsersModule&#45;&gt;TokenModule -->
<g id="edge2" class="edge">
<title>UsersModule&#45;&gt;TokenModule</title>
<path fill="none" stroke="black" d="M262,-122.11C262,-122.11 262,-140.99 262,-140.99"/>
<polygon fill="black" stroke="black" points="258.5,-140.99 262,-150.99 265.5,-140.99 258.5,-140.99"/>
</g>
<!-- TokenService  -->
<g id="node4" class="node">
<title>TokenService </title>
<polygon fill="#fb8072" stroke="black" points="310.75,-252 213.25,-252 213.25,-216 310.75,-216 310.75,-252"/>
<text text-anchor="middle" x="262" y="-229.8" font-family="Times,serif" font-size="14.00">TokenService </text>
</g>
<!-- TokenModule&#45;&gt;TokenService  -->
<g id="edge3" class="edge">
<title>TokenModule&#45;&gt;TokenService </title>
<path fill="none" stroke="black" stroke-dasharray="5,2" d="M262,-187.11C262,-187.11 262,-205.99 262,-205.99"/>
<polygon fill="black" stroke="black" points="258.5,-205.99 262,-215.99 265.5,-205.99 258.5,-205.99"/>
</g>
<!-- TokenService -->
<g id="node5" class="node">
<title>TokenService</title>
<ellipse fill="#fdb462" stroke="black" cx="127" cy="-104" rx="64.83" ry="18"/>
<text text-anchor="middle" x="127" y="-99.8" font-family="Times,serif" font-size="14.00">TokenService</text>
</g>
<!-- TokenService&#45;&gt;TokenModule -->
<g id="edge4" class="edge">
<title>TokenService&#45;&gt;TokenModule</title>
<path fill="none" stroke="black" d="M127,-122.11C127,-141.34 127,-169 127,-169 127,-169 204.02,-169 204.02,-169"/>
<polygon fill="black" stroke="black" points="204.02,-172.5 214.02,-169 204.02,-165.5 204.02,-172.5"/>
</g>
</g>
</svg>
