<?xml version="1.0" encoding="UTF-8" standalone="no"?>
<!DOCTYPE svg PUBLIC "-//W3C//DTD SVG 1.1//EN"
 "http://www.w3.org/Graphics/SVG/1.1/DTD/svg11.dtd">
<!-- Generated by graphviz version 2.47.0 (20210316.0004)
 -->
<!-- Title: dependencies Pages: 1 -->
<svg width="559pt" height="284pt"
 viewBox="0.00 0.00 559.00 284.00" xmlns="http://www.w3.org/2000/svg" xmlns:xlink="http://www.w3.org/1999/xlink">
<g id="graph0" class="graph" transform="scale(1 1) rotate(0) translate(4 280)">
<title>dependencies</title>
<polygon fill="white" stroke="transparent" points="-4,4 -4,-280 555,-280 555,4 -4,4"/>
<text text-anchor="start" x="254.51" y="-42.4" font-family="Times-12" font-weight="bold" font-size="14.00">Legend</text>
<polygon fill="#ffffb3" stroke="transparent" points="41.5,-10 41.5,-30 61.5,-30 61.5,-10 41.5,-10"/>
<text text-anchor="start" x="65.13" y="-15.4" font-family="Times-12" font-size="14.00"> &#160;Declarations</text>
<polygon fill="#8dd3c7" stroke="transparent" points="154.5,-10 154.5,-30 174.5,-30 174.5,-10 154.5,-10"/>
<text text-anchor="start" x="178.23" y="-15.4" font-family="Times-12" font-size="14.00"> &#160;Module</text>
<polygon fill="#80b1d3" stroke="transparent" points="240.5,-10 240.5,-30 260.5,-30 260.5,-10 240.5,-10"/>
<text text-anchor="start" x="264.28" y="-15.4" font-family="Times-12" font-size="14.00"> &#160;Bootstrap</text>
<polygon fill="#fdb462" stroke="transparent" points="337.5,-10 337.5,-30 357.5,-30 357.5,-10 337.5,-10"/>
<text text-anchor="start" x="361.17" y="-15.4" font-family="Times-12" font-size="14.00"> &#160;Providers</text>
<polygon fill="#fb8072" stroke="transparent" points="433.5,-10 433.5,-30 453.5,-30 453.5,-10 433.5,-10"/>
<text text-anchor="start" x="457.23" y="-15.4" font-family="Times-12" font-size="14.00"> &#160;Exports</text>
<g id="clust1" class="cluster">
<title>cluster_TokenModule</title>
<polygon fill="none" stroke="black" stroke-dasharray="1,5" points="8,-70 8,-268 543,-268 543,-70 8,-70"/>
</g>
<g id="clust3" class="cluster">
<title>cluster_TokenModule_imports</title>
<polygon fill="none" stroke="black" points="301,-78 301,-130 535,-130 535,-78 301,-78"/>
</g>
<g id="clust4" class="cluster">
<title>cluster_TokenModule_exports</title>
<polygon fill="none" stroke="black" points="234,-208 234,-260 348,-260 348,-208 234,-208"/>
</g>
<g id="clust6" class="cluster">
<title>cluster_TokenModule_providers</title>
<polygon fill="none" stroke="black" points="16,-78 16,-130 293,-130 293,-78 16,-78"/>
</g>
<!-- SessionsModule -->
<g id="node1" class="node">
<title>SessionsModule</title>
<polygon fill="#8dd3c7" stroke="black" points="526.77,-122 523.77,-126 502.77,-126 499.77,-122 419.23,-122 419.23,-86 526.77,-86 526.77,-122"/>
<text text-anchor="middle" x="473" y="-99.8" font-family="Times,serif" font-size="14.00">SessionsModule</text>
</g>
<!-- TokenModule -->
<g id="node3" class="node">
<title>TokenModule</title>
<polygon fill="#8dd3c7" stroke="black" points="338.82,-187 335.82,-191 314.82,-191 311.82,-187 243.18,-187 243.18,-151 338.82,-151 338.82,-187"/>
<text text-anchor="middle" x="291" y="-164.8" font-family="Times,serif" font-size="14.00">TokenModule</text>
</g>
<!-- SessionsModule&#45;&gt;TokenModule -->
<g id="edge1" class="edge">
<title>SessionsModule&#45;&gt;TokenModule</title>
<path fill="none" stroke="black" d="M473,-122.11C473,-141.34 473,-169 473,-169 473,-169 348.82,-169 348.82,-169"/>
<polygon fill="black" stroke="black" points="348.82,-165.5 338.82,-169 348.82,-172.5 348.82,-165.5"/>
</g>
<!-- UsersModule -->
<g id="node2" class="node">
<title>UsersModule</title>
<polygon fill="#8dd3c7" stroke="black" points="400.92,-122 397.92,-126 376.92,-126 373.92,-122 309.08,-122 309.08,-86 400.92,-86 400.92,-122"/>
<text text-anchor="middle" x="355" y="-99.8" font-family="Times,serif" font-size="14.00">UsersModule</text>
</g>
<!-- UsersModule&#45;&gt;TokenModule -->
<g id="edge2" class="edge">
<title>UsersModule&#45;&gt;TokenModule</title>
<path fill="none" stroke="black" d="M323.97,-122.11C323.97,-122.11 323.97,-140.99 323.97,-140.99"/>
<polygon fill="black" stroke="black" points="320.47,-140.99 323.97,-150.99 327.47,-140.99 320.47,-140.99"/>
</g>
<!-- TokenService  -->
<g id="node4" class="node">
<title>TokenService </title>
<polygon fill="#fb8072" stroke="black" points="339.75,-252 242.25,-252 242.25,-216 339.75,-216 339.75,-252"/>
<text text-anchor="middle" x="291" y="-229.8" font-family="Times,serif" font-size="14.00">TokenService </text>
</g>
<!-- TokenModule&#45;&gt;TokenService  -->
<g id="edge3" class="edge">
<title>TokenModule&#45;&gt;TokenService </title>
<path fill="none" stroke="black" stroke-dasharray="5,2" d="M291,-187.11C291,-187.11 291,-205.99 291,-205.99"/>
<polygon fill="black" stroke="black" points="287.5,-205.99 291,-215.99 294.5,-205.99 287.5,-205.99"/>
</g>
<!-- JwtStrategy -->
<g id="node5" class="node">
<title>JwtStrategy</title>
<ellipse fill="#fdb462" stroke="black" cx="228" cy="-104" rx="56.76" ry="18"/>
<text text-anchor="middle" x="228" y="-99.8" font-family="Times,serif" font-size="14.00">JwtStrategy</text>
</g>
<!-- JwtStrategy&#45;&gt;TokenModule -->
<g id="edge4" class="edge">
<title>JwtStrategy&#45;&gt;TokenModule</title>
<path fill="none" stroke="black" d="M263.98,-118.1C263.98,-118.1 263.98,-140.72 263.98,-140.72"/>
<polygon fill="black" stroke="black" points="260.48,-140.72 263.98,-150.72 267.48,-140.72 260.48,-140.72"/>
</g>
<!-- TokenService -->
<g id="node6" class="node">
<title>TokenService</title>
<ellipse fill="#fdb462" stroke="black" cx="89" cy="-104" rx="64.83" ry="18"/>
<text text-anchor="middle" x="89" y="-99.8" font-family="Times,serif" font-size="14.00">TokenService</text>
</g>
<!-- TokenService&#45;&gt;TokenModule -->
<g id="edge5" class="edge">
<title>TokenService&#45;&gt;TokenModule</title>
<path fill="none" stroke="black" d="M89,-122.11C89,-141.34 89,-169 89,-169 89,-169 233.13,-169 233.13,-169"/>
<polygon fill="black" stroke="black" points="233.13,-172.5 243.13,-169 233.13,-165.5 233.13,-172.5"/>
</g>
</g>
</svg>
