<?xml version="1.0" encoding="UTF-8" standalone="no"?>
<!DOCTYPE svg PUBLIC "-//W3C//DTD SVG 1.1//EN"
 "http://www.w3.org/Graphics/SVG/1.1/DTD/svg11.dtd">
<!-- Generated by graphviz version 2.47.0 (20210316.0004)
 -->
<!-- Title: dependencies Pages: 1 -->
<svg width="769pt" height="284pt"
 viewBox="0.00 0.00 769.00 284.00" xmlns="http://www.w3.org/2000/svg" xmlns:xlink="http://www.w3.org/1999/xlink">
<g id="graph0" class="graph" transform="scale(1 1) rotate(0) translate(4 280)">
<title>dependencies</title>
<polygon fill="white" stroke="transparent" points="-4,4 -4,-280 765,-280 765,4 -4,4"/>
<text text-anchor="start" x="359.51" y="-42.4" font-family="Times-12" font-weight="bold" font-size="14.00">Legend</text>
<polygon fill="#ffffb3" stroke="transparent" points="146.5,-10 146.5,-30 166.5,-30 166.5,-10 146.5,-10"/>
<text text-anchor="start" x="170.13" y="-15.4" font-family="Times-12" font-size="14.00"> &#160;Declarations</text>
<polygon fill="#8dd3c7" stroke="transparent" points="259.5,-10 259.5,-30 279.5,-30 279.5,-10 259.5,-10"/>
<text text-anchor="start" x="283.23" y="-15.4" font-family="Times-12" font-size="14.00"> &#160;Module</text>
<polygon fill="#80b1d3" stroke="transparent" points="345.5,-10 345.5,-30 365.5,-30 365.5,-10 345.5,-10"/>
<text text-anchor="start" x="369.28" y="-15.4" font-family="Times-12" font-size="14.00"> &#160;Bootstrap</text>
<polygon fill="#fdb462" stroke="transparent" points="442.5,-10 442.5,-30 462.5,-30 462.5,-10 442.5,-10"/>
<text text-anchor="start" x="466.17" y="-15.4" font-family="Times-12" font-size="14.00"> &#160;Providers</text>
<polygon fill="#fb8072" stroke="transparent" points="538.5,-10 538.5,-30 558.5,-30 558.5,-10 538.5,-10"/>
<text text-anchor="start" x="562.23" y="-15.4" font-family="Times-12" font-size="14.00"> &#160;Exports</text>
<g id="clust1" class="cluster">
<title>cluster_DeviceModule</title>
<polygon fill="none" stroke="black" stroke-dasharray="1,5" points="8,-70 8,-268 753,-268 753,-70 8,-70"/>
</g>
<g id="clust6" class="cluster">
<title>cluster_DeviceModule_providers</title>
<polygon fill="none" stroke="black" points="16,-78 16,-130 745,-130 745,-78 16,-78"/>
</g>
<g id="clust4" class="cluster">
<title>cluster_DeviceModule_exports</title>
<polygon fill="none" stroke="black" points="233,-208 233,-260 519,-260 519,-208 233,-208"/>
</g>
<!-- DeviceDetectorService  -->
<g id="node1" class="node">
<title>DeviceDetectorService </title>
<polygon fill="#fb8072" stroke="black" points="510.81,-252 361.19,-252 361.19,-216 510.81,-216 510.81,-252"/>
<text text-anchor="middle" x="436" y="-229.8" font-family="Times,serif" font-size="14.00">DeviceDetectorService </text>
</g>
<!-- DeviceMapper  -->
<g id="node2" class="node">
<title>DeviceMapper </title>
<polygon fill="#fb8072" stroke="black" points="343.18,-252 240.82,-252 240.82,-216 343.18,-216 343.18,-252"/>
<text text-anchor="middle" x="292" y="-229.8" font-family="Times,serif" font-size="14.00">DeviceMapper </text>
</g>
<!-- DeviceModule -->
<g id="node3" class="node">
<title>DeviceModule</title>
<polygon fill="#8dd3c7" stroke="black" points="413.69,-187 410.69,-191 389.69,-191 386.69,-187 314.31,-187 314.31,-151 413.69,-151 413.69,-187"/>
<text text-anchor="middle" x="364" y="-164.8" font-family="Times,serif" font-size="14.00">DeviceModule</text>
</g>
<!-- DeviceModule&#45;&gt;DeviceDetectorService  -->
<g id="edge1" class="edge">
<title>DeviceModule&#45;&gt;DeviceDetectorService </title>
<path fill="none" stroke="black" stroke-dasharray="5,2" d="M387.47,-187.11C387.47,-187.11 387.47,-205.99 387.47,-205.99"/>
<polygon fill="black" stroke="black" points="383.97,-205.99 387.47,-215.99 390.97,-205.99 383.97,-205.99"/>
</g>
<!-- DeviceModule&#45;&gt;DeviceMapper  -->
<g id="edge2" class="edge">
<title>DeviceModule&#45;&gt;DeviceMapper </title>
<path fill="none" stroke="black" stroke-dasharray="5,2" d="M328.87,-187.11C328.87,-187.11 328.87,-205.99 328.87,-205.99"/>
<polygon fill="black" stroke="black" points="325.37,-205.99 328.87,-215.99 332.37,-205.99 325.37,-205.99"/>
</g>
<!-- DeviceDetectorService -->
<g id="node4" class="node">
<title>DeviceDetectorService</title>
<ellipse fill="#fdb462" stroke="black" cx="636" cy="-104" rx="100.66" ry="18"/>
<text text-anchor="middle" x="636" y="-99.8" font-family="Times,serif" font-size="14.00">DeviceDetectorService</text>
</g>
<!-- DeviceDetectorService&#45;&gt;DeviceModule -->
<g id="edge3" class="edge">
<title>DeviceDetectorService&#45;&gt;DeviceModule</title>
<path fill="none" stroke="black" d="M636,-122.11C636,-141.34 636,-169 636,-169 636,-169 423.89,-169 423.89,-169"/>
<polygon fill="black" stroke="black" points="423.89,-165.5 413.89,-169 423.89,-172.5 423.89,-165.5"/>
</g>
<!-- DeviceMapper -->
<g id="node5" class="node">
<title>DeviceMapper</title>
<ellipse fill="#fdb462" stroke="black" cx="449" cy="-104" rx="68.32" ry="18"/>
<text text-anchor="middle" x="449" y="-99.8" font-family="Times,serif" font-size="14.00">DeviceMapper</text>
</g>
<!-- DeviceMapper&#45;&gt;DeviceModule -->
<g id="edge4" class="edge">
<title>DeviceMapper&#45;&gt;DeviceModule</title>
<path fill="none" stroke="black" d="M397.09,-115.92C397.09,-115.92 397.09,-140.77 397.09,-140.77"/>
<polygon fill="black" stroke="black" points="393.59,-140.77 397.09,-150.77 400.59,-140.77 393.59,-140.77"/>
</g>
<!-- FingerprintService -->
<g id="node6" class="node">
<title>FingerprintService</title>
<ellipse fill="#fdb462" stroke="black" cx="279" cy="-104" rx="83.38" ry="18"/>
<text text-anchor="middle" x="279" y="-99.8" font-family="Times,serif" font-size="14.00">FingerprintService</text>
</g>
<!-- FingerprintService&#45;&gt;DeviceModule -->
<g id="edge5" class="edge">
<title>FingerprintService&#45;&gt;DeviceModule</title>
<path fill="none" stroke="black" d="M338.42,-116.84C338.42,-116.84 338.42,-140.52 338.42,-140.52"/>
<polygon fill="black" stroke="black" points="334.92,-140.52 338.42,-150.52 341.92,-140.52 334.92,-140.52"/>
</g>
<!-- UserAgentParser -->
<g id="node7" class="node">
<title>UserAgentParser</title>
<ellipse fill="#fdb462" stroke="black" cx="101" cy="-104" rx="76.98" ry="18"/>
<text text-anchor="middle" x="101" y="-99.8" font-family="Times,serif" font-size="14.00">UserAgentParser</text>
</g>
<!-- UserAgentParser&#45;&gt;DeviceModule -->
<g id="edge6" class="edge">
<title>UserAgentParser&#45;&gt;DeviceModule</title>
<path fill="none" stroke="black" d="M101,-122.11C101,-141.34 101,-169 101,-169 101,-169 304.22,-169 304.22,-169"/>
<polygon fill="black" stroke="black" points="304.22,-172.5 314.22,-169 304.22,-165.5 304.22,-172.5"/>
</g>
</g>
</svg>
