<?xml version="1.0" encoding="UTF-8" standalone="no"?>
<!DOCTYPE svg PUBLIC "-//W3C//DTD SVG 1.1//EN"
 "http://www.w3.org/Graphics/SVG/1.1/DTD/svg11.dtd">
<!-- Generated by graphviz version 2.47.0 (20210316.0004)
 -->
<!-- Title: dependencies Pages: 1 -->
<svg width="3258pt" height="534pt"
 viewBox="0.00 0.00 3258.00 534.00" xmlns="http://www.w3.org/2000/svg" xmlns:xlink="http://www.w3.org/1999/xlink">
<g id="graph0" class="graph" transform="scale(1 1) rotate(0) translate(4 530)">
<title>dependencies</title>
<polygon fill="white" stroke="transparent" points="-4,4 -4,-530 3254,-530 3254,4 -4,4"/>
<text text-anchor="start" x="1604.01" y="-42.4" font-family="Times-12" font-weight="bold" font-size="14.00">Legend</text>
<polygon fill="#ffffb3" stroke="transparent" points="1391,-10 1391,-30 1411,-30 1411,-10 1391,-10"/>
<text text-anchor="start" x="1414.63" y="-15.4" font-family="Times-12" font-size="14.00"> &#160;Declarations</text>
<polygon fill="#8dd3c7" stroke="transparent" points="1504,-10 1504,-30 1524,-30 1524,-10 1504,-10"/>
<text text-anchor="start" x="1527.73" y="-15.4" font-family="Times-12" font-size="14.00"> &#160;Module</text>
<polygon fill="#80b1d3" stroke="transparent" points="1590,-10 1590,-30 1610,-30 1610,-10 1590,-10"/>
<text text-anchor="start" x="1613.78" y="-15.4" font-family="Times-12" font-size="14.00"> &#160;Bootstrap</text>
<polygon fill="#fdb462" stroke="transparent" points="1687,-10 1687,-30 1707,-30 1707,-10 1687,-10"/>
<text text-anchor="start" x="1710.67" y="-15.4" font-family="Times-12" font-size="14.00"> &#160;Providers</text>
<polygon fill="#fb8072" stroke="transparent" points="1783,-10 1783,-30 1803,-30 1803,-10 1783,-10"/>
<text text-anchor="start" x="1806.73" y="-15.4" font-family="Times-12" font-size="14.00"> &#160;Exports</text>
<g id="clust1" class="cluster">
<title>cluster_AppModule</title>
<polygon fill="none" stroke="black" stroke-dasharray="1,5" points="1488,-374 1488,-510 1884,-510 1884,-374 1488,-374"/>
</g>
<g id="clust3" class="cluster">
<title>cluster_AppModule_imports</title>
<polygon fill="none" stroke="black" points="1496,-382 1496,-434 1876,-434 1876,-382 1496,-382"/>
</g>
<g id="clust7" class="cluster">
<title>cluster_AuthModule</title>
<polygon fill="none" stroke="black" stroke-dasharray="1,5" points="860,-146 860,-358 1738,-358 1738,-146 860,-146"/>
</g>
<g id="clust9" class="cluster">
<title>cluster_AuthModule_imports</title>
<polygon fill="none" stroke="black" points="1222,-154 1222,-282 1730,-282 1730,-154 1222,-154"/>
</g>
<g id="clust12" class="cluster">
<title>cluster_AuthModule_providers</title>
<polygon fill="none" stroke="black" points="920,-230 920,-282 1214,-282 1214,-230 920,-230"/>
</g>
<g id="clust13" class="cluster">
<title>cluster_ClockModule</title>
<polygon fill="none" stroke="black" stroke-dasharray="1,5" points="391,-222 391,-442 549,-442 549,-222 391,-222"/>
</g>
<g id="clust16" class="cluster">
<title>cluster_ClockModule_exports</title>
<polygon fill="none" stroke="black" points="423,-382 423,-434 533,-434 533,-382 423,-382"/>
</g>
<g id="clust18" class="cluster">
<title>cluster_ClockModule_providers</title>
<polygon fill="none" stroke="black" points="399,-230 399,-282 541,-282 541,-230 399,-230"/>
</g>
<g id="clust19" class="cluster">
<title>cluster_CoreModule</title>
<polygon fill="none" stroke="black" stroke-dasharray="1,5" points="1892,-450 1892,-518 2020,-518 2020,-450 1892,-450"/>
</g>
<g id="clust22" class="cluster">
<title>cluster_CoreModule_exports</title>
<polygon fill="none" stroke="black" points="1900,-458 1900,-510 2012,-510 2012,-458 1900,-458"/>
</g>
<g id="clust25" class="cluster">
<title>cluster_CsrfModule</title>
<polygon fill="none" stroke="black" stroke-dasharray="1,5" points="2186,-222 2186,-290 2442,-290 2442,-222 2186,-222"/>
</g>
<g id="clust28" class="cluster">
<title>cluster_CsrfModule_exports</title>
<polygon fill="none" stroke="black" points="2332,-230 2332,-282 2434,-282 2434,-230 2332,-230"/>
</g>
<g id="clust30" class="cluster">
<title>cluster_CsrfModule_providers</title>
<polygon fill="none" stroke="black" points="2194,-230 2194,-282 2324,-282 2324,-230 2194,-230"/>
</g>
<g id="clust31" class="cluster">
<title>cluster_DatabasesModule</title>
<polygon fill="none" stroke="black" stroke-dasharray="1,5" points="557,-222 557,-358 805,-358 805,-222 557,-222"/>
</g>
<g id="clust33" class="cluster">
<title>cluster_DatabasesModule_imports</title>
<polygon fill="none" stroke="black" points="565,-230 565,-282 797,-282 797,-230 565,-230"/>
</g>
<g id="clust37" class="cluster">
<title>cluster_DeviceDetectionModule</title>
<polygon fill="none" stroke="black" stroke-dasharray="1,5" points="772,-70 772,-138 1811,-138 1811,-70 772,-70"/>
</g>
<g id="clust40" class="cluster">
<title>cluster_DeviceDetectionModule_exports</title>
<polygon fill="none" stroke="black" points="1517,-78 1517,-130 1803,-130 1803,-78 1517,-78"/>
</g>
<g id="clust42" class="cluster">
<title>cluster_DeviceDetectionModule_providers</title>
<polygon fill="none" stroke="black" points="780,-78 780,-130 1509,-130 1509,-78 780,-78"/>
</g>
<g id="clust49" class="cluster">
<title>cluster_FeaturesModule</title>
<polygon fill="none" stroke="black" stroke-dasharray="1,5" points="1746,-298 1746,-366 1884,-366 1884,-298 1746,-298"/>
</g>
<g id="clust51" class="cluster">
<title>cluster_FeaturesModule_imports</title>
<polygon fill="none" stroke="black" points="1754,-306 1754,-358 1876,-358 1876,-306 1754,-306"/>
</g>
<g id="clust55" class="cluster">
<title>cluster_InfrastructureModule</title>
<polygon fill="none" stroke="black" stroke-dasharray="1,5" points="1892,-298 1892,-366 2248,-366 2248,-298 1892,-298"/>
</g>
<g id="clust57" class="cluster">
<title>cluster_InfrastructureModule_imports</title>
<polygon fill="none" stroke="black" points="2142,-306 2142,-358 2240,-358 2240,-306 2142,-306"/>
</g>
<g id="clust60" class="cluster">
<title>cluster_InfrastructureModule_providers</title>
<polygon fill="none" stroke="black" points="1900,-306 1900,-358 2134,-358 2134,-306 1900,-306"/>
</g>
<g id="clust67" class="cluster">
<title>cluster_RateLimitModule</title>
<polygon fill="none" stroke="black" stroke-dasharray="1,5" points="3052,-146 3052,-282 3242,-282 3242,-146 3052,-146"/>
</g>
<g id="clust72" class="cluster">
<title>cluster_RateLimitModule_providers</title>
<polygon fill="none" stroke="black" points="3060,-154 3060,-206 3234,-206 3234,-154 3060,-154"/>
</g>
<g id="clust73" class="cluster">
<title>cluster_RedisModule</title>
<polygon fill="none" stroke="black" stroke-dasharray="1,5" points="8,-146 8,-214 852,-214 852,-146 8,-146"/>
</g>
<g id="clust76" class="cluster">
<title>cluster_RedisModule_exports</title>
<polygon fill="none" stroke="black" points="550,-154 550,-206 844,-206 844,-154 550,-154"/>
</g>
<g id="clust78" class="cluster">
<title>cluster_RedisModule_providers</title>
<polygon fill="none" stroke="black" points="16,-154 16,-206 542,-206 542,-154 16,-154"/>
</g>
<g id="clust79" class="cluster">
<title>cluster_SecurityModule</title>
<polygon fill="none" stroke="black" stroke-dasharray="1,5" points="1746,-222 1746,-290 2074,-290 2074,-222 1746,-222"/>
</g>
<g id="clust82" class="cluster">
<title>cluster_SecurityModule_exports</title>
<polygon fill="none" stroke="black" points="1892,-230 1892,-282 2066,-282 2066,-230 1892,-230"/>
</g>
<g id="clust84" class="cluster">
<title>cluster_SecurityModule_providers</title>
<polygon fill="none" stroke="black" points="1754,-230 1754,-282 1884,-282 1884,-230 1754,-230"/>
</g>
<g id="clust85" class="cluster">
<title>cluster_SessionsModule</title>
<polygon fill="none" stroke="black" stroke-dasharray="1,5" points="2450,-222 2450,-290 2762,-290 2762,-222 2450,-222"/>
</g>
<g id="clust88" class="cluster">
<title>cluster_SessionsModule_exports</title>
<polygon fill="none" stroke="black" points="2628,-230 2628,-282 2754,-282 2754,-230 2628,-230"/>
</g>
<g id="clust90" class="cluster">
<title>cluster_SessionsModule_providers</title>
<polygon fill="none" stroke="black" points="2458,-230 2458,-282 2620,-282 2620,-230 2458,-230"/>
</g>
<g id="clust91" class="cluster">
<title>cluster_TokenModule</title>
<polygon fill="none" stroke="black" stroke-dasharray="1,5" points="2256,-298 2256,-366 2540,-366 2540,-298 2256,-298"/>
</g>
<g id="clust94" class="cluster">
<title>cluster_TokenModule_exports</title>
<polygon fill="none" stroke="black" points="2418,-306 2418,-358 2532,-358 2532,-306 2418,-306"/>
</g>
<g id="clust96" class="cluster">
<title>cluster_TokenModule_providers</title>
<polygon fill="none" stroke="black" points="2264,-306 2264,-358 2410,-358 2410,-306 2264,-306"/>
</g>
<g id="clust97" class="cluster">
<title>cluster_UsersModule</title>
<polygon fill="none" stroke="black" stroke-dasharray="1,5" points="2770,-222 2770,-290 3044,-290 3044,-222 2770,-222"/>
</g>
<g id="clust100" class="cluster">
<title>cluster_UsersModule_exports</title>
<polygon fill="none" stroke="black" points="2926,-230 2926,-282 3036,-282 3036,-230 2926,-230"/>
</g>
<g id="clust102" class="cluster">
<title>cluster_UsersModule_providers</title>
<polygon fill="none" stroke="black" points="2778,-230 2778,-282 2918,-282 2918,-230 2778,-230"/>
</g>
<!-- CoreModule -->
<g id="node1" class="node">
<title>CoreModule</title>
<polygon fill="#8dd3c7" stroke="black" points="1590.26,-426 1587.26,-430 1566.26,-430 1563.26,-426 1503.74,-426 1503.74,-390 1590.26,-390 1590.26,-426"/>
<text text-anchor="middle" x="1547" y="-403.8" font-family="Times,serif" font-size="14.00">CoreModule</text>
</g>
<!-- AppModule -->
<g id="node4" class="node">
<title>AppModule</title>
<polygon fill="#8dd3c7" stroke="black" points="1717.66,-502 1714.66,-506 1693.66,-506 1690.66,-502 1634.34,-502 1634.34,-466 1717.66,-466 1717.66,-502"/>
<text text-anchor="middle" x="1676" y="-479.8" font-family="Times,serif" font-size="14.00">AppModule</text>
</g>
<!-- CoreModule&#45;&gt;AppModule -->
<g id="edge1" class="edge">
<title>CoreModule&#45;&gt;AppModule</title>
<path fill="none" stroke="black" d="M1561.46,-426.01C1561.46,-448.49 1561.46,-484 1561.46,-484 1561.46,-484 1624.32,-484 1624.32,-484"/>
<polygon fill="black" stroke="black" points="1624.32,-487.5 1634.32,-484 1624.32,-480.5 1624.32,-487.5"/>
</g>
<!-- ClockModule  -->
<g id="node16" class="node">
<title>ClockModule </title>
<polygon fill="#fb8072" stroke="black" points="2004.49,-502 1907.51,-502 1907.51,-466 2004.49,-466 2004.49,-502"/>
<text text-anchor="middle" x="1956" y="-479.8" font-family="Times,serif" font-size="14.00">ClockModule </text>
</g>
<!-- CoreModule&#45;&gt;ClockModule  -->
<g id="edge14" class="edge">
<title>CoreModule&#45;&gt;ClockModule </title>
<path fill="none" stroke="black" stroke-dasharray="5,2" d="M1532.54,-426.11C1532.54,-435.9 1532.54,-446 1532.54,-446 1532.54,-446 1940.33,-446 1940.33,-446 1940.33,-446 1940.33,-455.89 1940.33,-455.89"/>
<polygon fill="black" stroke="black" points="1936.83,-455.89 1940.33,-465.89 1943.83,-455.89 1936.83,-455.89"/>
</g>
<!-- FeaturesModule -->
<g id="node2" class="node">
<title>FeaturesModule</title>
<polygon fill="#8dd3c7" stroke="black" points="1868.47,-426 1865.47,-430 1844.47,-430 1841.47,-426 1761.53,-426 1761.53,-390 1868.47,-390 1868.47,-426"/>
<text text-anchor="middle" x="1815" y="-403.8" font-family="Times,serif" font-size="14.00">FeaturesModule</text>
</g>
<!-- FeaturesModule&#45;&gt;AppModule -->
<g id="edge2" class="edge">
<title>FeaturesModule&#45;&gt;AppModule</title>
<path fill="none" stroke="black" d="M1815,-426.01C1815,-448.49 1815,-484 1815,-484 1815,-484 1727.7,-484 1727.7,-484"/>
<polygon fill="black" stroke="black" points="1727.7,-480.5 1717.7,-484 1727.7,-487.5 1727.7,-480.5"/>
</g>
<!-- InfrastructureModule -->
<g id="node3" class="node">
<title>InfrastructureModule</title>
<polygon fill="#8dd3c7" stroke="black" points="1743.72,-426 1740.72,-430 1719.72,-430 1716.72,-426 1608.28,-426 1608.28,-390 1743.72,-390 1743.72,-426"/>
<text text-anchor="middle" x="1676" y="-403.8" font-family="Times,serif" font-size="14.00">InfrastructureModule</text>
</g>
<!-- InfrastructureModule&#45;&gt;AppModule -->
<g id="edge3" class="edge">
<title>InfrastructureModule&#45;&gt;AppModule</title>
<path fill="none" stroke="black" d="M1676,-426.01C1676,-426.01 1676,-455.85 1676,-455.85"/>
<polygon fill="black" stroke="black" points="1672.5,-455.85 1676,-465.85 1679.5,-455.85 1672.5,-455.85"/>
</g>
<!-- CsrfModule -->
<g id="node5" class="node">
<title>CsrfModule</title>
<polygon fill="#8dd3c7" stroke="black" points="1485.65,-198 1482.65,-202 1461.65,-202 1458.65,-198 1402.35,-198 1402.35,-162 1485.65,-162 1485.65,-198"/>
<text text-anchor="middle" x="1444" y="-175.8" font-family="Times,serif" font-size="14.00">CsrfModule</text>
</g>
<!-- AuthModule -->
<g id="node10" class="node">
<title>AuthModule</title>
<polygon fill="#8dd3c7" stroke="black" points="1116.55,-350 1113.55,-354 1092.55,-354 1089.55,-350 1029.45,-350 1029.45,-314 1116.55,-314 1116.55,-350"/>
<text text-anchor="middle" x="1073" y="-327.8" font-family="Times,serif" font-size="14.00">AuthModule</text>
</g>
<!-- CsrfModule&#45;&gt;AuthModule -->
<g id="edge4" class="edge">
<title>CsrfModule&#45;&gt;AuthModule</title>
<path fill="none" stroke="black" d="M1452.37,-198.04C1452.37,-235.45 1452.37,-318 1452.37,-318 1452.37,-318 1126.89,-318 1126.89,-318"/>
<polygon fill="black" stroke="black" points="1126.89,-314.5 1116.89,-318 1126.89,-321.5 1126.89,-314.5"/>
</g>
<!-- CsrfService  -->
<g id="node17" class="node">
<title>CsrfService </title>
<polygon fill="#fb8072" stroke="black" points="2425.58,-274 2340.42,-274 2340.42,-238 2425.58,-238 2425.58,-274"/>
<text text-anchor="middle" x="2383" y="-251.8" font-family="Times,serif" font-size="14.00">CsrfService </text>
</g>
<!-- CsrfModule&#45;&gt;CsrfService  -->
<g id="edge15" class="edge">
<title>CsrfModule&#45;&gt;CsrfService </title>
<path fill="none" stroke="black" stroke-dasharray="5,2" d="M1418.9,-198.04C1418.9,-205.75 1418.9,-213 1418.9,-213 1418.9,-213 2383,-213 2383,-213 2383,-213 2383,-227.51 2383,-227.51"/>
<polygon fill="black" stroke="black" points="2379.5,-227.51 2383,-237.51 2386.5,-227.51 2379.5,-227.51"/>
</g>
<!-- SecurityModule -->
<g id="node28" class="node">
<title>SecurityModule</title>
<polygon fill="#8dd3c7" stroke="black" points="1868.2,-350 1865.2,-354 1844.2,-354 1841.2,-350 1761.8,-350 1761.8,-314 1868.2,-314 1868.2,-350"/>
<text text-anchor="middle" x="1815" y="-327.8" font-family="Times,serif" font-size="14.00">SecurityModule</text>
</g>
<!-- CsrfModule&#45;&gt;SecurityModule -->
<g id="edge39" class="edge">
<title>CsrfModule&#45;&gt;SecurityModule</title>
<path fill="none" stroke="black" d="M1469.1,-198.12C1469.1,-239.63 1469.1,-338 1469.1,-338 1469.1,-338 1751.71,-338 1751.71,-338"/>
<polygon fill="black" stroke="black" points="1751.71,-341.5 1761.71,-338 1751.71,-334.5 1751.71,-341.5"/>
</g>
<!-- DeviceDetectionModule -->
<g id="node6" class="node">
<title>DeviceDetectionModule</title>
<polygon fill="#8dd3c7" stroke="black" points="1383.61,-198 1380.61,-202 1359.61,-202 1356.61,-198 1230.39,-198 1230.39,-162 1383.61,-162 1383.61,-198"/>
<text text-anchor="middle" x="1307" y="-175.8" font-family="Times,serif" font-size="14.00">DeviceDetectionModule</text>
</g>
<!-- DeviceDetectionModule&#45;&gt;AuthModule -->
<g id="edge5" class="edge">
<title>DeviceDetectionModule&#45;&gt;AuthModule</title>
<path fill="none" stroke="black" d="M1230.32,-189C1163.98,-189 1078.63,-189 1078.63,-189 1078.63,-189 1078.63,-303.89 1078.63,-303.89"/>
<polygon fill="black" stroke="black" points="1075.13,-303.89 1078.63,-313.89 1082.13,-303.89 1075.13,-303.89"/>
</g>
<!-- DeviceDetectorService  -->
<g id="node22" class="node">
<title>DeviceDetectorService </title>
<polygon fill="#fb8072" stroke="black" points="1794.81,-122 1645.19,-122 1645.19,-86 1794.81,-86 1794.81,-122"/>
<text text-anchor="middle" x="1720" y="-99.8" font-family="Times,serif" font-size="14.00">DeviceDetectorService </text>
</g>
<!-- DeviceDetectionModule&#45;&gt;DeviceDetectorService  -->
<g id="edge19" class="edge">
<title>DeviceDetectionModule&#45;&gt;DeviceDetectorService </title>
<path fill="none" stroke="black" stroke-dasharray="5,2" d="M1362.71,-161.97C1362.71,-155.15 1362.71,-149 1362.71,-149 1362.71,-149 1683.53,-149 1683.53,-149 1683.53,-149 1683.53,-132.04 1683.53,-132.04"/>
<polygon fill="black" stroke="black" points="1687.03,-132.04 1683.53,-122.04 1680.03,-132.04 1687.03,-132.04"/>
</g>
<!-- DeviceMapper  -->
<g id="node23" class="node">
<title>DeviceMapper </title>
<polygon fill="#fb8072" stroke="black" points="1627.18,-122 1524.82,-122 1524.82,-86 1627.18,-86 1627.18,-122"/>
<text text-anchor="middle" x="1576" y="-99.8" font-family="Times,serif" font-size="14.00">DeviceMapper </text>
</g>
<!-- DeviceDetectionModule&#45;&gt;DeviceMapper  -->
<g id="edge20" class="edge">
<title>DeviceDetectionModule&#45;&gt;DeviceMapper </title>
<path fill="none" stroke="black" stroke-dasharray="5,2" d="M1341.61,-161.85C1341.61,-149.73 1341.61,-136 1341.61,-136 1341.61,-136 1568.27,-136 1568.27,-136 1568.27,-136 1568.27,-132.24 1568.27,-132.24"/>
<polygon fill="black" stroke="black" points="1571.77,-132.24 1568.27,-122.24 1564.77,-132.24 1571.77,-132.24"/>
</g>
<!-- DeviceDetectionModule&#45;&gt;SecurityModule -->
<g id="edge40" class="edge">
<title>DeviceDetectionModule&#45;&gt;SecurityModule</title>
<path fill="none" stroke="black" d="M1307,-198.27C1307,-240.64 1307,-342 1307,-342 1307,-342 1751.6,-342 1751.6,-342"/>
<polygon fill="black" stroke="black" points="1751.6,-345.5 1761.6,-342 1751.6,-338.5 1751.6,-345.5"/>
</g>
<!-- SessionsModule -->
<g id="node7" class="node">
<title>SessionsModule</title>
<polygon fill="#8dd3c7" stroke="black" points="1611.77,-198 1608.77,-202 1587.77,-202 1584.77,-198 1504.23,-198 1504.23,-162 1611.77,-162 1611.77,-198"/>
<text text-anchor="middle" x="1558" y="-175.8" font-family="Times,serif" font-size="14.00">SessionsModule</text>
</g>
<!-- SessionsModule&#45;&gt;FeaturesModule -->
<g id="edge27" class="edge">
<title>SessionsModule&#45;&gt;FeaturesModule</title>
<path fill="none" stroke="black" d="M1600.85,-198.25C1600.85,-246.54 1600.85,-374 1600.85,-374 1600.85,-374 1797.3,-374 1797.3,-374 1797.3,-374 1797.3,-379.81 1797.3,-379.81"/>
<polygon fill="black" stroke="black" points="1793.8,-379.81 1797.3,-389.81 1800.8,-379.81 1793.8,-379.81"/>
</g>
<!-- TokenModule -->
<g id="node8" class="node">
<title>TokenModule</title>
<polygon fill="#8dd3c7" stroke="black" points="1699.82,-274 1696.82,-278 1675.82,-278 1672.82,-274 1604.18,-274 1604.18,-238 1699.82,-238 1699.82,-274"/>
<text text-anchor="middle" x="1652" y="-251.8" font-family="Times,serif" font-size="14.00">TokenModule</text>
</g>
<!-- SessionsModule&#45;&gt;TokenModule -->
<g id="edge47" class="edge">
<title>SessionsModule&#45;&gt;TokenModule</title>
<path fill="none" stroke="black" d="M1608.11,-198.01C1608.11,-198.01 1608.11,-227.85 1608.11,-227.85"/>
<polygon fill="black" stroke="black" points="1604.61,-227.85 1608.11,-237.85 1611.61,-227.85 1604.61,-227.85"/>
</g>
<!-- SessionsModule&#45;&gt;AuthModule -->
<g id="edge6" class="edge">
<title>SessionsModule&#45;&gt;AuthModule</title>
<path fill="none" stroke="black" d="M1547.25,-198.27C1547.25,-236.63 1547.25,-322 1547.25,-322 1547.25,-322 1126.77,-322 1126.77,-322"/>
<polygon fill="black" stroke="black" points="1126.77,-318.5 1116.77,-322 1126.77,-325.5 1126.77,-318.5"/>
</g>
<!-- SessionsService  -->
<g id="node40" class="node">
<title>SessionsService </title>
<polygon fill="#fb8072" stroke="black" points="2745.7,-274 2636.3,-274 2636.3,-238 2745.7,-238 2745.7,-274"/>
<text text-anchor="middle" x="2691" y="-251.8" font-family="Times,serif" font-size="14.00">SessionsService </text>
</g>
<!-- SessionsModule&#45;&gt;SessionsService  -->
<g id="edge45" class="edge">
<title>SessionsModule&#45;&gt;SessionsService </title>
<path fill="none" stroke="black" stroke-dasharray="5,2" d="M1593.87,-198.12C1593.87,-200.97 1593.87,-203 1593.87,-203 1593.87,-203 2691,-203 2691,-203 2691,-203 2691,-227.76 2691,-227.76"/>
<polygon fill="black" stroke="black" points="2687.5,-227.76 2691,-237.76 2694.5,-227.76 2687.5,-227.76"/>
</g>
<!-- TokenModule&#45;&gt;FeaturesModule -->
<g id="edge28" class="edge">
<title>TokenModule&#45;&gt;FeaturesModule</title>
<path fill="none" stroke="black" d="M1699.69,-256C1725.71,-256 1752.69,-256 1752.69,-256 1752.69,-256 1752.69,-408 1752.69,-408 1752.69,-408 1753.55,-408 1753.55,-408"/>
<polygon fill="black" stroke="black" points="1751.35,-411.5 1761.35,-408 1751.35,-404.5 1751.35,-411.5"/>
</g>
<!-- TokenModule&#45;&gt;AuthModule -->
<g id="edge7" class="edge">
<title>TokenModule&#45;&gt;AuthModule</title>
<path fill="none" stroke="black" d="M1669.15,-274.03C1669.15,-294.77 1669.15,-326 1669.15,-326 1669.15,-326 1126.84,-326 1126.84,-326"/>
<polygon fill="black" stroke="black" points="1126.84,-322.5 1116.84,-326 1126.84,-329.5 1126.84,-322.5"/>
</g>
<!-- TokenModule&#45;&gt;SecurityModule -->
<g id="edge42" class="edge">
<title>TokenModule&#45;&gt;SecurityModule</title>
<path fill="none" stroke="black" d="M1684.41,-274.09C1684.41,-297.13 1684.41,-334 1684.41,-334 1684.41,-334 1751.88,-334 1751.88,-334"/>
<polygon fill="black" stroke="black" points="1751.88,-337.5 1761.88,-334 1751.88,-330.5 1751.88,-337.5"/>
</g>
<!-- TokenService  -->
<g id="node42" class="node">
<title>TokenService </title>
<polygon fill="#fb8072" stroke="black" points="2523.75,-350 2426.25,-350 2426.25,-314 2523.75,-314 2523.75,-350"/>
<text text-anchor="middle" x="2475" y="-327.8" font-family="Times,serif" font-size="14.00">TokenService </text>
</g>
<!-- TokenModule&#45;&gt;TokenService  -->
<g id="edge49" class="edge">
<title>TokenModule&#45;&gt;TokenService </title>
<path fill="none" stroke="black" stroke-dasharray="5,2" d="M1638.65,-274.11C1638.65,-283.9 1638.65,-294 1638.65,-294 1638.65,-294 2446.06,-294 2446.06,-294 2446.06,-294 2446.06,-303.89 2446.06,-303.89"/>
<polygon fill="black" stroke="black" points="2442.56,-303.89 2446.06,-313.89 2449.56,-303.89 2442.56,-303.89"/>
</g>
<!-- UsersModule -->
<g id="node9" class="node">
<title>UsersModule</title>
<polygon fill="#8dd3c7" stroke="black" points="1721.92,-198 1718.92,-202 1697.92,-202 1694.92,-198 1630.08,-198 1630.08,-162 1721.92,-162 1721.92,-198"/>
<text text-anchor="middle" x="1676" y="-175.8" font-family="Times,serif" font-size="14.00">UsersModule</text>
</g>
<!-- UsersModule&#45;&gt;FeaturesModule -->
<g id="edge29" class="edge">
<title>UsersModule&#45;&gt;FeaturesModule</title>
<path fill="none" stroke="black" d="M1721.76,-189C1740.16,-189 1757.1,-189 1757.1,-189 1757.1,-189 1757.1,-399 1757.1,-399 1757.1,-399 1757.52,-399 1757.52,-399"/>
<polygon fill="black" stroke="black" points="1751.26,-402.5 1761.26,-399 1751.26,-395.5 1751.26,-402.5"/>
</g>
<!-- UsersModule&#45;&gt;TokenModule -->
<g id="edge48" class="edge">
<title>UsersModule&#45;&gt;TokenModule</title>
<path fill="none" stroke="black" d="M1664.97,-198.01C1664.97,-198.01 1664.97,-227.85 1664.97,-227.85"/>
<polygon fill="black" stroke="black" points="1661.47,-227.85 1664.97,-237.85 1668.47,-227.85 1661.47,-227.85"/>
</g>
<!-- UsersModule&#45;&gt;AuthModule -->
<g id="edge8" class="edge">
<title>UsersModule&#45;&gt;AuthModule</title>
<path fill="none" stroke="black" d="M1710.68,-198.09C1710.68,-237.99 1710.68,-330 1710.68,-330 1710.68,-330 1126.83,-330 1126.83,-330"/>
<polygon fill="black" stroke="black" points="1126.83,-326.5 1116.83,-330 1126.83,-333.5 1126.83,-326.5"/>
</g>
<!-- UsersService  -->
<g id="node44" class="node">
<title>UsersService </title>
<polygon fill="#fb8072" stroke="black" points="3027.85,-274 2934.15,-274 2934.15,-238 3027.85,-238 3027.85,-274"/>
<text text-anchor="middle" x="2981" y="-251.8" font-family="Times,serif" font-size="14.00">UsersService </text>
</g>
<!-- UsersModule&#45;&gt;UsersService  -->
<g id="edge51" class="edge">
<title>UsersModule&#45;&gt;UsersService </title>
<path fill="none" stroke="black" stroke-dasharray="5,2" d="M1722.06,-171C1953.79,-171 2981,-171 2981,-171 2981,-171 2981,-227.97 2981,-227.97"/>
<polygon fill="black" stroke="black" points="2977.5,-227.97 2981,-237.97 2984.5,-227.97 2977.5,-227.97"/>
</g>
<!-- AuthModule&#45;&gt;FeaturesModule -->
<g id="edge25" class="edge">
<title>AuthModule&#45;&gt;FeaturesModule</title>
<path fill="none" stroke="black" d="M1116.79,-346C1266.42,-346 1748.27,-346 1748.27,-346 1748.27,-346 1748.27,-417 1748.27,-417 1748.27,-417 1751.46,-417 1751.46,-417"/>
<polygon fill="black" stroke="black" points="1751.46,-420.5 1761.46,-417 1751.46,-413.5 1751.46,-420.5"/>
</g>
<!-- AuthService -->
<g id="node11" class="node">
<title>AuthService</title>
<ellipse fill="#fdb462" stroke="black" cx="1147" cy="-256" rx="59.11" ry="18"/>
<text text-anchor="middle" x="1147" y="-251.8" font-family="Times,serif" font-size="14.00">AuthService</text>
</g>
<!-- AuthService&#45;&gt;AuthModule -->
<g id="edge9" class="edge">
<title>AuthService&#45;&gt;AuthModule</title>
<path fill="none" stroke="black" d="M1102.23,-267.88C1102.23,-267.88 1102.23,-303.99 1102.23,-303.99"/>
<polygon fill="black" stroke="black" points="1098.73,-303.99 1102.23,-313.99 1105.73,-303.99 1098.73,-303.99"/>
</g>
<!-- BcryptProvider -->
<g id="node12" class="node">
<title>BcryptProvider</title>
<ellipse fill="#fdb462" stroke="black" cx="999" cy="-256" rx="70.65" ry="18"/>
<text text-anchor="middle" x="999" y="-251.8" font-family="Times,serif" font-size="14.00">BcryptProvider</text>
</g>
<!-- BcryptProvider&#45;&gt;AuthModule -->
<g id="edge10" class="edge">
<title>BcryptProvider&#45;&gt;AuthModule</title>
<path fill="none" stroke="black" d="M1049.4,-268.89C1049.4,-268.89 1049.4,-303.91 1049.4,-303.91"/>
<polygon fill="black" stroke="black" points="1045.9,-303.91 1049.4,-313.91 1052.9,-303.91 1045.9,-303.91"/>
</g>
<!-- ClockService  -->
<g id="node13" class="node">
<title>ClockService </title>
<polygon fill="#fb8072" stroke="black" points="525.42,-426 430.58,-426 430.58,-390 525.42,-390 525.42,-426"/>
<text text-anchor="middle" x="478" y="-403.8" font-family="Times,serif" font-size="14.00">ClockService </text>
</g>
<!-- ClockModule -->
<g id="node14" class="node">
<title>ClockModule</title>
<polygon fill="#8dd3c7" stroke="black" points="524.49,-350 521.49,-354 500.49,-354 497.49,-350 431.51,-350 431.51,-314 524.49,-314 524.49,-350"/>
<text text-anchor="middle" x="478" y="-327.8" font-family="Times,serif" font-size="14.00">ClockModule</text>
</g>
<!-- ClockModule&#45;&gt;CoreModule -->
<g id="edge13" class="edge">
<title>ClockModule&#45;&gt;CoreModule</title>
<path fill="none" stroke="black" d="M524.53,-326C527.46,-326 529.26,-326 529.26,-326 529.26,-326 529.26,-408 529.26,-408 529.26,-408 1493.59,-408 1493.59,-408"/>
<polygon fill="black" stroke="black" points="1493.59,-411.5 1503.59,-408 1493.59,-404.5 1493.59,-411.5"/>
</g>
<!-- ClockModule&#45;&gt;ClockService  -->
<g id="edge11" class="edge">
<title>ClockModule&#45;&gt;ClockService </title>
<path fill="none" stroke="black" stroke-dasharray="5,2" d="M478,-350.01C478,-350.01 478,-379.85 478,-379.85"/>
<polygon fill="black" stroke="black" points="474.5,-379.85 478,-389.85 481.5,-379.85 474.5,-379.85"/>
</g>
<!-- ClockService -->
<g id="node15" class="node">
<title>ClockService</title>
<ellipse fill="#fdb462" stroke="black" cx="470" cy="-256" rx="63.12" ry="18"/>
<text text-anchor="middle" x="470" y="-251.8" font-family="Times,serif" font-size="14.00">ClockService</text>
</g>
<!-- ClockService&#45;&gt;ClockModule -->
<g id="edge12" class="edge">
<title>ClockService&#45;&gt;ClockModule</title>
<path fill="none" stroke="black" d="M478,-274.01C478,-274.01 478,-303.85 478,-303.85"/>
<polygon fill="black" stroke="black" points="474.5,-303.85 478,-313.85 481.5,-303.85 474.5,-303.85"/>
</g>
<!-- CsrfService -->
<g id="node18" class="node">
<title>CsrfService</title>
<ellipse fill="#fdb462" stroke="black" cx="2259" cy="-256" rx="56.73" ry="18"/>
<text text-anchor="middle" x="2259" y="-251.8" font-family="Times,serif" font-size="14.00">CsrfService</text>
</g>
<!-- CsrfService&#45;&gt;CsrfModule -->
<g id="edge16" class="edge">
<title>CsrfService&#45;&gt;CsrfModule</title>
<path fill="none" stroke="black" d="M2259,-237.89C2259,-228.1 2259,-218 2259,-218 2259,-218 1435.63,-218 1435.63,-218 1435.63,-218 1435.63,-208.11 1435.63,-208.11"/>
<polygon fill="black" stroke="black" points="1439.13,-208.11 1435.63,-198.11 1432.13,-208.11 1439.13,-208.11"/>
</g>
<!-- PostgresModule -->
<g id="node19" class="node">
<title>PostgresModule</title>
<polygon fill="#8dd3c7" stroke="black" points="789.49,-274 786.49,-278 765.49,-278 762.49,-274 682.51,-274 682.51,-238 789.49,-238 789.49,-274"/>
<text text-anchor="middle" x="736" y="-251.8" font-family="Times,serif" font-size="14.00">PostgresModule</text>
</g>
<!-- DatabasesModule -->
<g id="node21" class="node">
<title>DatabasesModule</title>
<polygon fill="#8dd3c7" stroke="black" points="794.29,-350 791.29,-354 770.29,-354 767.29,-350 677.71,-350 677.71,-314 794.29,-314 794.29,-350"/>
<text text-anchor="middle" x="736" y="-327.8" font-family="Times,serif" font-size="14.00">DatabasesModule</text>
</g>
<!-- PostgresModule&#45;&gt;DatabasesModule -->
<g id="edge17" class="edge">
<title>PostgresModule&#45;&gt;DatabasesModule</title>
<path fill="none" stroke="black" d="M736,-274.01C736,-274.01 736,-303.85 736,-303.85"/>
<polygon fill="black" stroke="black" points="732.5,-303.85 736,-313.85 739.5,-303.85 732.5,-303.85"/>
</g>
<!-- RedisModule -->
<g id="node20" class="node">
<title>RedisModule</title>
<polygon fill="#8dd3c7" stroke="black" points="664.94,-274 661.94,-278 640.94,-278 637.94,-274 573.06,-274 573.06,-238 664.94,-238 664.94,-274"/>
<text text-anchor="middle" x="619" y="-251.8" font-family="Times,serif" font-size="14.00">RedisModule</text>
</g>
<!-- RedisModule&#45;&gt;DatabasesModule -->
<g id="edge18" class="edge">
<title>RedisModule&#45;&gt;DatabasesModule</title>
<path fill="none" stroke="black" d="M619,-274.2C619,-298.36 619,-338 619,-338 619,-338 667.84,-338 667.84,-338"/>
<polygon fill="black" stroke="black" points="667.84,-341.5 677.84,-338 667.84,-334.5 667.84,-341.5"/>
</g>
<!-- RedisCounterService  -->
<g id="node33" class="node">
<title>RedisCounterService </title>
<polygon fill="#fb8072" stroke="black" points="836.47,-198 697.53,-198 697.53,-162 836.47,-162 836.47,-198"/>
<text text-anchor="middle" x="767" y="-175.8" font-family="Times,serif" font-size="14.00">RedisCounterService </text>
</g>
<!-- RedisModule&#45;&gt;RedisCounterService  -->
<g id="edge34" class="edge">
<title>RedisModule&#45;&gt;RedisCounterService </title>
<path fill="none" stroke="black" stroke-dasharray="5,2" d="M646.43,-237.88C646.43,-235.03 646.43,-233 646.43,-233 646.43,-233 743.63,-233 743.63,-233 743.63,-233 743.63,-208.24 743.63,-208.24"/>
<polygon fill="black" stroke="black" points="747.13,-208.24 743.63,-198.24 740.13,-208.24 747.13,-208.24"/>
</g>
<!-- RedisLockService  -->
<g id="node34" class="node">
<title>RedisLockService </title>
<polygon fill="#fb8072" stroke="black" points="680.13,-198 557.87,-198 557.87,-162 680.13,-162 680.13,-198"/>
<text text-anchor="middle" x="619" y="-175.8" font-family="Times,serif" font-size="14.00">RedisLockService </text>
</g>
<!-- RedisModule&#45;&gt;RedisLockService  -->
<g id="edge35" class="edge">
<title>RedisModule&#45;&gt;RedisLockService </title>
<path fill="none" stroke="black" stroke-dasharray="5,2" d="M628.14,-237.99C628.14,-237.99 628.14,-208.15 628.14,-208.15"/>
<polygon fill="black" stroke="black" points="631.64,-208.15 628.14,-198.15 624.64,-208.15 631.64,-208.15"/>
</g>
<!-- DatabasesModule&#45;&gt;InfrastructureModule -->
<g id="edge30" class="edge">
<title>DatabasesModule&#45;&gt;InfrastructureModule</title>
<path fill="none" stroke="black" d="M736,-350.05C736,-364.37 736,-382 736,-382 736,-382 1623.39,-382 1623.39,-382 1623.39,-382 1623.39,-382.79 1623.39,-382.79"/>
<polygon fill="black" stroke="black" points="1619.89,-379.94 1623.39,-389.94 1626.89,-379.94 1619.89,-379.94"/>
</g>
<!-- DeviceDetectorService -->
<g id="node24" class="node">
<title>DeviceDetectorService</title>
<ellipse fill="#fdb462" stroke="black" cx="1400" cy="-104" rx="100.66" ry="18"/>
<text text-anchor="middle" x="1400" y="-99.8" font-family="Times,serif" font-size="14.00">DeviceDetectorService</text>
</g>
<!-- DeviceDetectorService&#45;&gt;DeviceDetectionModule -->
<g id="edge21" class="edge">
<title>DeviceDetectorService&#45;&gt;DeviceDetectionModule</title>
<path fill="none" stroke="black" d="M1320.52,-115.21C1320.52,-115.21 1320.52,-151.96 1320.52,-151.96"/>
<polygon fill="black" stroke="black" points="1317.02,-151.96 1320.52,-161.96 1324.02,-151.96 1317.02,-151.96"/>
</g>
<!-- DeviceMapper -->
<g id="node25" class="node">
<title>DeviceMapper</title>
<ellipse fill="#fdb462" stroke="black" cx="1213" cy="-104" rx="68.32" ry="18"/>
<text text-anchor="middle" x="1213" y="-99.8" font-family="Times,serif" font-size="14.00">DeviceMapper</text>
</g>
<!-- DeviceMapper&#45;&gt;DeviceDetectionModule -->
<g id="edge22" class="edge">
<title>DeviceMapper&#45;&gt;DeviceDetectionModule</title>
<path fill="none" stroke="black" d="M1255.8,-118.3C1255.8,-118.3 1255.8,-151.73 1255.8,-151.73"/>
<polygon fill="black" stroke="black" points="1252.3,-151.73 1255.8,-161.73 1259.3,-151.73 1252.3,-151.73"/>
</g>
<!-- FingerprintService -->
<g id="node26" class="node">
<title>FingerprintService</title>
<ellipse fill="#fdb462" stroke="black" cx="1043" cy="-104" rx="83.38" ry="18"/>
<text text-anchor="middle" x="1043" y="-99.8" font-family="Times,serif" font-size="14.00">FingerprintService</text>
</g>
<!-- FingerprintService&#45;&gt;DeviceDetectionModule -->
<g id="edge23" class="edge">
<title>FingerprintService&#45;&gt;DeviceDetectionModule</title>
<path fill="none" stroke="black" d="M1107.07,-115.67C1107.07,-134.87 1107.07,-171 1107.07,-171 1107.07,-171 1220.27,-171 1220.27,-171"/>
<polygon fill="black" stroke="black" points="1220.27,-174.5 1230.27,-171 1220.27,-167.5 1220.27,-174.5"/>
</g>
<!-- UserAgentParser -->
<g id="node27" class="node">
<title>UserAgentParser</title>
<ellipse fill="#fdb462" stroke="black" cx="865" cy="-104" rx="76.98" ry="18"/>
<text text-anchor="middle" x="865" y="-99.8" font-family="Times,serif" font-size="14.00">UserAgentParser</text>
</g>
<!-- UserAgentParser&#45;&gt;DeviceDetectionModule -->
<g id="edge24" class="edge">
<title>UserAgentParser&#45;&gt;DeviceDetectionModule</title>
<path fill="none" stroke="black" d="M935.21,-111.57C935.21,-130.79 935.21,-180 935.21,-180 935.21,-180 1219.96,-180 1219.96,-180"/>
<polygon fill="black" stroke="black" points="1219.96,-183.5 1229.96,-180 1219.96,-176.5 1219.96,-183.5"/>
</g>
<!-- SecurityModule&#45;&gt;FeaturesModule -->
<g id="edge26" class="edge">
<title>SecurityModule&#45;&gt;FeaturesModule</title>
<path fill="none" stroke="black" d="M1832.7,-350.01C1832.7,-350.01 1832.7,-379.85 1832.7,-379.85"/>
<polygon fill="black" stroke="black" points="1829.2,-379.85 1832.7,-389.85 1836.2,-379.85 1829.2,-379.85"/>
</g>
<!-- DeviceDetectionModule  -->
<g id="node38" class="node">
<title>DeviceDetectionModule </title>
<polygon fill="#fb8072" stroke="black" points="2057.61,-274 1900.39,-274 1900.39,-238 2057.61,-238 2057.61,-274"/>
<text text-anchor="middle" x="1979" y="-251.8" font-family="Times,serif" font-size="14.00">DeviceDetectionModule </text>
</g>
<!-- SecurityModule&#45;&gt;DeviceDetectionModule  -->
<g id="edge43" class="edge">
<title>SecurityModule&#45;&gt;DeviceDetectionModule </title>
<path fill="none" stroke="black" stroke-dasharray="5,2" d="M1868.12,-332C1887.2,-332 1904.1,-332 1904.1,-332 1904.1,-332 1904.1,-284.01 1904.1,-284.01"/>
<polygon fill="black" stroke="black" points="1907.6,-284.01 1904.1,-274.01 1900.6,-284.01 1907.6,-284.01"/>
</g>
<!-- EnvModule -->
<g id="node29" class="node">
<title>EnvModule</title>
<polygon fill="#8dd3c7" stroke="black" points="2232.1,-350 2229.1,-354 2208.1,-354 2205.1,-350 2149.9,-350 2149.9,-314 2232.1,-314 2232.1,-350"/>
<text text-anchor="middle" x="2191" y="-327.8" font-family="Times,serif" font-size="14.00">EnvModule</text>
</g>
<!-- EnvModule&#45;&gt;InfrastructureModule -->
<g id="edge31" class="edge">
<title>EnvModule&#45;&gt;InfrastructureModule</title>
<path fill="none" stroke="black" d="M2191,-350.19C2191,-358.28 2191,-366 2191,-366 2191,-366 1736.48,-366 1736.48,-366 1736.48,-366 1736.48,-379.94 1736.48,-379.94"/>
<polygon fill="black" stroke="black" points="1732.98,-379.94 1736.48,-389.94 1739.98,-379.94 1732.98,-379.94"/>
</g>
<!-- DataResponseInterceptor -->
<g id="node30" class="node">
<title>DataResponseInterceptor</title>
<ellipse fill="#fdb462" stroke="black" cx="2017" cy="-332" rx="108.77" ry="18"/>
<text text-anchor="middle" x="2017" y="-327.8" font-family="Times,serif" font-size="14.00">DataResponseInterceptor</text>
</g>
<!-- DataResponseInterceptor&#45;&gt;InfrastructureModule -->
<g id="edge32" class="edge">
<title>DataResponseInterceptor&#45;&gt;InfrastructureModule</title>
<path fill="none" stroke="black" d="M1972.29,-348.61C1972.29,-353.71 1972.29,-358 1972.29,-358 1972.29,-358 1729.09,-358 1729.09,-358 1729.09,-358 1729.09,-379.95 1729.09,-379.95"/>
<polygon fill="black" stroke="black" points="1725.59,-379.95 1729.09,-389.95 1732.59,-379.95 1725.59,-379.95"/>
</g>
<!-- RateLimitService -->
<g id="node31" class="node">
<title>RateLimitService</title>
<ellipse fill="#fdb462" stroke="black" cx="3147" cy="-180" rx="79.3" ry="18"/>
<text text-anchor="middle" x="3147" y="-175.8" font-family="Times,serif" font-size="14.00">RateLimitService</text>
</g>
<!-- RateLimitModule -->
<g id="node32" class="node">
<title>RateLimitModule</title>
<polygon fill="#8dd3c7" stroke="black" points="3190.32,-274 3187.32,-278 3166.32,-278 3163.32,-274 3073.68,-274 3073.68,-238 3190.32,-238 3190.32,-274"/>
<text text-anchor="middle" x="3132" y="-251.8" font-family="Times,serif" font-size="14.00">RateLimitModule</text>
</g>
<!-- RateLimitService&#45;&gt;RateLimitModule -->
<g id="edge33" class="edge">
<title>RateLimitService&#45;&gt;RateLimitModule</title>
<path fill="none" stroke="black" d="M3132,-198.01C3132,-198.01 3132,-227.85 3132,-227.85"/>
<polygon fill="black" stroke="black" points="3128.5,-227.85 3132,-237.85 3135.5,-227.85 3128.5,-227.85"/>
</g>
<!-- RateLimitModule&#45;&gt;SecurityModule -->
<g id="edge41" class="edge">
<title>RateLimitModule&#45;&gt;SecurityModule</title>
<path fill="none" stroke="black" d="M3132,-274.21C3132,-279.55 3132,-284 3132,-284 3132,-284 1832.86,-284 1832.86,-284 1832.86,-284 1832.86,-303.85 1832.86,-303.85"/>
<polygon fill="black" stroke="black" points="1829.36,-303.85 1832.86,-313.85 1836.36,-303.85 1829.36,-303.85"/>
</g>
<!-- RedisCounterService -->
<g id="node35" class="node">
<title>RedisCounterService</title>
<ellipse fill="#fdb462" stroke="black" cx="117" cy="-180" rx="93.19" ry="18"/>
<text text-anchor="middle" x="117" y="-175.8" font-family="Times,serif" font-size="14.00">RedisCounterService</text>
</g>
<!-- RedisCounterService&#45;&gt;RedisModule -->
<g id="edge36" class="edge">
<title>RedisCounterService&#45;&gt;RedisModule</title>
<path fill="none" stroke="black" d="M117,-198.15C117,-211.74 117,-228 117,-228 117,-228 591.57,-228 591.57,-228 591.57,-228 591.57,-228.98 591.57,-228.98"/>
<polygon fill="black" stroke="black" points="588.07,-227.79 591.57,-237.79 595.07,-227.79 588.07,-227.79"/>
</g>
<!-- RedisLockService -->
<g id="node36" class="node">
<title>RedisLockService</title>
<ellipse fill="#fdb462" stroke="black" cx="452" cy="-180" rx="81.66" ry="18"/>
<text text-anchor="middle" x="452" y="-175.8" font-family="Times,serif" font-size="14.00">RedisLockService</text>
</g>
<!-- RedisLockService&#45;&gt;RedisModule -->
<g id="edge37" class="edge">
<title>RedisLockService&#45;&gt;RedisModule</title>
<path fill="none" stroke="black" d="M533.99,-180C541.23,-180 545.88,-180 545.88,-180 545.88,-180 545.88,-256 545.88,-256 545.88,-256 563.11,-256 563.11,-256"/>
<polygon fill="black" stroke="black" points="563.11,-259.5 573.11,-256 563.11,-252.5 563.11,-259.5"/>
</g>
<!-- RedisService -->
<g id="node37" class="node">
<title>RedisService</title>
<ellipse fill="#fdb462" stroke="black" cx="290" cy="-180" rx="61.97" ry="18"/>
<text text-anchor="middle" x="290" y="-175.8" font-family="Times,serif" font-size="14.00">RedisService</text>
</g>
<!-- RedisService&#45;&gt;RedisModule -->
<g id="edge38" class="edge">
<title>RedisService&#45;&gt;RedisModule</title>
<path fill="none" stroke="black" d="M290,-198.49C290,-210.14 290,-223 290,-223 290,-223 609.86,-223 609.86,-223 609.86,-223 609.86,-227.96 609.86,-227.96"/>
<polygon fill="black" stroke="black" points="606.36,-227.96 609.86,-237.96 613.36,-227.96 606.36,-227.96"/>
</g>
<!-- JwtStrategy -->
<g id="node39" class="node">
<title>JwtStrategy</title>
<ellipse fill="#fdb462" stroke="black" cx="1819" cy="-256" rx="56.76" ry="18"/>
<text text-anchor="middle" x="1819" y="-251.8" font-family="Times,serif" font-size="14.00">JwtStrategy</text>
</g>
<!-- JwtStrategy&#45;&gt;SecurityModule -->
<g id="edge44" class="edge">
<title>JwtStrategy&#45;&gt;SecurityModule</title>
<path fill="none" stroke="black" d="M1797.62,-272.87C1797.62,-272.87 1797.62,-303.85 1797.62,-303.85"/>
<polygon fill="black" stroke="black" points="1794.12,-303.85 1797.62,-313.85 1801.12,-303.85 1794.12,-303.85"/>
</g>
<!-- SessionsService -->
<g id="node41" class="node">
<title>SessionsService</title>
<ellipse fill="#fdb462" stroke="black" cx="2539" cy="-256" rx="73.01" ry="18"/>
<text text-anchor="middle" x="2539" y="-251.8" font-family="Times,serif" font-size="14.00">SessionsService</text>
</g>
<!-- SessionsService&#45;&gt;SessionsModule -->
<g id="edge46" class="edge">
<title>SessionsService&#45;&gt;SessionsModule</title>
<path fill="none" stroke="black" d="M2539,-237.85C2539,-224.26 2539,-208 2539,-208 2539,-208 1597.36,-208 1597.36,-208 1597.36,-208 1597.36,-207.02 1597.36,-207.02"/>
<polygon fill="black" stroke="black" points="1600.86,-208.21 1597.36,-198.21 1593.86,-208.21 1600.86,-208.21"/>
</g>
<!-- TokenService -->
<g id="node43" class="node">
<title>TokenService</title>
<ellipse fill="#fdb462" stroke="black" cx="2337" cy="-332" rx="64.83" ry="18"/>
<text text-anchor="middle" x="2337" y="-327.8" font-family="Times,serif" font-size="14.00">TokenService</text>
</g>
<!-- TokenService&#45;&gt;TokenModule -->
<g id="edge50" class="edge">
<title>TokenService&#45;&gt;TokenModule</title>
<path fill="none" stroke="black" d="M2293.98,-318.33C2293.98,-311.22 2293.98,-304 2293.98,-304 2293.98,-304 1653.9,-304 1653.9,-304 1653.9,-304 1653.9,-284.15 1653.9,-284.15"/>
<polygon fill="black" stroke="black" points="1657.4,-284.15 1653.9,-274.15 1650.4,-284.15 1657.4,-284.15"/>
</g>
<!-- UsersService -->
<g id="node45" class="node">
<title>UsersService</title>
<ellipse fill="#fdb462" stroke="black" cx="2848" cy="-256" rx="61.95" ry="18"/>
<text text-anchor="middle" x="2848" y="-251.8" font-family="Times,serif" font-size="14.00">UsersService</text>
</g>
<!-- UsersService&#45;&gt;UsersModule -->
<g id="edge52" class="edge">
<title>UsersService&#45;&gt;UsersModule</title>
<path fill="none" stroke="black" d="M2848,-237.99C2848,-215.51 2848,-180 2848,-180 2848,-180 1731.94,-180 1731.94,-180"/>
<polygon fill="black" stroke="black" points="1731.94,-176.5 1721.94,-180 1731.94,-183.5 1731.94,-176.5"/>
</g>
</g>
</svg>
