<?xml version="1.0" encoding="UTF-8" standalone="no"?>
<!DOCTYPE svg PUBLIC "-//W3C//DTD SVG 1.1//EN"
 "http://www.w3.org/Graphics/SVG/1.1/DTD/svg11.dtd">
<!-- Generated by graphviz version 2.47.0 (20210316.0004)
 -->
<!-- Title: dependencies Pages: 1 -->
<svg width="2449pt" height="534pt"
 viewBox="0.00 0.00 2449.00 534.00" xmlns="http://www.w3.org/2000/svg" xmlns:xlink="http://www.w3.org/1999/xlink">
<g id="graph0" class="graph" transform="scale(1 1) rotate(0) translate(4 530)">
<title>dependencies</title>
<polygon fill="white" stroke="transparent" points="-4,4 -4,-530 2445,-530 2445,4 -4,4"/>
<text text-anchor="start" x="1199.51" y="-42.4" font-family="Times-12" font-weight="bold" font-size="14.00">Legend</text>
<polygon fill="#ffffb3" stroke="transparent" points="986.5,-10 986.5,-30 1006.5,-30 1006.5,-10 986.5,-10"/>
<text text-anchor="start" x="1010.13" y="-15.4" font-family="Times-12" font-size="14.00"> &#160;Declarations</text>
<polygon fill="#8dd3c7" stroke="transparent" points="1099.5,-10 1099.5,-30 1119.5,-30 1119.5,-10 1099.5,-10"/>
<text text-anchor="start" x="1123.23" y="-15.4" font-family="Times-12" font-size="14.00"> &#160;Module</text>
<polygon fill="#80b1d3" stroke="transparent" points="1185.5,-10 1185.5,-30 1205.5,-30 1205.5,-10 1185.5,-10"/>
<text text-anchor="start" x="1209.28" y="-15.4" font-family="Times-12" font-size="14.00"> &#160;Bootstrap</text>
<polygon fill="#fdb462" stroke="transparent" points="1282.5,-10 1282.5,-30 1302.5,-30 1302.5,-10 1282.5,-10"/>
<text text-anchor="start" x="1306.17" y="-15.4" font-family="Times-12" font-size="14.00"> &#160;Providers</text>
<polygon fill="#fb8072" stroke="transparent" points="1378.5,-10 1378.5,-30 1398.5,-30 1398.5,-10 1378.5,-10"/>
<text text-anchor="start" x="1402.23" y="-15.4" font-family="Times-12" font-size="14.00"> &#160;Exports</text>
<g id="clust1" class="cluster">
<title>cluster_AppModule</title>
<polygon fill="none" stroke="black" stroke-dasharray="1,5" points="1155,-374 1155,-510 1551,-510 1551,-374 1155,-374"/>
</g>
<g id="clust3" class="cluster">
<title>cluster_AppModule_imports</title>
<polygon fill="none" stroke="black" points="1163,-382 1163,-434 1543,-434 1543,-382 1163,-382"/>
</g>
<g id="clust7" class="cluster">
<title>cluster_AuthModule</title>
<polygon fill="none" stroke="black" stroke-dasharray="1,5" points="476,-146 476,-358 1145,-358 1145,-146 476,-146"/>
</g>
<g id="clust9" class="cluster">
<title>cluster_AuthModule_imports</title>
<polygon fill="none" stroke="black" points="484,-154 484,-282 835,-282 835,-154 484,-154"/>
</g>
<g id="clust12" class="cluster">
<title>cluster_AuthModule_providers</title>
<polygon fill="none" stroke="black" points="843,-230 843,-282 1137,-282 1137,-230 843,-230"/>
</g>
<g id="clust13" class="cluster">
<title>cluster_ClockModule</title>
<polygon fill="none" stroke="black" stroke-dasharray="1,5" points="2275,-222 2275,-442 2433,-442 2433,-222 2275,-222"/>
</g>
<g id="clust16" class="cluster">
<title>cluster_ClockModule_exports</title>
<polygon fill="none" stroke="black" points="2291,-382 2291,-434 2401,-434 2401,-382 2291,-382"/>
</g>
<g id="clust18" class="cluster">
<title>cluster_ClockModule_providers</title>
<polygon fill="none" stroke="black" points="2283,-230 2283,-282 2425,-282 2425,-230 2283,-230"/>
</g>
<g id="clust19" class="cluster">
<title>cluster_CommonModule</title>
<polygon fill="none" stroke="black" stroke-dasharray="1,5" points="1655,-222 1655,-358 2011,-358 2011,-222 1655,-222"/>
</g>
<g id="clust21" class="cluster">
<title>cluster_CommonModule_imports</title>
<polygon fill="none" stroke="black" points="1905,-230 1905,-282 2003,-282 2003,-230 1905,-230"/>
</g>
<g id="clust24" class="cluster">
<title>cluster_CommonModule_providers</title>
<polygon fill="none" stroke="black" points="1663,-230 1663,-282 1897,-282 1897,-230 1663,-230"/>
</g>
<g id="clust25" class="cluster">
<title>cluster_CoreModule</title>
<polygon fill="none" stroke="black" stroke-dasharray="1,5" points="1559,-450 1559,-518 1808,-518 1808,-450 1559,-450"/>
</g>
<g id="clust28" class="cluster">
<title>cluster_CoreModule_exports</title>
<polygon fill="none" stroke="black" points="1567,-458 1567,-510 1800,-510 1800,-458 1567,-458"/>
</g>
<g id="clust31" class="cluster">
<title>cluster_DatabasesModule</title>
<polygon fill="none" stroke="black" stroke-dasharray="1,5" points="2019,-222 2019,-358 2267,-358 2267,-222 2019,-222"/>
</g>
<g id="clust33" class="cluster">
<title>cluster_DatabasesModule_imports</title>
<polygon fill="none" stroke="black" points="2027,-230 2027,-282 2259,-282 2259,-230 2027,-230"/>
</g>
<g id="clust37" class="cluster">
<title>cluster_DeviceModule</title>
<polygon fill="none" stroke="black" stroke-dasharray="1,5" points="8,-70 8,-138 1047,-138 1047,-70 8,-70"/>
</g>
<g id="clust40" class="cluster">
<title>cluster_DeviceModule_exports</title>
<polygon fill="none" stroke="black" points="753,-78 753,-130 1039,-130 1039,-78 753,-78"/>
</g>
<g id="clust42" class="cluster">
<title>cluster_DeviceModule_providers</title>
<polygon fill="none" stroke="black" points="16,-78 16,-130 745,-130 745,-78 16,-78"/>
</g>
<g id="clust49" class="cluster">
<title>cluster_FeaturesModule</title>
<polygon fill="none" stroke="black" stroke-dasharray="1,5" points="1155,-298 1155,-366 1293,-366 1293,-298 1155,-298"/>
</g>
<g id="clust51" class="cluster">
<title>cluster_FeaturesModule_imports</title>
<polygon fill="none" stroke="black" points="1163,-306 1163,-358 1285,-358 1285,-306 1163,-306"/>
</g>
<g id="clust67" class="cluster">
<title>cluster_RedisModule</title>
<polygon fill="none" stroke="black" stroke-dasharray="1,5" points="1841,-146 1841,-214 2325,-214 2325,-146 1841,-146"/>
</g>
<g id="clust70" class="cluster">
<title>cluster_RedisModule_exports</title>
<polygon fill="none" stroke="black" points="2179,-154 2179,-206 2317,-206 2317,-154 2179,-154"/>
</g>
<g id="clust72" class="cluster">
<title>cluster_RedisModule_providers</title>
<polygon fill="none" stroke="black" points="1849,-154 1849,-206 2171,-206 2171,-154 1849,-154"/>
</g>
<g id="clust73" class="cluster">
<title>cluster_SecurityModule</title>
<polygon fill="none" stroke="black" stroke-dasharray="1,5" points="1153,-222 1153,-290 1299,-290 1299,-222 1153,-222"/>
</g>
<g id="clust78" class="cluster">
<title>cluster_SecurityModule_providers</title>
<polygon fill="none" stroke="black" points="1161,-230 1161,-282 1291,-282 1291,-230 1161,-230"/>
</g>
<g id="clust79" class="cluster">
<title>cluster_SessionsModule</title>
<polygon fill="none" stroke="black" stroke-dasharray="1,5" points="1335,-222 1335,-290 1647,-290 1647,-222 1335,-222"/>
</g>
<g id="clust82" class="cluster">
<title>cluster_SessionsModule_exports</title>
<polygon fill="none" stroke="black" points="1513,-230 1513,-282 1639,-282 1639,-230 1513,-230"/>
</g>
<g id="clust84" class="cluster">
<title>cluster_SessionsModule_providers</title>
<polygon fill="none" stroke="black" points="1343,-230 1343,-282 1505,-282 1505,-230 1343,-230"/>
</g>
<g id="clust85" class="cluster">
<title>cluster_TokenModule</title>
<polygon fill="none" stroke="black" stroke-dasharray="1,5" points="184,-298 184,-366 468,-366 468,-298 184,-298"/>
</g>
<g id="clust88" class="cluster">
<title>cluster_TokenModule_exports</title>
<polygon fill="none" stroke="black" points="346,-306 346,-358 460,-358 460,-306 346,-306"/>
</g>
<g id="clust90" class="cluster">
<title>cluster_TokenModule_providers</title>
<polygon fill="none" stroke="black" points="192,-306 192,-358 338,-358 338,-306 192,-306"/>
</g>
<g id="clust91" class="cluster">
<title>cluster_UsersModule</title>
<polygon fill="none" stroke="black" stroke-dasharray="1,5" points="194,-222 194,-290 468,-290 468,-222 194,-222"/>
</g>
<g id="clust94" class="cluster">
<title>cluster_UsersModule_exports</title>
<polygon fill="none" stroke="black" points="350,-230 350,-282 460,-282 460,-230 350,-230"/>
</g>
<g id="clust96" class="cluster">
<title>cluster_UsersModule_providers</title>
<polygon fill="none" stroke="black" points="202,-230 202,-282 342,-282 342,-230 202,-230"/>
</g>
<!-- CoreModule -->
<g id="node1" class="node">
<title>CoreModule</title>
<polygon fill="#8dd3c7" stroke="black" points="1535.26,-426 1532.26,-430 1511.26,-430 1508.26,-426 1448.74,-426 1448.74,-390 1535.26,-390 1535.26,-426"/>
<text text-anchor="middle" x="1492" y="-403.8" font-family="Times,serif" font-size="14.00">CoreModule</text>
</g>
<!-- AppModule -->
<g id="node4" class="node">
<title>AppModule</title>
<polygon fill="#8dd3c7" stroke="black" points="1404.66,-502 1401.66,-506 1380.66,-506 1377.66,-502 1321.34,-502 1321.34,-466 1404.66,-466 1404.66,-502"/>
<text text-anchor="middle" x="1363" y="-479.8" font-family="Times,serif" font-size="14.00">AppModule</text>
</g>
<!-- CoreModule&#45;&gt;AppModule -->
<g id="edge1" class="edge">
<title>CoreModule&#45;&gt;AppModule</title>
<path fill="none" stroke="black" d="M1492,-426.01C1492,-448.49 1492,-484 1492,-484 1492,-484 1414.88,-484 1414.88,-484"/>
<polygon fill="black" stroke="black" points="1414.88,-480.5 1404.88,-484 1414.88,-487.5 1414.88,-480.5"/>
</g>
<!-- ClockModule  -->
<g id="node18" class="node">
<title>ClockModule </title>
<polygon fill="#fb8072" stroke="black" points="1671.49,-502 1574.51,-502 1574.51,-466 1671.49,-466 1671.49,-502"/>
<text text-anchor="middle" x="1623" y="-479.8" font-family="Times,serif" font-size="14.00">ClockModule </text>
</g>
<!-- CoreModule&#45;&gt;ClockModule  -->
<g id="edge17" class="edge">
<title>CoreModule&#45;&gt;ClockModule </title>
<path fill="none" stroke="black" stroke-dasharray="5,2" d="M1535.47,-417C1566.52,-417 1602.8,-417 1602.8,-417 1602.8,-417 1602.8,-455.69 1602.8,-455.69"/>
<polygon fill="black" stroke="black" points="1599.3,-455.69 1602.8,-465.69 1606.3,-455.69 1599.3,-455.69"/>
</g>
<!-- DeviceModule  -->
<g id="node19" class="node">
<title>DeviceModule </title>
<polygon fill="#fb8072" stroke="black" points="1792.19,-502 1689.81,-502 1689.81,-466 1792.19,-466 1792.19,-502"/>
<text text-anchor="middle" x="1741" y="-479.8" font-family="Times,serif" font-size="14.00">DeviceModule </text>
</g>
<!-- CoreModule&#45;&gt;DeviceModule  -->
<g id="edge18" class="edge">
<title>CoreModule&#45;&gt;DeviceModule </title>
<path fill="none" stroke="black" stroke-dasharray="5,2" d="M1535.49,-408C1598.29,-408 1706.91,-408 1706.91,-408 1706.91,-408 1706.91,-455.99 1706.91,-455.99"/>
<polygon fill="black" stroke="black" points="1703.41,-455.99 1706.91,-465.99 1710.41,-455.99 1703.41,-455.99"/>
</g>
<!-- FeaturesModule -->
<g id="node2" class="node">
<title>FeaturesModule</title>
<polygon fill="#8dd3c7" stroke="black" points="1277.47,-426 1274.47,-430 1253.47,-430 1250.47,-426 1170.53,-426 1170.53,-390 1277.47,-390 1277.47,-426"/>
<text text-anchor="middle" x="1224" y="-403.8" font-family="Times,serif" font-size="14.00">FeaturesModule</text>
</g>
<!-- FeaturesModule&#45;&gt;AppModule -->
<g id="edge2" class="edge">
<title>FeaturesModule&#45;&gt;AppModule</title>
<path fill="none" stroke="black" d="M1224,-426.01C1224,-448.49 1224,-484 1224,-484 1224,-484 1311.3,-484 1311.3,-484"/>
<polygon fill="black" stroke="black" points="1311.3,-487.5 1321.3,-484 1311.3,-480.5 1311.3,-487.5"/>
</g>
<!-- InfrastructureModule -->
<g id="node3" class="node">
<title>InfrastructureModule</title>
<polygon fill="#8dd3c7" stroke="black" points="1430.72,-426 1427.72,-430 1406.72,-430 1403.72,-426 1295.28,-426 1295.28,-390 1430.72,-390 1430.72,-426"/>
<text text-anchor="middle" x="1363" y="-403.8" font-family="Times,serif" font-size="14.00">InfrastructureModule</text>
</g>
<!-- InfrastructureModule&#45;&gt;AppModule -->
<g id="edge3" class="edge">
<title>InfrastructureModule&#45;&gt;AppModule</title>
<path fill="none" stroke="black" d="M1363,-426.01C1363,-426.01 1363,-455.85 1363,-455.85"/>
<polygon fill="black" stroke="black" points="1359.5,-455.85 1363,-465.85 1366.5,-455.85 1359.5,-455.85"/>
</g>
<!-- DeviceModule -->
<g id="node5" class="node">
<title>DeviceModule</title>
<polygon fill="#8dd3c7" stroke="black" points="591.69,-198 588.69,-202 567.69,-202 564.69,-198 492.31,-198 492.31,-162 591.69,-162 591.69,-198"/>
<text text-anchor="middle" x="542" y="-175.8" font-family="Times,serif" font-size="14.00">DeviceModule</text>
</g>
<!-- DeviceModule&#45;&gt;CoreModule -->
<g id="edge16" class="edge">
<title>DeviceModule&#45;&gt;CoreModule</title>
<path fill="none" stroke="black" d="M558.53,-198.32C558.53,-229.13 558.53,-288 558.53,-288 558.53,-288 1472.94,-288 1472.94,-288 1472.94,-288 1472.94,-379.77 1472.94,-379.77"/>
<polygon fill="black" stroke="black" points="1469.44,-379.77 1472.94,-389.77 1476.44,-379.77 1469.44,-379.77"/>
</g>
<!-- AuthModule -->
<g id="node9" class="node">
<title>AuthModule</title>
<polygon fill="#8dd3c7" stroke="black" points="816.55,-350 813.55,-354 792.55,-354 789.55,-350 729.45,-350 729.45,-314 816.55,-314 816.55,-350"/>
<text text-anchor="middle" x="773" y="-327.8" font-family="Times,serif" font-size="14.00">AuthModule</text>
</g>
<!-- DeviceModule&#45;&gt;AuthModule -->
<g id="edge4" class="edge">
<title>DeviceModule&#45;&gt;AuthModule</title>
<path fill="none" stroke="black" d="M525.47,-198.16C525.47,-240.26 525.47,-341 525.47,-341 525.47,-341 719.32,-341 719.32,-341"/>
<polygon fill="black" stroke="black" points="719.32,-344.5 729.32,-341 719.32,-337.5 719.32,-344.5"/>
</g>
<!-- DeviceDetectorService  -->
<g id="node23" class="node">
<title>DeviceDetectorService </title>
<polygon fill="#fb8072" stroke="black" points="1030.81,-122 881.19,-122 881.19,-86 1030.81,-86 1030.81,-122"/>
<text text-anchor="middle" x="956" y="-99.8" font-family="Times,serif" font-size="14.00">DeviceDetectorService </text>
</g>
<!-- DeviceModule&#45;&gt;DeviceDetectorService  -->
<g id="edge21" class="edge">
<title>DeviceModule&#45;&gt;DeviceDetectorService </title>
<path fill="none" stroke="black" stroke-dasharray="5,2" d="M577.55,-161.97C577.55,-155.15 577.55,-149 577.55,-149 577.55,-149 936.96,-149 936.96,-149 936.96,-149 936.96,-132.04 936.96,-132.04"/>
<polygon fill="black" stroke="black" points="940.46,-132.04 936.96,-122.04 933.46,-132.04 940.46,-132.04"/>
</g>
<!-- DeviceMapper  -->
<g id="node24" class="node">
<title>DeviceMapper </title>
<polygon fill="#fb8072" stroke="black" points="863.18,-122 760.82,-122 760.82,-86 863.18,-86 863.18,-122"/>
<text text-anchor="middle" x="812" y="-99.8" font-family="Times,serif" font-size="14.00">DeviceMapper </text>
</g>
<!-- DeviceModule&#45;&gt;DeviceMapper  -->
<g id="edge22" class="edge">
<title>DeviceModule&#45;&gt;DeviceMapper </title>
<path fill="none" stroke="black" stroke-dasharray="5,2" d="M563.51,-161.85C563.51,-149.73 563.51,-136 563.51,-136 563.51,-136 793.77,-136 793.77,-136 793.77,-136 793.77,-132.24 793.77,-132.24"/>
<polygon fill="black" stroke="black" points="797.27,-132.24 793.77,-122.24 790.27,-132.24 797.27,-132.24"/>
</g>
<!-- SessionsModule -->
<g id="node6" class="node">
<title>SessionsModule</title>
<polygon fill="#8dd3c7" stroke="black" points="826.77,-198 823.77,-202 802.77,-202 799.77,-198 719.23,-198 719.23,-162 826.77,-162 826.77,-198"/>
<text text-anchor="middle" x="773" y="-175.8" font-family="Times,serif" font-size="14.00">SessionsModule</text>
</g>
<!-- SessionsModule&#45;&gt;FeaturesModule -->
<g id="edge29" class="edge">
<title>SessionsModule&#45;&gt;FeaturesModule</title>
<path fill="none" stroke="black" d="M823.51,-198.21C823.51,-250.61 823.51,-398 823.51,-398 823.51,-398 1160.4,-398 1160.4,-398"/>
<polygon fill="black" stroke="black" points="1160.4,-401.5 1170.4,-398 1160.4,-394.5 1160.4,-401.5"/>
</g>
<!-- TokenModule -->
<g id="node7" class="node">
<title>TokenModule</title>
<polygon fill="#8dd3c7" stroke="black" points="702.82,-274 699.82,-278 678.82,-278 675.82,-274 607.18,-274 607.18,-238 702.82,-238 702.82,-274"/>
<text text-anchor="middle" x="655" y="-251.8" font-family="Times,serif" font-size="14.00">TokenModule</text>
</g>
<!-- SessionsModule&#45;&gt;TokenModule -->
<g id="edge40" class="edge">
<title>SessionsModule&#45;&gt;TokenModule</title>
<path fill="none" stroke="black" d="M724.17,-198.04C724.17,-219.66 724.17,-253 724.17,-253 724.17,-253 712.66,-253 712.66,-253"/>
<polygon fill="black" stroke="black" points="712.66,-249.5 702.66,-253 712.66,-256.5 712.66,-249.5"/>
</g>
<!-- SessionsModule&#45;&gt;AuthModule -->
<g id="edge5" class="edge">
<title>SessionsModule&#45;&gt;AuthModule</title>
<path fill="none" stroke="black" d="M773,-198.03C773,-198.03 773,-303.99 773,-303.99"/>
<polygon fill="black" stroke="black" points="769.5,-303.99 773,-313.99 776.5,-303.99 769.5,-303.99"/>
</g>
<!-- SessionsService  -->
<g id="node34" class="node">
<title>SessionsService </title>
<polygon fill="#fb8072" stroke="black" points="1630.7,-274 1521.3,-274 1521.3,-238 1630.7,-238 1630.7,-274"/>
<text text-anchor="middle" x="1576" y="-251.8" font-family="Times,serif" font-size="14.00">SessionsService </text>
</g>
<!-- SessionsModule&#45;&gt;SessionsService  -->
<g id="edge38" class="edge">
<title>SessionsModule&#45;&gt;SessionsService </title>
<path fill="none" stroke="black" stroke-dasharray="5,2" d="M826.93,-174C1006.98,-174 1576,-174 1576,-174 1576,-174 1576,-227.8 1576,-227.8"/>
<polygon fill="black" stroke="black" points="1572.5,-227.8 1576,-237.8 1579.5,-227.8 1572.5,-227.8"/>
</g>
<!-- TokenModule&#45;&gt;FeaturesModule -->
<g id="edge30" class="edge">
<title>TokenModule&#45;&gt;FeaturesModule</title>
<path fill="none" stroke="black" d="M678.83,-274.07C678.83,-316.51 678.83,-419 678.83,-419 678.83,-419 1160.23,-419 1160.23,-419"/>
<polygon fill="black" stroke="black" points="1160.23,-422.5 1170.23,-419 1160.23,-415.5 1160.23,-422.5"/>
</g>
<!-- TokenModule&#45;&gt;AuthModule -->
<g id="edge6" class="edge">
<title>TokenModule&#45;&gt;AuthModule</title>
<path fill="none" stroke="black" d="M702.78,-267C726.9,-267 751.11,-267 751.11,-267 751.11,-267 751.11,-303.89 751.11,-303.89"/>
<polygon fill="black" stroke="black" points="747.61,-303.89 751.11,-313.89 754.61,-303.89 747.61,-303.89"/>
</g>
<!-- SecurityModule -->
<g id="node29" class="node">
<title>SecurityModule</title>
<polygon fill="#8dd3c7" stroke="black" points="1277.2,-350 1274.2,-354 1253.2,-354 1250.2,-350 1170.8,-350 1170.8,-314 1277.2,-314 1277.2,-350"/>
<text text-anchor="middle" x="1224" y="-327.8" font-family="Times,serif" font-size="14.00">SecurityModule</text>
</g>
<!-- TokenModule&#45;&gt;SecurityModule -->
<g id="edge36" class="edge">
<title>TokenModule&#45;&gt;SecurityModule</title>
<path fill="none" stroke="black" d="M702.77,-260C751.54,-260 820.14,-260 820.14,-260 820.14,-260 820.14,-338 820.14,-338 820.14,-338 1160.79,-338 1160.79,-338"/>
<polygon fill="black" stroke="black" points="1160.79,-341.5 1170.79,-338 1160.79,-334.5 1160.79,-341.5"/>
</g>
<!-- TokenService  -->
<g id="node36" class="node">
<title>TokenService </title>
<polygon fill="#fb8072" stroke="black" points="451.75,-350 354.25,-350 354.25,-314 451.75,-314 451.75,-350"/>
<text text-anchor="middle" x="403" y="-327.8" font-family="Times,serif" font-size="14.00">TokenService </text>
</g>
<!-- TokenModule&#45;&gt;TokenService  -->
<g id="edge42" class="edge">
<title>TokenModule&#45;&gt;TokenService </title>
<path fill="none" stroke="black" stroke-dasharray="5,2" d="M655,-274.31C655,-294.15 655,-323 655,-323 655,-323 461.89,-323 461.89,-323"/>
<polygon fill="black" stroke="black" points="461.89,-319.5 451.89,-323 461.89,-326.5 461.89,-319.5"/>
</g>
<!-- UsersModule -->
<g id="node8" class="node">
<title>UsersModule</title>
<polygon fill="#8dd3c7" stroke="black" points="700.92,-198 697.92,-202 676.92,-202 673.92,-198 609.08,-198 609.08,-162 700.92,-162 700.92,-198"/>
<text text-anchor="middle" x="655" y="-175.8" font-family="Times,serif" font-size="14.00">UsersModule</text>
</g>
<!-- UsersModule&#45;&gt;FeaturesModule -->
<g id="edge31" class="edge">
<title>UsersModule&#45;&gt;FeaturesModule</title>
<path fill="none" stroke="black" d="M700.75,-186C705.22,-186 708.14,-186 708.14,-186 708.14,-186 708.14,-412 708.14,-412 708.14,-412 1160.25,-412 1160.25,-412"/>
<polygon fill="black" stroke="black" points="1160.25,-415.5 1170.25,-412 1160.25,-408.5 1160.25,-415.5"/>
</g>
<!-- UsersModule&#45;&gt;TokenModule -->
<g id="edge41" class="edge">
<title>UsersModule&#45;&gt;TokenModule</title>
<path fill="none" stroke="black" d="M670.24,-198.01C670.24,-198.01 670.24,-227.85 670.24,-227.85"/>
<polygon fill="black" stroke="black" points="666.74,-227.85 670.24,-237.85 673.74,-227.85 666.74,-227.85"/>
</g>
<!-- UsersModule&#45;&gt;AuthModule -->
<g id="edge7" class="edge">
<title>UsersModule&#45;&gt;AuthModule</title>
<path fill="none" stroke="black" d="M700.91,-174C708.32,-174 713.63,-174 713.63,-174 713.63,-174 713.63,-332 713.63,-332 713.63,-332 719.23,-332 719.23,-332"/>
<polygon fill="black" stroke="black" points="719.23,-335.5 729.23,-332 719.23,-328.5 719.23,-335.5"/>
</g>
<!-- UsersService  -->
<g id="node38" class="node">
<title>UsersService </title>
<polygon fill="#fb8072" stroke="black" points="451.85,-274 358.15,-274 358.15,-238 451.85,-238 451.85,-274"/>
<text text-anchor="middle" x="405" y="-251.8" font-family="Times,serif" font-size="14.00">UsersService </text>
</g>
<!-- UsersModule&#45;&gt;UsersService  -->
<g id="edge44" class="edge">
<title>UsersModule&#45;&gt;UsersService </title>
<path fill="none" stroke="black" stroke-dasharray="5,2" d="M609.14,-180C603.39,-180 599.47,-180 599.47,-180 599.47,-180 599.47,-256 599.47,-256 599.47,-256 462.08,-256 462.08,-256"/>
<polygon fill="black" stroke="black" points="462.08,-252.5 452.08,-256 462.08,-259.5 462.08,-252.5"/>
</g>
<!-- AuthModule&#45;&gt;FeaturesModule -->
<g id="edge27" class="edge">
<title>AuthModule&#45;&gt;FeaturesModule</title>
<path fill="none" stroke="black" d="M773,-350.04C773,-371.66 773,-405 773,-405 773,-405 1160.49,-405 1160.49,-405"/>
<polygon fill="black" stroke="black" points="1160.49,-408.5 1170.49,-405 1160.49,-401.5 1160.49,-408.5"/>
</g>
<!-- AuthService -->
<g id="node10" class="node">
<title>AuthService</title>
<ellipse fill="#fdb462" stroke="black" cx="1070" cy="-256" rx="59.11" ry="18"/>
<text text-anchor="middle" x="1070" y="-251.8" font-family="Times,serif" font-size="14.00">AuthService</text>
</g>
<!-- AuthService&#45;&gt;AuthModule -->
<g id="edge8" class="edge">
<title>AuthService&#45;&gt;AuthModule</title>
<path fill="none" stroke="black" d="M1070,-274.03C1070,-294.77 1070,-326 1070,-326 1070,-326 826.82,-326 826.82,-326"/>
<polygon fill="black" stroke="black" points="826.82,-322.5 816.82,-326 826.82,-329.5 826.82,-322.5"/>
</g>
<!-- BcryptProvider -->
<g id="node11" class="node">
<title>BcryptProvider</title>
<ellipse fill="#fdb462" stroke="black" cx="922" cy="-256" rx="70.65" ry="18"/>
<text text-anchor="middle" x="922" y="-251.8" font-family="Times,serif" font-size="14.00">BcryptProvider</text>
</g>
<!-- BcryptProvider&#45;&gt;AuthModule -->
<g id="edge9" class="edge">
<title>BcryptProvider&#45;&gt;AuthModule</title>
<path fill="none" stroke="black" d="M863.28,-246C829.97,-246 794.89,-246 794.89,-246 794.89,-246 794.89,-303.76 794.89,-303.76"/>
<polygon fill="black" stroke="black" points="791.39,-303.76 794.89,-313.76 798.39,-303.76 791.39,-303.76"/>
</g>
<!-- ClockService  -->
<g id="node12" class="node">
<title>ClockService </title>
<polygon fill="#fb8072" stroke="black" points="2393.42,-426 2298.58,-426 2298.58,-390 2393.42,-390 2393.42,-426"/>
<text text-anchor="middle" x="2346" y="-403.8" font-family="Times,serif" font-size="14.00">ClockService </text>
</g>
<!-- ClockModule -->
<g id="node13" class="node">
<title>ClockModule</title>
<polygon fill="#8dd3c7" stroke="black" points="2392.49,-350 2389.49,-354 2368.49,-354 2365.49,-350 2299.51,-350 2299.51,-314 2392.49,-314 2392.49,-350"/>
<text text-anchor="middle" x="2346" y="-327.8" font-family="Times,serif" font-size="14.00">ClockModule</text>
</g>
<!-- ClockModule&#45;&gt;CoreModule -->
<g id="edge14" class="edge">
<title>ClockModule&#45;&gt;CoreModule</title>
<path fill="none" stroke="black" d="M2299.47,-332C2296.54,-332 2294.74,-332 2294.74,-332 2294.74,-332 2294.74,-399 2294.74,-399 2294.74,-399 1545.44,-399 1545.44,-399"/>
<polygon fill="black" stroke="black" points="1545.44,-395.5 1535.44,-399 1545.44,-402.5 1545.44,-395.5"/>
</g>
<!-- ClockModule&#45;&gt;ClockService  -->
<g id="edge10" class="edge">
<title>ClockModule&#45;&gt;ClockService </title>
<path fill="none" stroke="black" stroke-dasharray="5,2" d="M2346,-350.01C2346,-350.01 2346,-379.85 2346,-379.85"/>
<polygon fill="black" stroke="black" points="2342.5,-379.85 2346,-389.85 2349.5,-379.85 2342.5,-379.85"/>
</g>
<!-- ClockService -->
<g id="node14" class="node">
<title>ClockService</title>
<ellipse fill="#fdb462" stroke="black" cx="2354" cy="-256" rx="63.12" ry="18"/>
<text text-anchor="middle" x="2354" y="-251.8" font-family="Times,serif" font-size="14.00">ClockService</text>
</g>
<!-- ClockService&#45;&gt;ClockModule -->
<g id="edge11" class="edge">
<title>ClockService&#45;&gt;ClockModule</title>
<path fill="none" stroke="black" d="M2346,-274.01C2346,-274.01 2346,-303.85 2346,-303.85"/>
<polygon fill="black" stroke="black" points="2342.5,-303.85 2346,-313.85 2349.5,-303.85 2342.5,-303.85"/>
</g>
<!-- EnvModule -->
<g id="node15" class="node">
<title>EnvModule</title>
<polygon fill="#8dd3c7" stroke="black" points="1995.1,-274 1992.1,-278 1971.1,-278 1968.1,-274 1912.9,-274 1912.9,-238 1995.1,-238 1995.1,-274"/>
<text text-anchor="middle" x="1954" y="-251.8" font-family="Times,serif" font-size="14.00">EnvModule</text>
</g>
<!-- CommonModule -->
<g id="node16" class="node">
<title>CommonModule</title>
<polygon fill="#8dd3c7" stroke="black" points="1835.67,-350 1832.67,-354 1811.67,-354 1808.67,-350 1724.33,-350 1724.33,-314 1835.67,-314 1835.67,-350"/>
<text text-anchor="middle" x="1780" y="-327.8" font-family="Times,serif" font-size="14.00">CommonModule</text>
</g>
<!-- EnvModule&#45;&gt;CommonModule -->
<g id="edge12" class="edge">
<title>EnvModule&#45;&gt;CommonModule</title>
<path fill="none" stroke="black" d="M1954,-274.01C1954,-296.49 1954,-332 1954,-332 1954,-332 1846.01,-332 1846.01,-332"/>
<polygon fill="black" stroke="black" points="1846.01,-328.5 1836.01,-332 1846.01,-335.5 1846.01,-328.5"/>
</g>
<!-- CommonModule&#45;&gt;CoreModule -->
<g id="edge15" class="edge">
<title>CommonModule&#45;&gt;CoreModule</title>
<path fill="none" stroke="black" d="M1724.13,-332C1649.97,-332 1528.27,-332 1528.27,-332 1528.27,-332 1528.27,-379.99 1528.27,-379.99"/>
<polygon fill="black" stroke="black" points="1524.77,-379.99 1528.27,-389.99 1531.77,-379.99 1524.77,-379.99"/>
</g>
<!-- DataResponseInterceptor -->
<g id="node17" class="node">
<title>DataResponseInterceptor</title>
<ellipse fill="#fdb462" stroke="black" cx="1780" cy="-256" rx="108.77" ry="18"/>
<text text-anchor="middle" x="1780" y="-251.8" font-family="Times,serif" font-size="14.00">DataResponseInterceptor</text>
</g>
<!-- DataResponseInterceptor&#45;&gt;CommonModule -->
<g id="edge13" class="edge">
<title>DataResponseInterceptor&#45;&gt;CommonModule</title>
<path fill="none" stroke="black" d="M1780,-274.01C1780,-274.01 1780,-303.85 1780,-303.85"/>
<polygon fill="black" stroke="black" points="1776.5,-303.85 1780,-313.85 1783.5,-303.85 1776.5,-303.85"/>
</g>
<!-- PostgresModule -->
<g id="node20" class="node">
<title>PostgresModule</title>
<polygon fill="#8dd3c7" stroke="black" points="2251.49,-274 2248.49,-278 2227.49,-278 2224.49,-274 2144.51,-274 2144.51,-238 2251.49,-238 2251.49,-274"/>
<text text-anchor="middle" x="2198" y="-251.8" font-family="Times,serif" font-size="14.00">PostgresModule</text>
</g>
<!-- DatabasesModule -->
<g id="node22" class="node">
<title>DatabasesModule</title>
<polygon fill="#8dd3c7" stroke="black" points="2143.29,-350 2140.29,-354 2119.29,-354 2116.29,-350 2026.71,-350 2026.71,-314 2143.29,-314 2143.29,-350"/>
<text text-anchor="middle" x="2085" y="-327.8" font-family="Times,serif" font-size="14.00">DatabasesModule</text>
</g>
<!-- PostgresModule&#45;&gt;DatabasesModule -->
<g id="edge19" class="edge">
<title>PostgresModule&#45;&gt;DatabasesModule</title>
<path fill="none" stroke="black" d="M2144.51,-256C2138.75,-256 2134.93,-256 2134.93,-256 2134.93,-256 2134.93,-303.99 2134.93,-303.99"/>
<polygon fill="black" stroke="black" points="2131.43,-303.99 2134.93,-313.99 2138.43,-303.99 2131.43,-303.99"/>
</g>
<!-- RedisModule -->
<g id="node21" class="node">
<title>RedisModule</title>
<polygon fill="#8dd3c7" stroke="black" points="2126.94,-274 2123.94,-278 2102.94,-278 2099.94,-274 2035.06,-274 2035.06,-238 2126.94,-238 2126.94,-274"/>
<text text-anchor="middle" x="2081" y="-251.8" font-family="Times,serif" font-size="14.00">RedisModule</text>
</g>
<!-- RedisModule&#45;&gt;DatabasesModule -->
<g id="edge20" class="edge">
<title>RedisModule&#45;&gt;DatabasesModule</title>
<path fill="none" stroke="black" d="M2081,-274.01C2081,-274.01 2081,-303.85 2081,-303.85"/>
<polygon fill="black" stroke="black" points="2077.5,-303.85 2081,-313.85 2084.5,-303.85 2077.5,-303.85"/>
</g>
<!-- RedisLockService  -->
<g id="node30" class="node">
<title>RedisLockService </title>
<polygon fill="#fb8072" stroke="black" points="2309.13,-198 2186.87,-198 2186.87,-162 2309.13,-162 2309.13,-198"/>
<text text-anchor="middle" x="2248" y="-175.8" font-family="Times,serif" font-size="14.00">RedisLockService </text>
</g>
<!-- RedisModule&#45;&gt;RedisLockService  -->
<g id="edge33" class="edge">
<title>RedisModule&#45;&gt;RedisLockService </title>
<path fill="none" stroke="black" stroke-dasharray="5,2" d="M2103.86,-237.89C2103.86,-228.1 2103.86,-218 2103.86,-218 2103.86,-218 2219.21,-218 2219.21,-218 2219.21,-218 2219.21,-208.11 2219.21,-208.11"/>
<polygon fill="black" stroke="black" points="2222.71,-208.11 2219.21,-198.11 2215.71,-208.11 2222.71,-208.11"/>
</g>
<!-- DatabasesModule&#45;&gt;InfrastructureModule -->
<g id="edge32" class="edge">
<title>DatabasesModule&#45;&gt;InfrastructureModule</title>
<path fill="none" stroke="black" d="M2085,-350.11C2085,-359.9 2085,-370 2085,-370 2085,-370 1390.8,-370 1390.8,-370 1390.8,-370 1390.8,-379.89 1390.8,-379.89"/>
<polygon fill="black" stroke="black" points="1387.3,-379.89 1390.8,-389.89 1394.3,-379.89 1387.3,-379.89"/>
</g>
<!-- DeviceDetectorService -->
<g id="node25" class="node">
<title>DeviceDetectorService</title>
<ellipse fill="#fdb462" stroke="black" cx="636" cy="-104" rx="100.66" ry="18"/>
<text text-anchor="middle" x="636" y="-99.8" font-family="Times,serif" font-size="14.00">DeviceDetectorService</text>
</g>
<!-- DeviceDetectorService&#45;&gt;DeviceModule -->
<g id="edge23" class="edge">
<title>DeviceDetectorService&#45;&gt;DeviceModule</title>
<path fill="none" stroke="black" d="M549.47,-113.32C549.47,-113.32 549.47,-151.89 549.47,-151.89"/>
<polygon fill="black" stroke="black" points="545.97,-151.89 549.47,-161.89 552.97,-151.89 545.97,-151.89"/>
</g>
<!-- DeviceMapper -->
<g id="node26" class="node">
<title>DeviceMapper</title>
<ellipse fill="#fdb462" stroke="black" cx="449" cy="-104" rx="68.32" ry="18"/>
<text text-anchor="middle" x="449" y="-99.8" font-family="Times,serif" font-size="14.00">DeviceMapper</text>
</g>
<!-- DeviceMapper&#45;&gt;DeviceModule -->
<g id="edge24" class="edge">
<title>DeviceMapper&#45;&gt;DeviceModule</title>
<path fill="none" stroke="black" d="M504.91,-114.57C504.91,-114.57 504.91,-151.93 504.91,-151.93"/>
<polygon fill="black" stroke="black" points="501.41,-151.93 504.91,-161.93 508.41,-151.93 501.41,-151.93"/>
</g>
<!-- FingerprintService -->
<g id="node27" class="node">
<title>FingerprintService</title>
<ellipse fill="#fdb462" stroke="black" cx="279" cy="-104" rx="83.38" ry="18"/>
<text text-anchor="middle" x="279" y="-99.8" font-family="Times,serif" font-size="14.00">FingerprintService</text>
</g>
<!-- FingerprintService&#45;&gt;DeviceModule -->
<g id="edge25" class="edge">
<title>FingerprintService&#45;&gt;DeviceModule</title>
<path fill="none" stroke="black" d="M344.18,-115.25C344.18,-135.03 344.18,-174 344.18,-174 344.18,-174 482.34,-174 482.34,-174"/>
<polygon fill="black" stroke="black" points="482.34,-177.5 492.34,-174 482.34,-170.5 482.34,-177.5"/>
</g>
<!-- UserAgentParser -->
<g id="node28" class="node">
<title>UserAgentParser</title>
<ellipse fill="#fdb462" stroke="black" cx="101" cy="-104" rx="76.98" ry="18"/>
<text text-anchor="middle" x="101" y="-99.8" font-family="Times,serif" font-size="14.00">UserAgentParser</text>
</g>
<!-- UserAgentParser&#45;&gt;DeviceModule -->
<g id="edge26" class="edge">
<title>UserAgentParser&#45;&gt;DeviceModule</title>
<path fill="none" stroke="black" d="M101,-122.2C101,-146.36 101,-186 101,-186 101,-186 482.27,-186 482.27,-186"/>
<polygon fill="black" stroke="black" points="482.27,-189.5 492.27,-186 482.27,-182.5 482.27,-189.5"/>
</g>
<!-- SecurityModule&#45;&gt;FeaturesModule -->
<g id="edge28" class="edge">
<title>SecurityModule&#45;&gt;FeaturesModule</title>
<path fill="none" stroke="black" d="M1224,-350.01C1224,-350.01 1224,-379.85 1224,-379.85"/>
<polygon fill="black" stroke="black" points="1220.5,-379.85 1224,-389.85 1227.5,-379.85 1220.5,-379.85"/>
</g>
<!-- RedisLockService -->
<g id="node31" class="node">
<title>RedisLockService</title>
<ellipse fill="#fdb462" stroke="black" cx="2081" cy="-180" rx="81.66" ry="18"/>
<text text-anchor="middle" x="2081" y="-175.8" font-family="Times,serif" font-size="14.00">RedisLockService</text>
</g>
<!-- RedisLockService&#45;&gt;RedisModule -->
<g id="edge34" class="edge">
<title>RedisLockService&#45;&gt;RedisModule</title>
<path fill="none" stroke="black" d="M2081,-198.01C2081,-198.01 2081,-227.85 2081,-227.85"/>
<polygon fill="black" stroke="black" points="2077.5,-227.85 2081,-237.85 2084.5,-227.85 2077.5,-227.85"/>
</g>
<!-- RedisService -->
<g id="node32" class="node">
<title>RedisService</title>
<ellipse fill="#fdb462" stroke="black" cx="1919" cy="-180" rx="61.97" ry="18"/>
<text text-anchor="middle" x="1919" y="-175.8" font-family="Times,serif" font-size="14.00">RedisService</text>
</g>
<!-- RedisService&#45;&gt;RedisModule -->
<g id="edge35" class="edge">
<title>RedisService&#45;&gt;RedisModule</title>
<path fill="none" stroke="black" d="M1946.97,-196.25C1946.97,-210.18 1946.97,-228 1946.97,-228 1946.97,-228 2058.14,-228 2058.14,-228 2058.14,-228 2058.14,-228.98 2058.14,-228.98"/>
<polygon fill="black" stroke="black" points="2054.64,-227.79 2058.14,-237.79 2061.64,-227.79 2054.64,-227.79"/>
</g>
<!-- JwtStrategy -->
<g id="node33" class="node">
<title>JwtStrategy</title>
<ellipse fill="#fdb462" stroke="black" cx="1226" cy="-256" rx="56.76" ry="18"/>
<text text-anchor="middle" x="1226" y="-251.8" font-family="Times,serif" font-size="14.00">JwtStrategy</text>
</g>
<!-- JwtStrategy&#45;&gt;SecurityModule -->
<g id="edge37" class="edge">
<title>JwtStrategy&#45;&gt;SecurityModule</title>
<path fill="none" stroke="black" d="M1224,-274.01C1224,-274.01 1224,-303.85 1224,-303.85"/>
<polygon fill="black" stroke="black" points="1220.5,-303.85 1224,-313.85 1227.5,-303.85 1220.5,-303.85"/>
</g>
<!-- SessionsService -->
<g id="node35" class="node">
<title>SessionsService</title>
<ellipse fill="#fdb462" stroke="black" cx="1424" cy="-256" rx="73.01" ry="18"/>
<text text-anchor="middle" x="1424" y="-251.8" font-family="Times,serif" font-size="14.00">SessionsService</text>
</g>
<!-- SessionsService&#45;&gt;SessionsModule -->
<g id="edge39" class="edge">
<title>SessionsService&#45;&gt;SessionsModule</title>
<path fill="none" stroke="black" d="M1424,-237.97C1424,-217.23 1424,-186 1424,-186 1424,-186 836.83,-186 836.83,-186"/>
<polygon fill="black" stroke="black" points="836.83,-182.5 826.83,-186 836.83,-189.5 836.83,-182.5"/>
</g>
<!-- TokenService -->
<g id="node37" class="node">
<title>TokenService</title>
<ellipse fill="#fdb462" stroke="black" cx="265" cy="-332" rx="64.83" ry="18"/>
<text text-anchor="middle" x="265" y="-327.8" font-family="Times,serif" font-size="14.00">TokenService</text>
</g>
<!-- TokenService&#45;&gt;TokenModule -->
<g id="edge43" class="edge">
<title>TokenService&#45;&gt;TokenModule</title>
<path fill="none" stroke="black" d="M269.84,-313.97C269.84,-307.15 269.84,-301 269.84,-301 269.84,-301 631.17,-301 631.17,-301 631.17,-301 631.17,-284.04 631.17,-284.04"/>
<polygon fill="black" stroke="black" points="634.67,-284.04 631.17,-274.04 627.67,-284.04 634.67,-284.04"/>
</g>
<!-- UsersService -->
<g id="node39" class="node">
<title>UsersService</title>
<ellipse fill="#fdb462" stroke="black" cx="272" cy="-256" rx="61.95" ry="18"/>
<text text-anchor="middle" x="272" y="-251.8" font-family="Times,serif" font-size="14.00">UsersService</text>
</g>
<!-- UsersService&#45;&gt;UsersModule -->
<g id="edge45" class="edge">
<title>UsersService&#45;&gt;UsersModule</title>
<path fill="none" stroke="black" d="M272,-237.85C272,-224.26 272,-208 272,-208 272,-208 639.76,-208 639.76,-208 639.76,-208 639.76,-207.02 639.76,-207.02"/>
<polygon fill="black" stroke="black" points="643.26,-208.21 639.76,-198.21 636.26,-208.21 643.26,-208.21"/>
</g>
</g>
</svg>
